SplineFontDB: 3.0
FontName: BowlbyOne
FullName: Bowlby One
FamilyName: Bowlby One
Weight: Normal
Copyright: Copyright (c) 2011 by vernon adams (vern@newtypography.co.uk), with Reserved Font Names "Bowlby" "Bowlby One" and "Bowlby One SC". This Font Software is licensed under the SIL Open Font License, Version 1.1. This license is available with a FAQ at: http://scripts.sil.org/OFL
Version: 001.001
ItalicAngle: 0
UnderlinePosition: -103
UnderlineWidth: 102
Ascent: 1638
Descent: 410
sfntRevision: 0x00010000
LayerCount: 2
Layer: 0 1 "Back"  1
Layer: 1 1 "Fore"  0
NeedsXUIDChange: 1
XUID: [1021 288 713564382 87652]
FSType: 0
OS2Version: 2
OS2_WeightWidthSlopeOnly: 0
OS2_UseTypoMetrics: 1
CreationTime: 1310501215
ModificationTime: 1310512271
PfmFamily: 33
TTFWeight: 400
TTFWidth: 5
LineGap: 0
VLineGap: 0
Panose: 2 0 5 5 6 0 0 2 0 4
OS2TypoAscent: 2276
OS2TypoAOffset: 0
OS2TypoDescent: -932
OS2TypoDOffset: 0
OS2TypoLinegap: 0
OS2WinAscent: 2276
OS2WinAOffset: 0
OS2WinDescent: 932
OS2WinDOffset: 0
HheadAscent: 2276
HheadAOffset: 0
HheadDescent: -932
HheadDOffset: 0
OS2SubXSize: 1331
OS2SubYSize: 1229
OS2SubXOff: 0
OS2SubYOff: 154
OS2SupXSize: 1331
OS2SupYSize: 1229
OS2SupXOff: 0
OS2SupYOff: 717
OS2StrikeYSize: 102
OS2StrikeYPos: 512
OS2Vendor: 'newt'
OS2CodePages: 00000001.00000000
OS2UnicodeRanges: 800000ef.4000a04b.00000000.00000000
Lookup: 258 0 0 "'kern' Horizontal Kerning in Latin lookup 0"  {"'kern' Horizontal Kerning in Latin lookup 0 subtable"  } ['kern' ('latn' <'dflt' > ) ]
MarkAttachClasses: 1
DEI: 91125

StartChar: exclam
Encoding: 33 33 4
Width: 792
Flags: HMW
HStem: -34 362<154 167.5> 1508 20G<633 652.5>
LayerCount: 2
Fore
SplineSet
114 1379 m 1,0,-1
 107 1500 l 2,1,2
 107.000153596 1511.98727517 107.000153596 1511.98727517 268 1516 c 1,3,-1
 324 1516 l 1,4,-1
 388 1521 l 2,5,6
 449 1526 449 1526 633 1528 c 0,7,8
 704 1528 704 1528 706 1506 c 1,9,-1
 692 1318 l 1,10,11
 649 800 649 800 622 562 c 0,12,13
 620 543 620 543 528 543 c 2,14,-1
 468 543 l 1,15,-1
 448 544 l 1,16,-1
 407 543 l 1,17,-1
 367 543 l 1,18,-1
 283 542 l 1,19,-1
 252 542 l 1,20,-1
 237 541 l 1,21,-1
 198 541 l 1,22,23
 163.506963788 555.782729805 163.506963788 555.782729805 162.5 659.5 c 0,24,25
 162 711 162 711 161 723 c 2,26,-1
 151 853 l 2,27,28
 150 865 150 865 146 912 c 128,-1,29
 142 959 142 959 141 983 c 2,30,-1
 114 1379 l 1,0,-1
656 311 m 0,31,32
 656 310 656 310 655.5 307.5 c 128,-1,33
 655 305 655 305 655 173 c 128,-1,34
 655 41 655 41 659 -11 c 1,35,36
 648 -21 648 -21 463 -28 c 1,37,-1
 443 -28 l 1,38,-1
 241 -32 l 1,39,-1
 233 -32 l 1,40,41
 179 -34 179 -34 154 -34 c 1,42,-1
 144 -19 l 1,43,-1
 127 -3 l 1,44,45
 127 120.6 127 120.6 135.5 224.3 c 128,-1,46
 144 328 144 328 146 328 c 0,47,48
 502 328 502 328 579 325.5 c 128,-1,49
 656 323 656 323 656 311 c 0,31,32
EndSplineSet
EndChar

StartChar: quotedbl
Encoding: 34 34 5
Width: 1285
Flags: HMW
HStem: 863 21G<1136 1138 1136 1144> 1507 20G<1127 1128> 1509 20G<252 383 383 387.5> 1510 20G<215 222> 1511 20G<438.5 481.5 752 810 810 863> 1513 20G<1128 1128>
VStem: 200 403 741 400
LayerCount: 2
Fore
SplineSet
503 875 m 1,0,-1
 484 876 l 1,1,2
 307 874 307 874 217 871 c 1,3,-1
 193 892 l 1,4,5
 193 949 193 949 198 1031 c 1,6,-1
 203 1284 l 1,7,-1
 202 1315 l 1,8,-1
 208 1423 l 1,9,-1
 208 1444 l 1,10,-1
 206 1477 l 1,11,12
 206 1521 206 1521 215 1530 c 1,13,-1
 252 1529 l 1,14,-1
 383 1529 l 1,15,-1
 455 1531 l 1,16,17
 572 1531 572 1531 590 1517 c 1,18,-1
 589 1513 l 1,19,-1
 603 917 l 2,20,21
 603 890 603 890 591 882.5 c 128,-1,22
 579 875 579 875 543 875 c 2,23,-1
 503 875 l 1,0,-1
1125 1519 m 0,24,25
 1140.25 1227.07142857 1140.25 1227.07142857 1140.25 1057.78571429 c 128,-1,26
 1140.25 888.5 1140.25 888.5 1138 884 c 1,27,-1
 1015 880 l 1,28,29
 927 880 927 880 822 875 c 2,30,-1
 757 872 l 1,31,32
 736 900 736 900 736 938 c 2,33,-1
 736 1002 l 1,34,-1
 746 1293 l 2,35,36
 748 1323 748 1323 748 1387 c 2,37,-1
 748 1467 l 1,38,-1
 747 1482 l 1,39,40
 747 1524 747 1524 752 1531 c 1,41,-1
 810 1531 l 2,42,43
 1128 1531 1128 1531 1128 1533 c 2,44,-1
 1128 1527 l 1,45,46
 1125 1527 1125 1527 1125 1519 c 0,24,25
1136 884 m 1,47,-1
 1152 874 l 1,48,49
 1152 863 1152 863 1136 863 c 1,50,-1
 1136 883 l 1,51,-1
 1135 883 l 1,52,-1
 1136 884 l 1,47,-1
EndSplineSet
EndChar

StartChar: numbersign
Encoding: 35 35 6
Width: 1548
Flags: HMW
HStem: -32 21G<359 393.5 841 884.5> 378 277<294 296.5 268 342 268 391> 843 263 1510 20G<748 761 761 776.5>
LayerCount: 2
Fore
SplineSet
406 1118 m 1,0,-1
 469 1116 l 1,1,-1
 474 1116 l 2,2,3
 494.08 1116 494.08 1116 506.04 1190.75 c 128,-1,4
 518 1265.5 518 1265.5 529 1337 c 2,5,-1
 555 1520 l 1,6,7
 569 1530 569 1530 748 1530 c 2,8,-1
 761 1530 l 2,9,10
 812 1530 812 1530 822 1517 c 1,11,12
 806 1431 806 1431 794 1324 c 2,13,-1
 791 1298 l 2,14,15
 789 1279 789 1279 761 1106 c 1,16,-1
 908 1106 l 1,17,18
 912 1136 912 1136 926.936587908 1309.73610146 c 128,-1,19
 941.873175817 1483.47220292 941.873175817 1483.47220292 967 1522 c 1,20,-1
 1209 1522 l 2,21,22
 1218 1522 1218 1522 1222 1518 c 1,23,24
 1203 1353 1203 1353 1179 1183 c 2,25,-1
 1168 1108 l 1,26,-1
 1198 1107 l 1,27,-1
 1231 1107 l 2,28,29
 1265 1107 1265 1107 1277 1108 c 1,30,-1
 1298 1108 l 1,31,-1
 1317 1109 l 1,32,33
 1325 1103 1325 1103 1325 1053 c 1,34,-1
 1324 1037 l 1,35,-1
 1324 945 l 1,36,-1
 1326 890 l 1,37,-1
 1326 874 l 2,38,39
 1326 852 1326 852 1227 852 c 1,40,-1
 1152 855 l 1,41,-1
 1138 855 l 1,42,-1
 1124 754 l 2,43,44
 1124 752 1124 752 1123.07136721 746.464101615 c 128,-1,45
 1122.14273441 740.92820323 1122.14273441 740.92820323 1122 738 c 2,46,-1
 1112 651 l 1,47,-1
 1240 651 l 2,48,49
 1266.5 651 1266.5 651 1268 648 c 1,50,-1
 1268 497 l 1,51,-1
 1269 470 l 1,52,-1
 1269 401 l 1,53,54
 1267 394 1267 394 1262 394 c 2,55,-1
 1084 398 l 1,56,57
 1057 206.157894737 1057 206.157894737 1057 166.078947368 c 128,-1,58
 1057 126 1057 126 1056.5 105 c 0,59,60
 1055.18479685 49.7614678899 1055.18479685 49.7614678899 1033.80668414 10.380733945 c 128,-1,61
 1012.42857143 -29 1012.42857143 -29 955 -29 c 1,62,-1
 865 -32 l 1,63,64
 769 -32 769 -32 752 -12 c 1,65,66
 752 -9 752 -9 764 89 c 2,67,-1
 770 138 l 2,68,69
 785 257 785 257 804 387 c 1,70,71
 779 383 779 383 745.5 381 c 128,-1,72
 712 379 712 379 677 371 c 1,73,-1
 638 46 l 2,74,75
 629.54893617 -18.7914893617 629.54893617 -18.7914893617 613.774468085 -27.3957446809 c 128,-1,76
 598 -36 598 -36 580 -36 c 2,77,-1
 359 -32 l 1,78,79
 352 -22 352 -22 345 -17 c 1,80,-1
 347 -16 l 1,81,-1
 337 0 l 1,82,83
 344 57 344 57 356 135 c 2,84,-1
 391 378 l 1,85,-1
 342 378 l 2,86,87
 268 378 268 378 253.5 386 c 128,-1,88
 239 394 239 394 239 439 c 2,89,-1
 239 579 l 1,90,-1
 237 613 l 1,91,92
 237 655 237 655 291 655 c 1,93,-1
 324 654 l 1,94,-1
 432 654 l 1,95,-1
 456 843 l 1,96,-1
 410 843 l 2,97,98
 305 843 305 843 305 863 c 2,99,-1
 308 1100 l 2,100,101
 308 1118 308 1118 406 1118 c 1,0,-1
848 902 m 1,102,-1
 729 908 l 1,103,-1
 717 908 l 1,104,-1
 694 868 l 1,105,106
 693 862 693 862 672 728 c 1,107,-1
 658 656 l 1,108,109
 659 610 659 610 697 603 c 1,110,-1
 706 603 l 1,111,-1
 713 604 l 1,112,-1
 846 610 l 2,113,114
 878 612 878 612 884 643 c 2,115,-1
 920 852 l 1,116,117
 914 902 914 902 869 902 c 2,118,-1
 848 902 l 1,102,-1
344 -17 m 1,119,-1
 329 -22 l 1,120,121
 329 -13 329 -13 332.5 -13 c 128,-1,122
 336 -13 336 -13 344 -17 c 1,119,-1
EndSplineSet
EndChar

StartChar: dollar
Encoding: 36 36 7
Width: 1444
Flags: HMW
HStem: -269 21G<838 896> 1080 471 1742 20G<831 875.5>
VStem: 574 314<1681.5 1701 1656.5 1721>
LayerCount: 2
Fore
SplineSet
1422 1089 m 1,0,1
 1356.28571429 1089.57142857 l 2,2,3
 1310 1089.57142857 1310 1089.57142857 1238 1087 c 2,4,-1
 1178 1085 l 2,5,6
 1046 1080 1046 1080 975.5 1080 c 128,-1,7
 905 1080 905 1080 896.5 1087 c 128,-1,8
 888 1094 888 1094 880 1123 c 0,9,10
 855 1211 855 1211 750 1212 c 1,11,-1
 724 1206 l 2,12,13
 641.056074766 1186.09345794 641.056074766 1186.09345794 623 1156 c 0,14,15
 614 1141 614 1141 614 1119 c 128,-1,16
 614 1097 614 1097 629.5 1078 c 128,-1,17
 645 1059 645 1059 664 1047.5 c 128,-1,18
 683 1036 683 1036 718.5 1024 c 128,-1,19
 754 1012 754 1012 774 1007.5 c 128,-1,20
 794 1003 794 1003 833 994 c 2,21,-1
 985 960 l 1,22,23
 1197 904 1197 904 1299 843 c 1,24,25
 1487 700.806649083 1487 700.806649083 1487 453 c 0,26,27
 1487 288.2 1487 288.2 1399.0095057 182.611406844 c 128,-1,28
 1311.01901141 77.0228136882 1311.01901141 77.0228136882 1185.57369489 23.524075763 c 128,-1,29
 1060.12837838 -29.9746621622 1060.12837838 -29.9746621622 908 -60 c 1,30,-1
 911 -234 l 1,31,-1
 912 -251 l 1,32,33
 910 -269 910 -269 889 -269 c 0,34,35
 739 -269 739 -269 589 -263 c 1,36,-1
 561 -237 l 1,37,38
 562 -213 562 -213 562 -172.5 c 0,39,40
 562 -89.3333333333 562 -89.3333333333 541.510638298 -68.085106383 c 128,-1,41
 521.021276596 -46.8368794326 521.021276596 -46.8368794326 440.510638298 -33.4184397163 c 128,-1,42
 360 -20 360 -20 278 25.5 c 128,-1,43
 196 71 196 71 145 137.5 c 0,44,45
 46.0456026059 266.528773073 46.0456026059 266.528773073 28 453 c 1,46,47
 30 469 30 469 78 469 c 1,48,-1
 126 467 l 1,49,-1
 604 467 l 1,50,51
 616.032085561 461.652406417 616.032085561 461.652406417 625.016042781 420.326203209 c 128,-1,52
 634 379 634 379 645 356.5 c 0,53,54
 671.155555556 303 671.155555556 303 745.077777778 303 c 128,-1,55
 819 303 819 303 863 335.5 c 128,-1,56
 907 368 907 368 907 417.5 c 128,-1,57
 907 467 907 467 875 489.5 c 128,-1,58
 843 512 843 512 819 513.5 c 128,-1,59
 795 515 795 515 778.5 520.5 c 128,-1,60
 762 526 762 526 735.5 535 c 128,-1,61
 709 544 709 544 687 550 c 2,62,-1
 649 560 l 2,63,64
 379 631 379 631 301 669 c 1,65,66
 63 776.295081967 63 776.295081967 63 1042 c 0,67,68
 63 1374.5625 63 1374.5625 378 1495.5 c 0,69,70
 471.333333333 1531.33333333 471.333333333 1531.33333333 579 1554 c 1,71,72
 574 1622 574 1622 574 1685.5 c 128,-1,73
 574 1749 574 1749 580 1761 c 1,74,75
 636 1759 636 1759 658 1759 c 2,76,-1
 866 1762 l 2,77,78
 888 1762 888 1762 888 1679 c 1,79,-1
 884 1551 l 1,80,81
 1242.4698609 1527.10200927 1242.4698609 1527.10200927 1362 1335 c 0,82,83
 1423 1236.96428571 1423 1236.96428571 1423 1091 c 1,84,-1
 1422 1089 l 1,0,1
EndSplineSet
EndChar

StartChar: percent
Encoding: 37 37 8
Width: 2153
Flags: HMW
HStem: -88 21G<568 568.5> -62 202<1674.5 1788.5 1674.5 1845.5> 541 199<401.5 526.5 401.5 621.5> 744 212<1727 1727> 1347 206<470 523.5> 1544 20G<1432 1459>
VStem: 18 320<1001 1042> 587 320<961 1002 1002 1005.5 1127.5 1180.5> 1284 320<408 434.5> 1857 323<350 379 379 384.5 282.5 577>
LayerCount: 2
Fore
SplineSet
1419.5361194 832.111343284 m 0,0,1
 1568.19756784 956 1568.19756784 956 1731.32246813 956 c 128,-1,2
 1894.44736842 956 1894.44736842 956 2014 879 c 1,3,-1
 2013 879 l 1,4,5
 2058 843 2058 843 2096 783 c 128,-1,6
 2134 723 2134 723 2152 669 c 1,7,-1
 2151 669 l 1,8,9
 2180 582 2180 582 2180 455.5 c 0,10,11
 2180 202 2180 202 2048 70 c 128,-1,12
 1916 -62 1916 -62 1716 -62 c 0,13,14
 1383.84158416 -62 1383.84158416 -62 1307 236.5 c 0,15,16
 1284 325.846153846 1284 325.846153846 1284 425.244505495 c 128,-1,17
 1284 524.642857143 1284 524.642857143 1314.0361194 646.932771855 c 128,-1,18
 1344.07223881 769.222686567 1344.07223881 769.222686567 1419.5361194 832.111343284 c 0,0,1
18 1003 m 0,19,20
 18 1044 18 1044 22 1060 c 1,21,22
 45 1318 45 1318 148 1430 c 1,23,24
 304 1553 304 1553 477 1553 c 0,25,26
 754.078740157 1553 754.078740157 1553 854 1341.5 c 0,27,28
 907 1229.31666667 907 1229.31666667 907 1109.65833333 c 128,-1,29
 907 990 907 990 893 914 c 0,30,31
 862.515988823 748.515367898 862.515988823 748.515367898 754.56607522 644.757683949 c 128,-1,32
 646.616161616 541 646.616161616 541 448 541 c 0,33,34
 162.733333333 541 162.733333333 541 68 761.5 c 0,35,36
 18 877.879310345 18 877.879310345 18 1003 c 0,19,20
573 -89 m 1,37,-1
 568 -88 l 1,38,-1
 549 -37 l 1,39,40
 657 166 657 166 880.5 566 c 128,-1,41
 1104 966 1104 966 1213 1170 c 1,42,-1
 1432 1564 l 1,43,44
 1588 1564 1588 1564 1636 1571 c 1,45,-1
 1617 1532 l 1,46,47
 1526.03410483 1360.53410483 1526.03410483 1360.53410483 1446 1200 c 1,48,-1
 1352 1015 l 1,49,-1
 1352 1017 l 1,50,-1
 1264 851 l 1,51,52
 1163.19848199 663.79561148 1163.19848199 663.79561148 1109 546 c 1,53,-1
 799 -73 l 2,54,55
 789 -91 789 -91 714 -91 c 128,-1,56
 639 -91 639 -91 581 -89 c 1,57,-1
 573 -89 l 1,37,-1
1636 1571 m 1,58,-1
 1648 1591 l 1,59,-1
 1664 1579 l 1,60,61
 1659 1574 1659 1574 1636 1571 c 1,58,-1
1856 510 m 1,62,-1
 1857 533 l 1,63,64
 1857 745 1857 745 1732 745 c 1,65,-1
 1727 744 l 1,66,67
 1666.6559633 741.98853211 1666.6559633 741.98853211 1640 681.5 c 0,68,69
 1604 599.807692308 1604 599.807692308 1604 444 c 2,70,-1
 1604 408 l 1,71,72
 1607.67808219 279.267123288 1607.67808219 279.267123288 1620.8390411 245.633561644 c 128,-1,73
 1634 212 1634 212 1647.5 188 c 0,74,75
 1674.5 140 1674.5 140 1737 140 c 0,76,77
 1857 140 1857 140 1857 350 c 2,78,-1
 1857 379 l 1,79,-1
 1856 410 l 1,80,-1
 1856 510 l 1,62,-1
587 1131 m 1,81,82
 587 1346.51315789 587 1346.51315789 477.20533241 1346.51315789 c 0,83,84
 356.211098398 1346.51315789 356.211098398 1346.51315789 341.5 1143.5 c 0,85,86
 338 1095.2 338 1095.2 338 1002.93712074 c 0,87,88
 338 740 338 740 473 740 c 0,89,90
 587 740 587 740 587 961 c 2,91,-1
 587 1002 l 1,92,-1
 586 1023 l 1,93,-1
 586 1109 l 1,94,-1
 587 1131 l 1,81,82
EndSplineSet
EndChar

StartChar: ampersand
Encoding: 38 38 9
Width: 1815
Flags: HMW
HStem: -72 273<696.5 705> 1326 225<727.5 810.5>
VStem: 17 485<328.5 437.5 328.5 481> 967 421<1138 1232 1107.5 1239>
LayerCount: 2
Fore
SplineSet
1522 792 m 1,0,-1
 1682 788 l 1,1,-1
 1684 788 l 2,2,3
 1750 788 1750 788 1777 790 c 1,4,5
 1785 785 1785 785 1791 771 c 1,6,-1
 1786 736 l 1,7,8
 1776 622 1776 622 1724.5 508 c 128,-1,9
 1673 394 1673 394 1584 305 c 1,10,-1
 1779 103 l 2,11,12
 1807 73 1807 73 1826 48 c 1,13,-1
 1846 29 l 2,14,15
 1880 -4 1880 -4 1882 -19 c 1,16,17
 1882 -35 1882 -35 1822 -35 c 1,18,-1
 1775 -34 l 1,19,-1
 1516 -34 l 2,20,21
 1402 -34 1402 -34 1302 -30 c 1,22,23
 1269 -12 1269 -12 1243 14 c 1,24,-1
 1204 47 l 1,25,-1
 1151 20 l 1,26,27
 937 -60 937 -60 794 -69 c 1,28,-1
 705 -72 l 1,29,30
 507 -72 507 -72 349 -14 c 128,-1,31
 191 44 191 44 104 145 c 128,-1,32
 17 246 17 246 17 370 c 0,33,34
 17 664 17 664 417 811 c 1,35,36
 310 880 310 880 240.5 977 c 128,-1,37
 171 1074 171 1074 171 1157 c 0,38,39
 171 1311.5106383 171 1311.5106383 273 1407 c 0,40,41
 335 1465 335 1465 468 1508 c 128,-1,42
 601 1551 601 1551 760 1551 c 0,43,44
 1096 1551 1096 1551 1262 1435 c 0,45,46
 1388 1345.83076923 1388 1345.83076923 1388 1190 c 0,47,48
 1388 1076 1388 1076 1311.5 981 c 128,-1,49
 1235 886 1235 886 1083 776 c 1,50,51
 1136 723 1136 723 1165 699 c 1,52,-1
 1165 700 l 1,53,-1
 1273 597 l 1,54,55
 1327.62450593 670.743083004 1327.62450593 670.743083004 1331.18032684 720.524575803 c 0,56,57
 1334.73614776 770.306068602 1334.73614776 770.306068602 1354.86807388 779.653034301 c 0,58,59
 1381.46153846 792 1381.46153846 792 1522 792 c 1,0,-1
1012 281 m 1,61,62
 968.888888889 315.12962963 968.888888889 315.12962963 944.944444444 343.064814815 c 128,-1,63
 921 371 921 371 915 377 c 2,64,-1
 764 521 l 1,65,66
 751.235294118 521 751.235294118 521 744.617647059 533.5 c 128,-1,67
 738 546 738 546 704.5 578.5 c 128,-1,68
 671 611 671 611 645 612 c 1,69,70
 591 586 591 586 546.5 521 c 128,-1,71
 502 456 502 456 502 394.5 c 128,-1,72
 502 333 502 333 542.5 286.5 c 0,73,74
 616.967741935 201 616.967741935 201 738.983870968 201 c 128,-1,75
 861 201 861 201 1012 281 c 1,61,62
762 975 m 1,76,-1
 761 976 l 1,77,78
 774 968 774 968 788 968 c 128,-1,79
 802 968 802 968 813 973 c 1,80,81
 925.67264574 1059.16143498 925.67264574 1059.16143498 953.5 1121 c 0,82,83
 967 1151 967 1151 967 1193 c 128,-1,84
 967 1235 967 1235 933 1269 c 0,85,86
 876 1326 876 1326 788.5 1326 c 128,-1,87
 701 1326 701 1326 648 1283.5 c 128,-1,88
 595 1241 595 1241 595 1169 c 1,89,90
 605 1071 605 1071 762 975 c 1,76,-1
EndSplineSet
EndChar

StartChar: quotesingle
Encoding: 39 39 10
Width: 803
Flags: HMW
HStem: 870 21G<279 286 286 397> 871 21G<222 247 222 222> 1509 20G<220 286 286 337.5>
VStem: 213 395
LayerCount: 2
Fore
SplineSet
214 1461 m 1,0,-1
 213 1479 l 1,1,2
 213 1521 213 1521 220 1529 c 1,3,-1
 286 1529 l 2,4,5
 439.028437941 1528.97156206 439.028437941 1528.97156206 595 1526 c 0,6,7
 599 1525 599 1525 599 1516 c 2,8,-1
 602 1331 l 2,9,10
 608 920 608 920 608 918 c 0,11,12
 608 889 608 889 554.5 879.5 c 128,-1,13
 501 870 501 870 397 870 c 2,14,-1
 286 870 l 1,15,-1
 247 871 l 1,16,-1
 222 871 l 1,17,18
 198 886.428571429 198 886.428571429 198 909 c 2,19,-1
 209 1230 l 2,20,21
 213 1357 213 1357 214 1424 c 1,22,-1
 214 1461 l 1,0,-1
EndSplineSet
EndChar

StartChar: parenleft
Encoding: 40 40 11
Width: 832
Flags: HMW
HStem: -336 21G<672.5 732 732 782> 1512 20G<715 786>
VStem: 140 475
LayerCount: 2
Fore
SplineSet
805 -306 m 1,0,-1
 782 -336 l 1,1,-1
 732 -336 l 1,2,3
 396 -328 l 1,4,5
 362 -309 362 -309 279 -37 c 1,6,-1
 260 13 l 2,7,8
 160 277 160 277 140 616 c 1,9,10
 156 759 156 759 206 974.5 c 128,-1,11
 256 1190 256 1190 308 1352 c 128,-1,12
 360 1514 360 1514 383 1519 c 1,13,14
 409 1532 409 1532 786 1532 c 1,15,16
 794 1526 794 1526 796 1519 c 1,17,-1
 742 1314 l 1,18,19
 615 868 615 868 615 606 c 1,20,21
 628 294 628 294 748 -106 c 1,22,-1
 805 -306 l 1,0,-1
805 -306 m 1,23,-1
 809 -300 l 1,24,-1
 806 -310 l 1,25,-1
 805 -306 l 1,23,-1
EndSplineSet
EndChar

StartChar: parenright
Encoding: 41 41 12
Width: 835
Flags: HMW
HStem: -322 21G<59 60 60 60> 1523 20G<61 379 379 389> 1524 20G
VStem: 232 478
LayerCount: 2
Fore
SplineSet
379 1543 m 1,0,-1
 442 1544 l 2,1,2
 455 1544 455 1544 470 1522 c 1,3,-1
 470 1524 l 1,4,-1
 525 1373 l 2,5,6
 584 1210 584 1210 615.5 1114.5 c 128,-1,7
 647 1019 647 1019 678.5 870 c 128,-1,8
 710 721 710 721 710 597 c 1,9,10
 705 435 705 435 666.5 292 c 128,-1,11
 628 149 628 149 555 -69 c 128,-1,12
 482 -287 482 -287 454 -314 c 1,13,14
 348 -320 348 -320 285 -320 c 2,15,-1
 253 -320 l 1,16,-1
 223 -319 l 1,17,-1
 162 -319 l 2,18,19
 91 -319 91 -319 60 -322 c 1,20,-1
 70 -294 l 2,21,22
 70 -293 70 -293 71 -292 c 2,23,-1
 76 -281 l 1,24,25
 232 246 232 246 232 594 c 0,26,27
 232 845 232 845 105 1295 c 2,28,-1
 41 1521 l 1,29,30
 50 1535 50 1535 61 1543 c 1,31,-1
 379 1543 l 1,0,-1
459 -334 m 1,32,-1
 453 -323 l 1,33,-1
 453 -338 l 1,34,-1
 449 -338 l 1,35,-1
 445 -320 l 1,36,37
 454 -316.4 454 -316.4 472 -311 c 1,38,39
 472 -333 472 -333 457 -337 c 1,40,41
 457 -336 457 -336 459 -334 c 1,32,-1
59 -331 m 1,42,-1
 48 -321 l 1,43,44
 53 -321 53 -321 59 -322 c 1,45,-1
 60 -322 l 1,46,47
 59 -325 59 -325 59 -331 c 1,42,-1
455 -337.5 m 1,48,-1
 456 -337 l 1,49,-1
 455 -337.5 l 1,48,-1
EndSplineSet
EndChar

StartChar: asterisk
Encoding: 42 42 13
Width: 930
Flags: HMW
HStem: 769 21G<376.5 386> 1069 189<648 810> 1518 20G<355 374.5>
LayerCount: 2
Fore
SplineSet
584 1537 m 1,0,1
 747 1461.76923077 747 1461.76923077 747 1445.38461538 c 0,2,3
 747 1429 747 1429 714.5 1383 c 128,-1,4
 682 1337 682 1337 641 1246 c 1,5,-1
 707 1252 l 1,6,7
 737 1258 737 1258 797 1258 c 2,8,-1
 810 1258 l 2,9,10
 844 1258 844 1258 852 1252.5 c 128,-1,11
 860 1247 860 1247 860 1205 c 128,-1,12
 860 1163 860 1163 854 1131 c 1,13,-1
 854 1073 l 2,14,15
 854 1069 854 1069 648 1069 c 1,16,-1
 690 1004 l 1,17,-1
 689 1004 l 1,18,19
 711 963 711 963 718 944 c 1,20,-1
 732 921 l 1,21,22
 748 899 748 899 756 876 c 1,23,-1
 627 793 l 1,24,-1
 628 795 l 1,25,-1
 589 774 l 1,26,-1
 590 775 l 1,27,28
 572.123076923 787.769230769 572.123076923 787.769230769 484 953 c 1,29,-1
 442 872 l 1,30,-1
 442 873 l 1,31,32
 390 769 390 769 380.5 769 c 128,-1,33
 371 769 371 769 333.5 787.5 c 128,-1,34
 296 806 296 806 276 826 c 1,35,-1
 205 871 l 1,36,-1
 197 873 l 1,37,38
 204 901 204 901 268 1003 c 1,39,-1
 290 1048 l 1,40,-1
 193 1046 l 1,41,-1
 179 1046 l 2,42,43
 124.196934516 1046 124.196934516 1046 107.85932922 1055.94336763 c 128,-1,44
 91.5217239232 1065.88673526 91.5217239232 1065.88673526 90.2608619616 1106.92181737 c 128,-1,45
 89 1147.95689948 89 1147.95689948 89 1192.97844974 c 128,-1,46
 89 1238 89 1238 108 1256 c 1,47,48
 206 1256 206 1256 308 1250 c 1,49,-1
 252 1337 l 2,50,51
 207 1407 207 1407 200 1444 c 1,52,53
 202 1448 202 1448 239 1462 c 1,54,55
 333 1538 333 1538 373 1538 c 0,56,57
 374 1538 374 1538 382 1523 c 128,-1,58
 390 1508 390 1508 405 1480.5 c 128,-1,59
 420 1453 420 1453 429 1436 c 2,60,-1
 490 1324 l 1,61,-1
 506 1389 l 1,62,-1
 524 1430 l 1,63,-1
 534 1449 l 2,64,65
 537 1455 537 1455 553.739130435 1489.23913043 c 0,66,67
 570.47826087 1523.47826087 570.47826087 1523.47826087 584 1537 c 1,0,1
759 869 m 2,68,69
 759 870 759 870 758 878 c 1,70,-1
 781 891 l 1,71,72
 800 867 800 867 800 844 c 1,73,-1
 759 852 l 1,74,-1
 759 869 l 2,68,69
195 874 m 1,75,-1
 197 873 l 1,76,-1
 196 871 l 2,77,78
 196 872 196 872 195.5 872.5 c 2,79,-1
 195 874 l 1,75,-1
193 875 m 2,80,-1
 195 874 l 2,81,82
 193 874 193 874 193 875 c 2,80,-1
EndSplineSet
EndChar

StartChar: plus
Encoding: 43 43 14
Width: 1271
Flags: HMW
HStem: -14 21G<503 503> 372 302<495.5 853> 1058 20G<511.5 533> 1059 20G<704.5 734.5>
VStem: 491 302<674 1037 674 1052>
LayerCount: 2
Fore
SplineSet
1189 503 m 1,0,-1
 1188 465 l 1,1,-1
 1188 430 l 2,2,3
 1188 399 1188 399 1187 391 c 1,4,-1
 1183 391 l 1,5,6
 1166 390 1166 390 1135 390 c 2,7,-1
 866 390 l 1,8,-1
 788 391 l 1,9,10
 792 291 792 291 792 70 c 2,11,-1
 792 20 l 2,12,13
 792 -13 792 -13 716 -13 c 2,14,-1
 629 -12 l 1,15,-1
 579 -12 l 2,16,17
 503 -12 503 -12 503 -14 c 2,18,-1
 498 372 l 1,19,-1
 470 371 l 1,20,-1
 368 371 l 1,21,-1
 346 372 l 1,22,23
 324 371 l 1,24,-1
 188 371 l 1,25,-1
 149 372 l 1,26,-1
 112 372 l 1,27,28
 97 381 97 381 97 447 c 1,29,-1
 98 462 l 1,30,-1
 98 531 l 1,31,-1
 97 564 l 1,32,-1
 97 628 l 2,33,34
 97 661 97 661 103 671 c 128,-1,35
 109 681 109 681 134 681 c 0,36,37
 264 681 264 681 488 683 c 1,38,-1
 488 749 l 1,39,-1
 491 1004 l 1,40,-1
 491 1037 l 2,41,42
 491 1062 491 1062 497.5 1070 c 128,-1,43
 504 1078 504 1078 530 1078 c 1,44,-1
 549 1077 l 1,45,-1
 658 1077 l 1,46,-1
 718 1079 l 1,47,48
 785 1079 785 1079 796 1067 c 1,49,-1
 793 674 l 1,50,-1
 1180 676 l 1,51,52
 1189 672 1189 672 1189 625 c 2,53,-1
 1189 503 l 1,0,-1
EndSplineSet
EndChar

StartChar: comma
Encoding: 44 44 15
Width: 735
Flags: HMW
HStem: -249 21G<27 216 27 27> 402 20G<517 570>
LayerCount: 2
Fore
SplineSet
383 419 m 1,0,-1
 534 422 l 1,1,2
 671 422 671 422 671 411 c 2,3,-1
 671 407 l 1,4,5
 614 238 614 238 588 151 c 2,6,-1
 575 108 l 2,7,8
 570 89 570 89 558.5 54.5 c 2,9,-1
 526 -49 l 1,10,-1
 461 -235 l 1,11,12
 442 -250 442 -250 258 -250 c 1,13,-1
 216 -249 l 1,14,-1
 27 -249 l 1,15,16
 17.6666666667 -242 17.6666666667 -242 9 -229 c 1,17,18
 13 -215 13 -215 21.5 -169.5 c 128,-1,19
 30 -124 30 -124 35 -101 c 2,20,-1
 43 -66 l 2,21,22
 49 -39 49 -39 62 17 c 128,-1,23
 75 73 75 73 83 108 c 128,-1,24
 91 143 91 143 102.5 193 c 0,25,26
 149.545454545 397.545454545 149.545454545 397.545454545 169 417 c 1,27,28
 187 419 187 419 225 419 c 2,29,-1
 383 419 l 1,0,-1
EndSplineSet
EndChar

StartChar: hyphen
Encoding: 45 45 16
Width: 859
Flags: HMW
HStem: 355 21G<73 196> 375 359<681.5 692 692 698.5 658 806> 713 20G<730 798 798 798>
LayerCount: 2
Fore
SplineSet
812 550 m 1,0,-1
 811 508 l 1,1,-1
 811 393 l 1,2,3
 809 375 809 375 804 375 c 2,4,-1
 73 355 l 1,5,6
 60 366 60 366 50 379 c 1,7,8
 51 407 l 1,9,-1
 51 437 l 1,10,-1
 53 567 l 1,11,-1
 53 582 l 1,12,-1
 51 648 l 1,13,14
 51 732 51 732 62 732 c 2,15,-1
 283 732 l 1,16,-1
 354 731 l 1,17,-1
 658 734 l 1,18,-1
 692 734 l 1,19,-1
 730 733 l 1,20,-1
 798 733 l 1,21,22
 812 718 812 718 812 564 c 2,23,-1
 812 550 l 1,0,-1
EndSplineSet
EndChar

StartChar: period
Encoding: 46 46 17
Width: 775
Flags: HMW
HStem: -35 21G<153 239> -35 450<153 546> 396 20G<565 588.5> 397 20G
LayerCount: 2
Fore
SplineSet
652 254 m 1,0,1
 652 147 652 147 655 102 c 1,2,-1
 655 33 l 1,3,-1
 656 20 l 1,4,5
 656 -18 656 -18 653.5 -18 c 128,-1,6
 651 -18 651 -18 484.5 -26.5 c 128,-1,7
 318 -35 318 -35 153 -35 c 1,8,-1
 130 1 l 1,9,10
 129 10 129 10 129 25 c 2,11,-1
 132 129 l 1,12,-1
 132 183 l 2,13,14
 132 402 132 402 146 417 c 1,15,16
 380 415 380 415 500 415 c 2,17,-1
 546 415 l 1,18,-1
 569 416 l 1,19,20
 649 416 649 416 649 407 c 2,21,-1
 652 254 l 1,0,1
EndSplineSet
EndChar

StartChar: slash
Encoding: 47 47 18
Width: 804
Flags: HMW
HStem: -75 21G<-10 41 -10 -10> 1545 20G<768 794 794 795.5> 1546 20G<721 722 721 721 802 814.5> 1548 20G<610.5 645.5>
LayerCount: 2
Fore
SplineSet
794 1565 m 1,0,-1
 804 1566 l 1,1,2
 846 1566 846 1566 846 1555 c 1,3,4
 831 1488 831 1488 811 1432 c 1,5,-1
 782 1355 l 1,6,7
 693 1097 693 1097 602 821 c 1,8,-1
 580 758 l 2,9,10
 568 724 568 724 481.5 467 c 128,-1,11
 395 210 395 210 345 81 c 2,12,-1
 327 34 l 1,13,-1
 329 34 l 1,14,15
 300.427392739 -46.00330033 300.427392739 -46.00330033 254.5 -61 c 0,16,17
 230 -69 230 -69 192 -70 c 1,18,-1
 149 -70 l 1,19,20
 111 -75 111 -75 41 -75 c 2,21,-1
 -10 -75 l 1,22,23
 -31.3333333333 -32.3333333333 -31.3333333333 -32.3333333333 -38 -14 c 1,24,25
 -16 58 -16 58 -10 64 c 1,26,-1
 50 229 l 2,27,28
 225 710 225 710 515 1476 c 1,29,-1
 549 1563 l 1,30,31
 566 1568 566 1568 629 1568 c 1,32,-1
 768 1565 l 1,33,-1
 794 1565 l 1,0,-1
EndSplineSet
EndChar

StartChar: zero
Encoding: 48 48 19
Width: 1462
Flags: HMW
HStem: -59 329<635 721> 1237 334<737 751 751 830.5>
LayerCount: 2
Fore
SplineSet
818.5 1221.5 m 128,-1,1
 788 1237 788 1237 747 1237 c 128,-1,2
 706 1237 706 1237 673.5 1219.5 c 128,-1,3
 641 1202 641 1202 619.5 1176 c 128,-1,4
 598 1150 598 1150 583 1105 c 0,5,6
 543 985 543 985 543 770 c 0,7,8
 543 563.692307692 543 563.692307692 553.5 506.346153846 c 0,9,10
 576.6246889 380.049776008 576.6246889 380.049776008 616.076495393 325.024888004 c 128,-1,11
 655.528301887 270 655.528301887 270 727 270 c 0,12,13
 840 270 840 270 883.5 385.5 c 0,14,15
 921 485.068965517 921 485.068965517 921 686 c 2,16,-1
 921 705 l 1,17,18
 925 766 925 766 925 851 c 128,-1,19
 925 936 925 936 923 967.5 c 128,-1,20
 921 999 921 999 916 1041.5 c 128,-1,21
 911 1084 911 1084 898.5 1116 c 128,-1,22
 886 1148 886 1148 867.5 1177 c 128,-1,0
 849 1206 849 1206 818.5 1221.5 c 128,-1,1
1368 348 m 1,23,24
 1255.644644 45.5048107761 1255.644644 45.5048107761 931 -34 c 0,25,26
 830.924863388 -58.5081967213 830.924863388 -58.5081967213 712.609972678 -58.5081967213 c 128,-1,27
 594.295081967 -58.5081967213 594.295081967 -58.5081967213 491.147540984 -28.7540983607 c 0,28,29
 301.516255319 25.9472340426 301.516255319 25.9472340426 192.345907242 168.557148197 c 128,-1,30
 83.1755591653 311.167062352 83.1755591653 311.167062352 50 504 c 1,31,32
 41 547 41 547 31 678 c 2,33,-1
 26 744 l 1,34,35
 26 1213.97237569 26 1213.97237569 315.5 1423.5 c 0,36,37
 485.379814934 1546.45168926 485.379814934 1546.45168926 737 1571 c 1,38,-1
 751 1571 l 2,39,40
 1094.8 1571 1094.8 1571 1267.4 1355.25 c 128,-1,41
 1440 1139.5 1440 1139.5 1440 727 c 0,42,43
 1440 535 1440 535 1368 348 c 1,23,24
EndSplineSet
EndChar

StartChar: one
Encoding: 49 49 20
Width: 1579
Flags: HMW
HStem: -32 21G<892 899 899 916> 1505 20G<672 725>
LayerCount: 2
Fore
SplineSet
1119 1410 m 1,0,-1
 1117 1116 l 1,1,2
 1117 822 1117 822 1122 610 c 1,3,-1
 1131 -11 l 1,4,5
 1106 -34 1106 -34 1002 -34 c 1,6,-1
 916 -32 l 1,7,-1
 899 -32 l 1,8,-1
 858 -33 l 1,9,-1
 817 -33 l 1,10,-1
 754 -34 l 1,11,12
 653 -34 653 -34 554 -31 c 1,13,-1
 538 -6 l 2,14,15
 528 8 528 8 528 57 c 128,-1,16
 528 106 528 106 536 706 c 2,17,-1
 540 980 l 1,18,19
 376 868 376 868 220 819 c 1,20,21
 213 820 213 820 212 828 c 1,22,-1
 212 934 l 1,23,-1
 211 979 l 1,24,25
 211 1242 211 1242 215 1243.5 c 128,-1,26
 219 1245 219 1245 244.5 1259 c 128,-1,27
 270 1273 270 1273 302.857142857 1286.14285714 c 128,-1,28
 335.714285714 1299.28571429 335.714285714 1299.28571429 342.338313081 1303.96782169 c 128,-1,29
 348.962340448 1308.64992909 348.962340448 1308.64992909 358.355874027 1313.16412332 c 0,30,31
 614.527935034 1436.27119795 614.527935034 1436.27119795 672 1525 c 1,32,-1
 980 1519 l 1,33,34
 1072 1519 1072 1519 1116 1523 c 1,35,36
 1119 1517 1119 1517 1119 1467 c 2,37,-1
 1119 1410 l 1,0,-1
EndSplineSet
EndChar

StartChar: two
Encoding: 50 50 21
Width: 1458
Flags: HMW
HStem: -35 21G<98 98> -15 402<844.5 1376> 1197 367<660 761.5>
LayerCount: 2
Fore
SplineSet
1436 219 m 1,0,-1
 1431 23 l 1,1,-1
 1431 3 l 2,2,3
 1431 -22 1431 -22 1409 -24 c 1,4,-1
 997 -15 l 1,5,6
 567 -15 567 -15 98 -35 c 1,7,-1
 85 -18 l 1,8,9
 68 -6 68 -6 68 71.5 c 128,-1,10
 68 149 68 149 70 239 c 1,11,-1
 70 246 l 1,12,13
 72 328 72 328 72 371 c 0,14,15
 72 387 72 387 231 492 c 2,16,-1
 404 607 l 1,17,18
 584 731 584 731 678 816 c 0,19,20
 842 965 842 965 842 1084 c 0,21,22
 842 1136 842 1136 810.5 1166.5 c 128,-1,23
 779 1197 779 1197 730 1197 c 128,-1,24
 681 1197 681 1197 654.5 1173.5 c 128,-1,25
 628 1150 628 1150 621.5 1121 c 0,26,27
 602.709090909 1037.16363636 602.709090909 1037.16363636 587 1028 c 1,28,29
 556 1027 556 1027 494 1027 c 2,30,-1
 191 1027 l 1,31,-1
 146 1028 l 1,32,-1
 107 1028 l 2,33,34
 73 1028 73 1028 68 1037 c 1,35,36
 76 1158 76 1158 95 1215 c 1,37,38
 121 1310 121 1310 187.5 1380.5 c 128,-1,39
 254 1451 254 1451 346.5 1489.5 c 0,40,41
 525.493506494 1564 525.493506494 1564 748 1564 c 0,42,43
 1098.5046729 1564 1098.5046729 1564 1282.5 1406.5 c 0,44,45
 1419 1289.656 1419 1289.656 1419 1099 c 0,46,47
 1419 856.75 1419 856.75 1200 656 c 0,48,49
 1092 557 1092 557 914 441 c 1,50,-1
 844 378 l 1,51,-1
 1332 387 l 1,52,53
 1393 387 1393 387 1414.5 345 c 128,-1,54
 1436 303 1436 303 1436 219 c 1,0,-1
EndSplineSet
EndChar

StartChar: three
Encoding: 51 51 22
Width: 1454
Flags: HMW
HStem: -60 357<647.5 729.5> 609 290<600 621 621 648.5> 1209 357<704 738.5>
LayerCount: 2
Fore
SplineSet
635.56054047 608.060606061 m 2,0,-1
 557 607 l 2,1,2
 527 607 527 607 515.5 627.5 c 128,-1,3
 504 648 504 648 504 730 c 128,-1,4
 504 812 504 812 510 856 c 128,-1,5
 516 900 516 900 541 900 c 2,6,-1
 579 900 l 1,7,-1
 600 899 l 1,8,-1
 621 899 l 2,9,10
 715 899 715 899 767 939.5 c 128,-1,11
 819 980 819 980 819 1083 c 0,12,13
 819 1138 819 1138 787.5 1173.5 c 128,-1,14
 756 1209 756 1209 696.229166667 1209 c 128,-1,15
 636.458333333 1209 636.458333333 1209 613.5 1180 c 0,16,17
 604 1168 604 1168 599.5 1162.5 c 0,18,19
 589.705882353 1150.52941176 589.705882353 1150.52941176 578 1092 c 1,20,-1
 579 1093 l 1,21,-1
 575 1082 l 1,22,23
 565 1042 565 1042 553 1033 c 1,24,25
 360 1033 360 1033 162 1039 c 1,26,-1
 125 1039 l 1,27,-1
 108 1038 l 1,28,29
 55 1038 55 1038 49 1057 c 1,30,31
 51 1073 51 1073 54.7272727273 1128.90909091 c 128,-1,32
 58.4545454545 1184.81818182 58.4545454545 1184.81818182 74 1228 c 0,33,34
 133 1392 133 1392 254 1469 c 1,35,-1
 254 1468 l 1,36,37
 425.084745763 1566 425.084745763 1566 740.5 1566 c 0,38,39
 856 1566 856 1566 921 1554.5 c 128,-1,40
 986 1543 986 1543 1051.5 1520.5 c 0,41,42
 1184.96632285 1474.65278986 1184.96632285 1474.65278986 1279.48316143 1376.94999044 c 128,-1,43
 1374 1279.24719101 1374 1279.24719101 1374 1133.43609551 c 128,-1,44
 1374 987.625 1374 987.625 1283.64661654 914.21287594 c 128,-1,45
 1193.29323308 840.80075188 1193.29323308 840.80075188 1061 798 c 1,46,47
 1251 739 1251 739 1329.5 655 c 128,-1,48
 1408 571 1408 571 1408 437 c 0,49,50
 1408 110.017857143 1408 110.017857143 1082 -3.5 c 0,51,52
 919.743589744 -60 919.743589744 -60 657 -60 c 0,53,54
 316.6 -60 316.6 -60 133 120 c 1,55,56
 33 207 33 207 24 446 c 0,57,58
 24 459 24 459 35 459 c 2,59,-1
 530 467 l 2,60,61
 545 467 545 467 547 454 c 0,62,63
 568 297 568 297 696 297 c 0,64,65
 762 297 762 297 798.5 335 c 128,-1,66
 835 373 835 373 835 426.5 c 128,-1,67
 835 480 835 480 819.5 513.5 c 0,68,69
 791.988670695 572.959969789 791.988670695 572.959969789 734.323339676 590.510287925 c 128,-1,70
 676.658008658 608.060606061 676.658008658 608.060606061 635.56054047 608.060606061 c 2,0,-1
EndSplineSet
EndChar

StartChar: four
Encoding: 52 52 23
Width: 1433
Flags: HMW
HStem: -34 21G<713 728> 221 338<193 452> 221 398<1380 1432.5 1417 1432.5 1417 1442> 255 304<420 657.5> 1504 20G<1074 1259 1259 1259>
VStem: 781 487<692.5 916.5>
LayerCount: 2
Fore
SplineSet
1399 618 m 1,0,-1
 1421 619 l 2,1,2
 1439 619 1439 619 1446 612 c 128,-1,3
 1453 605 1453 605 1454 583 c 1,4,-1
 1450 579 l 1,5,-1
 1456 327 l 1,6,7
 1456 221 1456 221 1442 221 c 2,8,-1
 1384 221 l 1,9,-1
 1361 220 l 1,10,-1
 1276 220 l 1,11,12
 1279 127 1279 127 1279 13 c 0,13,14
 1279 -28.7777777778 1279 -28.7777777778 1259 -31 c 1,15,16
 1125 -29 1125 -29 1057 -29 c 2,17,-1
 1020 -29 l 2,18,19
 830 -29 830 -29 729 -35 c 1,20,-1
 728 -34 l 1,21,-1
 728 -35 l 1,22,-1
 704 -2 l 1,23,-1
 706 176 l 1,24,-1
 706 212 l 2,25,26
 706 255 706 255 631 255 c 128,-1,27
 556 255 556 255 479 224 c 1,28,-1
 193 221 l 1,29,-1
 73 217 l 1,30,31
 13.6153846154 217 13.6153846154 217 -3 244 c 1,32,33
 -3 467 -3 467 3 605 c 1,34,35
 59 745 59 745 125.5 861.5 c 128,-1,36
 192 978 192 978 299 1140 c 1,37,-1
 299 1139 l 1,38,39
 314 1160 314 1160 325 1182 c 1,40,41
 482 1423 482 1423 531 1503 c 1,42,43
 541 1513 541 1513 591.21463933 1513.02549337 c 128,-1,44
 641.429278659 1513.05098673 641.429278659 1513.05098673 651 1514 c 2,45,-1
 741 1517 l 2,46,47
 940 1524 940 1524 1074 1524 c 2,48,-1
 1259 1524 l 1,49,-1
 1275 1519 l 2,50,51
 1275 1518 1275 1518 1276 1518 c 1,52,-1
 1276 1470 l 1,53,-1
 1269 892 l 1,54,-1
 1270 796 l 1,55,-1
 1270 772 l 1,56,-1
 1268 717 l 1,57,58
 1268 618 1268 618 1334 618 c 2,59,-1
 1399 618 l 1,0,-1
1454 583 m 1,60,-1
 1463 593 l 1,61,-1
 1468 581 l 1,62,-1
 1454 581 l 1,63,-1
 1454 583 l 1,60,-1
1471 575 m 1,64,-1
 1468 581 l 1,65,-1
 1475 581 l 1,66,67
 1475 575 1475 575 1471 575 c 1,64,-1
778 711 m 1,68,-1
 781 845 l 1,69,70
 781 1181 781 1181 712 1186 c 1,71,72
 689 1173 689 1173 678 1157 c 1,73,-1
 627 1066 l 2,74,75
 616 1047 616 1047 589 997.5 c 128,-1,76
 562 948 562 948 547 922 c 2,77,-1
 491 824 l 2,78,79
 433 722 433 722 385 634 c 1,80,-1
 398 607 l 1,81,-1
 398 581 l 1,82,-1
 420 559 l 1,83,-1
 452 559 l 1,84,-1
 732 564 l 1,85,86
 774 583 774 583 779 618 c 1,87,-1
 779 639 l 1,88,-1
 778 661 l 1,89,-1
 778 711 l 1,68,-1
EndSplineSet
EndChar

StartChar: five
Encoding: 53 53 24
Width: 1469
Flags: HMW
HStem: -60 356<677 777 677 895.5> -60 466<570.5 895.5> 697 310<697 1073.5> 1159 371 1520 20G
VStem: 129 480<908 949>
LayerCount: 2
Fore
SplineSet
351 411 m 1,0,-1
 626 406 l 1,1,2
 635.14354067 399.468899522 635.14354067 399.468899522 645.071770335 362.734449761 c 1,3,4
 677.700797932 308.615290173 677.700797932 308.615290173 721 296 c 1,5,6
 845 296 845 296 845 491 c 0,7,8
 845 607.16 845 607.16 815.447368421 652.08 c 128,-1,9
 785.894736842 697 785.894736842 697 716.947368421 697 c 128,-1,10
 648 697 648 697 631 624 c 1,11,-1
 631 623 l 1,12,13
 629 616 629 616 628 604.5 c 128,-1,14
 627 593 627 593 625.183673469 583.918367347 c 128,-1,15
 623.367346939 574.836734694 623.367346939 574.836734694 605 573 c 1,16,17
 534 576 534 576 398 576 c 2,18,-1
 168 576 l 2,19,20
 131 576 131 576 131 673 c 2,21,-1
 131 715 l 1,22,-1
 132 729 l 1,23,-1
 129 949 l 2,24,25
 127 1083 127 1083 127 1147 c 2,26,-1
 127 1339 l 2,27,28
 127 1393 127 1393 129 1422 c 1,29,-1
 129 1458 l 2,30,31
 129 1513 129 1513 147 1540 c 1,32,33
 196 1538 196 1538 283 1538 c 2,34,-1
 1267 1529 l 1,35,-1
 1282 1530 l 1,36,37
 1319 1530 1319 1530 1327 1516 c 1,38,-1
 1327 1258.5 l 2,39,40
 1327 1202 1327 1202 1323.5 1182.5 c 128,-1,41
 1320 1163 1320 1163 1302 1163 c 2,42,-1
 1283 1163 l 2,43,44
 914 1163 914 1163 626 1159 c 1,45,46
 618 1127 618 1127 618 1090 c 128,-1,47
 618 1053 618 1053 617 1044 c 2,48,-1
 610 948 l 2,49,50
 610 944 610 944 609.5 927.5 c 128,-1,51
 609 911 609 911 609 908 c 1,52,53
 758.553191489 1007 758.553191489 1007 924 1007 c 0,54,55
 1145 1007 1145 1007 1278.5 872 c 128,-1,56
 1412 737 1412 737 1412 525 c 0,57,58
 1412 398 1412 398 1372 296 c 0,59,60
 1300.13136111 112.734970824 1300.13136111 112.734970824 1111.5 20 c 0,61,62
 948.772727273 -60 948.772727273 -60 720.23289829 -60 c 128,-1,63
 491.693069307 -60 491.693069307 -60 319 25.5 c 0,64,65
 217 76 217 76 155 155 c 1,66,67
 101 237 101 237 76 396 c 1,68,69
 83 412 83 412 161 412 c 1,70,-1
 184 411 l 1,71,-1
 351 411 l 1,0,-1
632 625 m 2,72,-1
 649 616 l 1,73,-1
 631 623 l 2,74,75
 631 624 631 624 631.5 624 c 128,-1,76
 632 624 632 624 632 625 c 2,72,-1
EndSplineSet
EndChar

StartChar: six
Encoding: 54 54 25
Width: 1457
Flags: HMW
HStem: -54 21G 720 268<698.5 1068.5> 1209 369
VStem: 971 464<431 490>
LayerCount: 2
Fore
SplineSet
779 720 m 1,0,1
 584 720 584 720 584 464 c 0,2,3
 584 321.862745098 584 321.862745098 681 261 c 1,4,-1
 693 276 l 1,5,6
 696 275 696 275 703 275 c 1,7,-1
 699 255 l 1,8,-1
 714 250 l 1,9,-1
 713 251 l 1,10,11
 763 235 763 235 790.5 235 c 128,-1,12
 818 235 818 235 854 250.5 c 0,13,14
 969.153846154 300.080128205 969.153846154 300.080128205 969.153846154 491.095942519 c 0,15,16
 969.153846154 600.051282051 969.153846154 600.051282051 926.076923077 659.025641026 c 128,-1,17
 883 718 883 718 779 720 c 1,0,1
603 841 m 1,18,19
 727.090909091 988 727.090909091 988 934.545454545 988 c 128,-1,20
 1142 988 1142 988 1288.5 852.5 c 128,-1,21
 1435 717 1435 717 1435 512 c 0,22,23
 1435 247.114754098 1435 247.114754098 1224 88 c 0,24,25
 1059.04225352 -36.3943661972 1059.04225352 -36.3943661972 802 -54 c 1,26,27
 610.712871287 -51.7227722772 610.712871287 -51.7227722772 486.356435644 -12.8613861386 c 128,-1,28
 362 26 362 26 309 73 c 1,29,-1
 309 72 l 1,30,31
 141 241 141 241 83 450 c 1,32,33
 53 584 53 584 53 748 c 0,34,35
 53 983 53 983 142.5 1167 c 128,-1,36
 232 1351 232 1351 399.5 1459 c 128,-1,37
 567 1567 567 1567 788 1578 c 1,38,39
 1127.36520737 1569.65495392 1127.36520737 1569.65495392 1272 1379 c 0,40,41
 1348.25188917 1278.4861461 1348.25188917 1278.4861461 1367 1141 c 1,42,43
 1279 1119 1279 1119 882 1119 c 0,44,45
 862 1119 862 1119 861 1115 c 1,46,-1
 859 1175 l 1,47,48
 838 1209 838 1209 782 1209 c 0,49,50
 674.063829787 1209 674.063829787 1209 635 1107 c 0,51,52
 602 1020.83333333 602 1020.83333333 602 917 c 2,53,-1
 602 872.5 l 2,54,55
 602 861 602 861 603 841 c 1,18,19
EndSplineSet
EndChar

StartChar: seven
Encoding: 55 55 26
Width: 1462
Flags: HMW
HStem: -30 21G<488.5 499 499 588> 1109 438<115 125 125 278 87 365>
LayerCount: 2
Fore
SplineSet
76 1421 m 1,0,-1
 72 1485 l 1,1,2
 72 1547 72 1547 99 1547 c 0,3,4
 459 1547 459 1547 1163 1533 c 2,5,-1
 1370 1529 l 2,6,7
 1394 1528 1394 1528 1394 1383 c 2,8,-1
 1394 1336 l 2,9,10
 1394 1107.53658537 1394 1107.53658537 1347.88817568 1011.93890079 c 128,-1,11
 1301.77635135 916.341216216 1301.77635135 916.341216216 1242.88817568 816.170608108 c 0,12,13
 1050.71030896 489.270113184 1050.71030896 489.270113184 804 -17 c 1,14,15
 799 -32 799 -32 777 -32 c 2,16,-1
 687 -31 l 1,17,-1
 638 -31 l 1,18,-1
 588 -30 l 1,19,-1
 499 -30 l 1,20,-1
 434 -31 l 1,21,22
 193 -31 193 -31 193 -11 c 0,23,24
 193 1.14285714286 193 1.14285714286 204 21.5714285714 c 128,-1,25
 215 42 215 42 219 52 c 2,26,-1
 641 894 l 2,27,28
 732 1074 732 1074 754 1113 c 1,29,-1
 684 1113 l 2,30,31
 587 1113 587 1113 365 1109 c 1,32,-1
 125 1109 l 2,33,34
 109 1109 109 1109 100 1114.5 c 128,-1,35
 91 1120 91 1120 76 1141 c 1,36,-1
 76 1421 l 1,0,-1
EndSplineSet
EndChar

StartChar: eight
Encoding: 56 56 27
Width: 1451
Flags: HMW
HStem: -59 301<676 756> 646 235<676 794.5 670.5 795.5> 1262 306<672.5 791.5>
VStem: 84 489<1023.5 1108.5 1023.5 1269.5> 894 492<1025.5 1128.5>
LayerCount: 2
Fore
SplineSet
1386 1088 m 0,0,1
 1386 862.1 1386 862.1 1140 776 c 1,2,3
 1303.72413793 694.137931034 1303.72413793 694.137931034 1345 642 c 0,4,5
 1431 534 1431 534 1431 393 c 0,6,7
 1431 183.703296703 1431 183.703296703 1260 62.5 c 0,8,9
 1169 -2 1169 -2 1051 -30.5 c 128,-1,10
 933 -59 933 -59 743.5 -59 c 128,-1,11
 554 -59 554 -59 439 -33 c 0,12,13
 231.932200451 13.8153285937 231.932200451 13.8153285937 135 137 c 0,14,15
 55.9258883249 237.49001692 55.9258883249 237.49001692 37 391 c 1,16,17
 60 641 60 641 307 764 c 1,18,19
 84 867 84 867 84 1091 c 0,20,21
 84 1194 84 1194 123.5 1277 c 0,22,23
 195.049312282 1427.34412454 195.049312282 1427.34412454 363.440149099 1497.67206227 c 128,-1,24
 531.830985915 1568 531.830985915 1568 723 1568 c 0,25,26
 1058.74074074 1568 1058.74074074 1568 1246 1410 c 0,27,28
 1386 1291.875 1386 1291.875 1386 1088 c 0,0,1
916 429 m 0,29,30
 916 646 916 646 732 646 c 0,31,32
 650 646 650 646 598 585 c 128,-1,33
 546 524 546 524 546 436 c 1,34,35
 556 347 556 347 603.5 294.5 c 128,-1,36
 651 242 651 242 735 242 c 128,-1,37
 819 242 819 242 867.5 293.5 c 128,-1,38
 916 345 916 345 916 429 c 0,29,30
728 1262 m 0,39,40
 653 1262 653 1262 613 1200.5 c 128,-1,41
 573 1139 573 1139 573 1071 c 0,42,43
 573 881 573 881 736 881 c 0,44,45
 817 881 817 881 855.5 936.5 c 128,-1,46
 894 992 894 992 894 1074 c 0,47,48
 894 1262 894 1262 728 1262 c 0,39,40
EndSplineSet
EndChar

StartChar: nine
Encoding: 57 57 28
Width: 1456
Flags: HMW
HStem: -69 367<683 721.5> -69 472<603 603 603 721.5> 544 243<471.5 782> 1261 299<630.5 784>
VStem: 50 455
LayerCount: 2
Fore
SplineSet
113 378 m 1,0,1
 128.666666667 398.888888889 128.666666667 398.888888889 142 410 c 1,2,-1
 603 403 l 1,3,4
 610.692307692 399.923076923 610.692307692 399.923076923 622.346153846 364.461538462 c 128,-1,5
 634 329 634 329 653 313.5 c 128,-1,6
 672 298 672 298 708 298 c 128,-1,7
 744 298 744 298 768.5 307.5 c 128,-1,8
 793 317 793 317 809 331.5 c 128,-1,9
 825 346 825 346 838 370 c 0,10,11
 872.166197183 433.076056338 872.166197183 433.076056338 881 570 c 1,12,-1
 881 591 l 2,13,14
 881 596 881 596 881.5 611.5 c 128,-1,15
 882 627 882 627 882 628 c 1,16,17
 761 550 761 550 601 544 c 1,18,19
 436.2 544 436.2 544 293.420766378 620.488875155 c 128,-1,20
 150.641532756 696.977750309 150.641532756 696.977750309 88 837 c 0,21,22
 54 913 54 913 50 1002 c 1,23,24
 73.0431230141 1313.08216069 73.0431230141 1313.08216069 363 1470 c 0,25,26
 529.304347826 1560 529.304347826 1560 726 1560 c 0,27,28
 1082 1560 1082 1560 1252 1360 c 1,29,-1
 1252 1361 l 1,30,31
 1349 1239 1349 1239 1389.5 1101.5 c 128,-1,32
 1430 964 1430 964 1430 792 c 0,33,34
 1430 420 1430 420 1274 191 c 0,35,36
 1097 -69 1097 -69 621 -69 c 0,37,38
 402 -69 402 -69 257 49 c 1,39,40
 123 148 123 148 113 378 c 1,0,1
505 1005 m 1,41,42
 518 787 518 787 705 787 c 128,-1,43
 892 787 892 787 892 1024 c 128,-1,44
 892 1261 892 1261 707 1261 c 0,45,46
 582.294117647 1261 582.294117647 1261 532 1147 c 0,47,48
 505 1085.8 505 1085.8 505 1005 c 1,41,42
EndSplineSet
EndChar

StartChar: colon
Encoding: 58 58 29
Width: 771
Flags: HMW
HStem: -35 453<311 541> -34 21G<208.5 221 221 260> 626 453<152 538.5>
LayerCount: 2
Fore
SplineSet
333 419 m 1,0,-1
 389 418 l 1,1,-1
 541 418 l 2,2,3
 630 418 630 418 645 406 c 1,4,-1
 645 218 l 1,5,-1
 647 124 l 1,6,-1
 647 52 l 2,7,8
 647 9 647 9 648 -12 c 1,9,10
 627 -35 627 -35 323 -35 c 1,11,-1
 260 -34 l 1,12,-1
 221 -34 l 2,13,14
 172 -34 172 -34 147 -35 c 1,15,16
 124 -4.33333333333 124 -4.33333333333 124 2 c 2,17,-1
 124 35 l 2,18,19
 124 212 124 212 135 408 c 0,20,21
 135 419 135 419 333 419 c 1,0,-1
648 974 m 2,22,-1
 647 939 l 1,23,-1
 647 931 l 1,24,-1
 652 795 l 1,25,-1
 645 748 l 1,26,27
 654 711 654 711 654 676 c 128,-1,28
 654 641 654 641 642 641 c 0,29,30
 367 626 367 626 152 626 c 1,31,-1
 129 662 l 1,32,33
 128 682 128 682 128 717 c 2,34,-1
 128 737 l 1,35,-1
 130 807 l 1,36,-1
 130 867 l 2,37,38
 130 1062 130 1062 145 1078 c 1,39,40
 183 1077 183 1077 255 1077 c 2,41,-1
 327 1078 l 1,42,-1
 396 1078 l 1,43,-1
 511 1079 l 1,44,45
 646 1079 646 1079 646 1068 c 0,46,47
 648 1006 648 1006 648 974 c 2,22,-1
EndSplineSet
EndChar

StartChar: semicolon
Encoding: 59 59 30
Width: 733
Flags: HMW
HStem: -219 21G<208.5 290> 595 466<173 513.5>
LayerCount: 2
Fore
SplineSet
288 437 m 1,0,-1
 538 440 l 1,1,2
 670 440 670 440 670 429 c 2,3,-1
 670 417 l 1,4,5
 634 316 634 316 574 132 c 1,6,-1
 527 -15 l 1,7,-1
 513 -64 l 1,8,-1
 491 -118 l 1,9,10
 486 -133 486 -133 473.629232164 -161.00015115 c 128,-1,11
 461.258464328 -189.000302299 461.258464328 -189.000302299 456 -203 c 1,12,13
 446 -219 446 -219 236 -219 c 1,14,-1
 77 -217 l 1,15,-1
 27 -217 l 1,16,17
 8.76923076923 -198.769230769 8.76923076923 -198.769230769 10 -196 c 2,18,-1
 16 -164 l 2,19,20
 34 -71 34 -71 42 -41 c 1,21,22
 42 -14 42 -14 91 212 c 128,-1,23
 140 438 140 438 165 438 c 2,24,-1
 195 438 l 1,25,-1
 226 437 l 1,26,-1
 288 437 l 1,0,-1
352 1060 m 1,27,-1
 472 1061 l 1,28,29
 666 1061 666 1061 666 1058 c 0,30,31
 673 811 673 811 673 649 c 2,32,-1
 673 615 l 1,33,-1
 669 616 l 1,34,35
 661 608 661 608 499 608 c 1,36,-1
 173 595 l 1,37,38
 154 621 154 621 149.5 634 c 128,-1,39
 145 647 145 647 145 671 c 2,40,-1
 145 684 l 1,41,42
 146 688 146 688 146 689 c 2,43,-1
 149 781 l 2,44,45
 150 793 150 793 152.748407643 919.426751592 c 0,46,47
 155.496815287 1045.85350318 155.496815287 1045.85350318 167 1059 c 1,48,-1
 204 1059 l 1,49,-1
 278 1060 l 1,50,-1
 352 1060 l 1,27,-1
EndSplineSet
EndChar

StartChar: less
Encoding: 60 60 31
Width: 1271
Flags: HMW
HStem: -36 21G<1169 1169> 1071 20G<1175 1175 1176 1180 1180 1186.5>
LayerCount: 2
Fore
SplineSet
90 577 m 1,0,-1
 89 594 l 1,1,2
 89 656 89 656 119 693 c 1,3,-1
 1042 1041 l 1,4,5
 1112 1070 1112 1070 1176 1091 c 1,6,-1
 1180 1091 l 2,7,8
 1195 1091 1195 1091 1195 1022 c 2,9,-1
 1195 1010 l 2,10,11
 1195 830 1195 830 1182 807 c 1,12,13
 916 706 916 706 464 524 c 1,14,15
 606 469 606 469 888.5 361.5 c 128,-1,16
 1171 254 1171 254 1179.5 247 c 0,17,18
 1199 230.941176471 1199 230.941176471 1199 143.470588235 c 128,-1,19
 1199 56 1199 56 1191 -10 c 1,20,-1
 1191 -12 l 2,21,22
 1191 -38 1191 -38 1180 -38 c 0,23,24
 1179 -38 1179 -38 1169 -36 c 1,25,-1
 211 341 l 2,26,27
 208 342 208 342 199.911083224 345.384940554 c 128,-1,28
 191.822166449 348.769881108 191.822166449 348.769881108 177.911083224 352.884940554 c 0,29,30
 148.741148704 361.513744843 148.741148704 361.513744843 118.870574352 382.332629997 c 128,-1,31
 89 403.151515152 89 403.151515152 89 452 c 2,32,-1
 89 510 l 1,33,-1
 90 531 l 1,34,-1
 90 577 l 1,0,-1
1175 1091 m 1,35,-1
 1175 1112 l 1,36,-1
 1182 1113 l 1,37,-1
 1185 1094 l 1,38,-1
 1175 1091 l 1,35,-1
EndSplineSet
EndChar

StartChar: equal
Encoding: 61 61 32
Width: 1273
Flags: HMW
HStem: 105 298 105 326<118 118> 623 306 652 277<898 1178> 913 20G<107 209 209 369.5>
LayerCount: 2
Fore
SplineSet
1187 173 m 1,0,-1
 1188 160 l 1,1,2
 1188 124 1188 124 1175 124 c 2,3,-1
 890 120 l 1,4,-1
 118 105 l 1,5,-1
 97 131 l 1,6,7
 94 179 94 179 94 214 c 128,-1,8
 94 249 94 249 95 261 c 1,9,-1
 95 280 l 1,10,11
 96 300 l 1,12,-1
 96 325 l 1,13,-1
 95 340 l 1,14,-1
 95 355 l 2,15,16
 95 404 95 404 107 431 c 1,17,-1
 109 430 l 1,18,19
 110 431 110 431 111 431 c 2,20,-1
 133 431 l 1,21,22
 578 403 578 403 891 403 c 1,23,-1
 929 404 l 2,24,25
 1163 410 1163 410 1178 411 c 1,26,27
 1187 395 1187 395 1187 276 c 2,28,-1
 1187 173 l 1,0,-1
209 933 m 1,29,-1
 1178 929 l 1,30,31
 1185 913 1185 913 1185 786 c 2,32,-1
 1185 661 l 1,33,34
 1184 661 1184 661 1184 662 c 2,35,-1
 898 652 l 1,36,37
 767 646 767 646 508 637.5 c 128,-1,38
 249 629 249 629 118 623 c 1,39,-1
 97 650 l 1,40,-1
 97 656 l 1,41,42
 95 694 95 694 95 713 c 2,43,-1
 95 797 l 1,44,-1
 96 825 l 1,45,-1
 96 849 l 1,46,-1
 95 863 l 1,47,-1
 95 875 l 2,48,49
 95 933 95 933 107 933 c 2,50,-1
 209 933 l 1,29,-1
1195 650 m 1,51,-1
 1185 639 l 1,52,-1
 1185 661 l 1,53,-1
 1195 650 l 1,51,-1
EndSplineSet
EndChar

StartChar: greater
Encoding: 62 62 33
Width: 1269
Flags: HMW
HStem: -42 21G<120 120> 1063 20G<103.5 104>
LayerCount: 2
Fore
SplineSet
103 843 m 1,0,-1
 104 853 l 1,1,-1
 104 883 l 2,2,3
 104 1058 104 1058 101 1083 c 1,4,5
 113.269794721 1073.79765396 113.269794721 1073.79765396 524 920 c 1,6,-1
 635 878 l 2,7,8
 888 783 888 783 1064 713 c 1,9,-1
 1186 663 l 1,10,11
 1198 637 1198 637 1198 521.5 c 128,-1,12
 1198 406 1198 406 1196 404 c 2,13,-1
 1185 394 l 1,14,-1
 1182 391 l 1,15,-1
 1185 391 l 1,16,17
 719 206 719 206 494 108 c 1,18,-1
 357 51 l 2,19,20
 191 -17 191 -17 120 -42 c 1,21,-1
 89 -8 l 1,22,23
 89 121 89 121 99 240 c 1,24,25
 114 274 114 274 530 428 c 1,26,-1
 562 441 l 1,27,28
 715 496 715 496 801 532 c 1,29,30
 724 563 724 563 511.281536974 653.423876269 c 128,-1,31
 298.563073949 743.847752537 298.563073949 743.847752537 107 812 c 1,32,33
 103 820 103 820 103 843 c 1,0,-1
104 1083 m 1,34,-1
 102 1082 l 2,35,36
 100 1082 100 1082 98 1085 c 1,37,-1
 104 1083 l 1,34,-1
EndSplineSet
EndChar

StartChar: question
Encoding: 63 63 34
Width: 1121
Flags: HMW
HStem: -35 21G -30 364 1140 430<356 552.5>
LayerCount: 2
Fore
SplineSet
721 493 m 1,0,1
 700.2 485 700.2 485 689 485 c 2,2,-1
 569 483 l 1,3,4
 436 483 436 483 202 475 c 1,5,6
 191 481 191 481 191 539.5 c 128,-1,7
 191 598 191 598 203 639.5 c 128,-1,8
 215 681 215 681 247.5 725 c 128,-1,9
 280 769 280 769 318 804.5 c 128,-1,10
 356 840 356 840 393.5 876.5 c 0,11,12
 481.134264232 961.797350519 481.134264232 961.797350519 498 1048 c 1,13,14
 491 1103 491 1103 454.5 1122 c 128,-1,15
 418 1141 418 1141 361 1141 c 1,16,-1
 356 1140 l 1,17,18
 232 1136 232 1136 85 1080 c 1,19,-1
 52 1107 l 1,20,-1
 52 1123 l 1,21,22
 54 1361 54 1361 54 1480 c 0,23,24
 54 1549 54 1549 435 1568 c 2,25,-1
 474 1570 l 1,26,27
 713 1570 713 1570 872 1497 c 1,28,-1
 917 1474 l 1,29,-1
 916 1475 l 1,30,31
 1000.19207946 1421.39735982 1000.19207946 1421.39735982 1043 1354 c 1,32,-1
 1055 1329 l 1,33,34
 1090 1246 1090 1246 1094 1201 c 1,35,-1
 1094 1196 l 1,36,37
 1098 1165 1098 1165 1105 1141 c 1,38,39
 1099 1015 1099 1015 1045 936 c 1,40,41
 983.582914573 860.934673367 983.582914573 860.934673367 872.185946955 784.858695481 c 0,42,43
 760.788979336 708.782717595 760.788979336 708.782717595 734.394489668 667.391358798 c 128,-1,44
 708 626 708 626 706 586 c 1,45,46
 715 549 715 549 715 493 c 1,47,-1
 721 493 l 1,0,1
709 78 m 1,48,-1
 710 46 l 1,49,-1
 710 -14 l 1,50,51
 675 -18 675 -18 605.5 -18 c 128,-1,52
 536 -18 536 -18 511 -20 c 2,53,-1
 457 -23 l 1,54,55
 417 -27 417 -27 354 -30 c 2,56,-1
 279 -33 l 2,57,58
 231 -35 231 -35 208 -35 c 1,59,60
 186 -3.57142857143 186 -3.57142857143 186 7.71428571429 c 2,61,-1
 186 98 l 1,62,-1
 187 117 l 1,63,-1
 187 200 l 1,64,-1
 186 221 l 1,65,66
 186 317 186 317 204 342 c 1,67,-1
 290 339 l 2,68,69
 368 336 368 336 502 333 c 128,-1,70
 636 330 636 330 671 322 c 128,-1,71
 706 314 706 314 707 276 c 2,72,-1
 709 78 l 1,48,-1
709 -36 m 1,73,-1
 709 -15 l 1,74,-1
 711 -15 l 1,75,-1
 709 -15 l 1,76,-1
 710 -14 l 1,77,-1
 712 -14 l 1,78,-1
 711 -15 l 1,79,-1
 724 -13 l 1,80,81
 724 -21 724 -21 719 -28.5 c 128,-1,82
 714 -36 714 -36 709 -36 c 1,73,-1
EndSplineSet
EndChar

StartChar: at
Encoding: 64 64 35
Width: 1671
Flags: HMW
HStem: -12 130<719.5 887.5> 349 138<777 816> 950 147<799 889 721.5 905.5> 1394 128<721.5 1045>
VStem: 79 156<535 940 535 978.5> 445 175<647 682 682 703 634 783> 1058 118<544 783> 1486 132<772 1042>
LayerCount: 2
Fore
SplineSet
1286 445 m 1,0,1
 1486 528.636363636 1486 528.636363636 1486 861.5 c 0,2,3
 1486 952 1486 952 1453 1050.5 c 0,4,5
 1392.19818813 1231.98419603 1392.19818813 1231.98419603 1240.91837117 1312.99209802 c 128,-1,6
 1089.63855422 1394 1089.63855422 1394 892 1394 c 0,7,8
 626.133333333 1394 626.133333333 1394 436 1223.5 c 0,9,10
 344 1141 344 1141 289.5 1010 c 128,-1,11
 235 879 235 879 235 731.5 c 0,12,13
 235 448.631868132 235 448.631868132 431.650326797 283.315934066 c 128,-1,14
 628.300653595 118 628.300653595 118 889 118 c 0,15,16
 1026 118 1026 118 1125 146 c 1,17,18
 1128 136 1128 136 1130.5 125 c 128,-1,19
 1133 114 1133 114 1136 106 c 2,20,-1
 1159 35 l 1,21,22
 1021 -12 1021 -12 850.5 -12 c 128,-1,23
 680 -12 680 -12 543 45 c 128,-1,24
 406 102 406 102 304 199.5 c 128,-1,25
 202 297 202 297 140.5 436 c 128,-1,26
 79 575 79 575 79 743 c 128,-1,27
 79 911 79 911 146.5 1062.5 c 128,-1,28
 214 1214 214 1214 325.5 1313 c 128,-1,29
 437 1412 437 1412 579 1467 c 128,-1,30
 721 1522 721 1522 869 1522 c 128,-1,31
 1017 1522 1017 1522 1150.5 1480.5 c 128,-1,32
 1284 1439 1284 1439 1388.5 1364 c 128,-1,33
 1493 1289 1493 1289 1555.5 1173 c 128,-1,34
 1618 1057 1618 1057 1618 917 c 128,-1,35
 1618 777 1618 777 1563 642.5 c 128,-1,36
 1508 508 1508 508 1422 423.5 c 128,-1,37
 1336 339 1336 339 1245 329 c 1,38,39
 1129 337 1129 337 1068 499 c 1,40,-1
 1035 499 l 1,41,42
 976 425 976 425 910 387 c 128,-1,43
 844 349 844 349 733.5 349 c 128,-1,44
 623 349 623 349 534 436.5 c 128,-1,45
 445 524 445 524 445 647 c 2,46,-1
 445 682 l 2,47,48
 445 839.92 445 839.92 551 965 c 0,49,50
 662.86440678 1097 662.86440678 1097 866.5 1097 c 0,51,52
 976 1097 976 1097 1055 1021 c 1,53,-1
 1127 914 l 1,54,-1
 1137 950 l 2,55,56
 1141 965 1141 965 1155 1014.5 c 128,-1,57
 1169 1064 1169 1064 1175 1088 c 1,58,-1
 1259 1085 l 1,59,-1
 1191 703 l 1,60,61
 1176 646 1176 646 1176 582 c 128,-1,62
 1176 518 1176 518 1199.5 481.5 c 128,-1,63
 1223 445 1223 445 1286 445 c 1,0,1
1058 758 m 0,64,65
 1058 829 1058 829 1012 889.5 c 128,-1,66
 966 950 966 950 866.5 950 c 128,-1,67
 767 950 767 950 701 878.5 c 128,-1,68
 635 807 635 807 620 703 c 1,69,70
 620 604 620 604 665 546.5 c 128,-1,71
 710 489 710 489 777 487 c 1,72,73
 902 487 902 487 980 568.5 c 128,-1,74
 1058 650 1058 650 1058 758 c 0,64,65
EndSplineSet
EndChar

StartChar: A
Encoding: 65 65 36
Width: 1639
Flags: HMW
HStem: -35 21G<-23 47 -23 -23> -34 21G<69.5 75 75 105> 213 321<740 1030> 1492 20G<914.5 973 1133.5 1163>
LayerCount: 2
Fore
SplineSet
1697 -11 m 1,0,1
 1695.55555556 -24 1695.55555556 -24 1642.5 -24 c 2,2,-1
 1550 -24 l 1,3,-1
 1488 -25 l 1,4,-1
 1427 -25 l 1,5,-1
 1330 -26 l 1,6,7
 1184.52703643 -25.9276616667 1184.52703643 -25.9276616667 1089 -19 c 0,8,9
 1086 -18 1086 -18 1082 -7 c 1,10,-1
 1077 14 l 1,11,12
 1067.88250653 116.571801567 1067.88250653 116.571801567 1030 213 c 1,13,-1
 602 209 l 1,14,15
 598 192 598 192 576 108 c 128,-1,16
 554 24 554 24 543 -19 c 1,17,18
 533 -29 533 -29 448 -29 c 1,19,-1
 423 -28 l 1,20,-1
 365 -28 l 1,21,-1
 105 -34 l 1,22,-1
 75 -34 l 1,23,-1
 47 -35 l 1,24,-1
 -23 -35 l 1,25,26
 -30.5 -27.5 -30.5 -27.5 -38 -17 c 1,27,28
 62.3846153846 329.153846154 62.3846153846 329.153846154 233 841 c 1,29,-1
 256 912 l 1,30,-1
 255 912 l 1,31,-1
 282 995 l 2,32,33
 295 1035 295 1035 356.5 1217 c 128,-1,34
 418 1399 418 1399 433.5 1452 c 128,-1,35
 449 1505 449 1505 452 1507 c 1,36,-1
 618 1507 l 1,37,-1
 973 1512 l 1,38,-1
 1069 1507 l 1,39,-1
 1148 1512 l 1,40,41
 1208 1512 1208 1512 1208 1488 c 1,42,43
 1308 1209 1308 1209 1475 685 c 128,-1,44
 1642 161 1642 161 1663 96 c 1,45,-1
 1677 46 l 2,46,47
 1684 19 1684 19 1697 -11 c 1,0,1
707 535 m 1,48,-1
 748 534 l 1,49,-1
 987 535 l 1,50,51
 972 654 972 654 964 710 c 1,52,-1
 926 881 l 1,53,54
 865.920318725 1146.17928287 865.920318725 1146.17928287 863.960159363 1151.08964143 c 128,-1,55
 862 1156 862 1156 860.5 1160.5 c 128,-1,56
 859 1165 859 1165 858 1166.5 c 128,-1,57
 857 1168 857 1168 855.5 1172 c 128,-1,58
 854 1176 854 1176 852.5 1177.5 c 128,-1,59
 851 1179 851 1179 849 1182.5 c 0,60,61
 842.407407407 1194.03703704 842.407407407 1194.03703704 820 1203 c 1,62,63
 793 1197 793 1197 659 601 c 1,64,-1
 648 535 l 1,65,-1
 707 535 l 1,48,-1
EndSplineSet
EndChar

StartChar: B
Encoding: 66 66 37
Width: 1571
Flags: HMW
HStem: -33 21G -24 303<557 731> 1493 20G<504 970 970 1037.5>
LayerCount: 2
Fore
SplineSet
109 1116 m 1,0,-1
 108 1136 l 1,1,-1
 108 1198 l 2,2,3
 108 1327 108 1327 113 1494 c 1,4,-1
 111 1496 l 1,5,-1
 165 1499 l 2,6,7
 426 1513 426 1513 504 1513 c 2,8,-1
 970 1513 l 2,9,10
 1209 1513 1209 1513 1367 1414 c 1,11,12
 1423 1366 1423 1366 1458 1285 c 128,-1,13
 1493 1204 1493 1204 1493 1102.5 c 0,14,15
 1493 905 1493 905 1229 767 c 1,16,17
 1378 726 1378 726 1457.5 635.5 c 128,-1,18
 1537 545 1537 545 1537 414 c 0,19,20
 1537 182 1537 182 1329 62 c 1,21,22
 1176 -28 1176 -28 942 -28 c 1,23,-1
 644 -24 l 1,24,25
 451 -24 451 -24 132 -33 c 1,26,27
 104 25.8 104 25.8 104 433.9 c 128,-1,28
 104 842 104 842 109 1116 c 1,0,-1
731 279 m 2,29,30
 990 279 990 279 990 459.5 c 0,31,32
 990 574.653061224 990 574.653061224 919.5 613.5 c 0,33,34
 857.002453988 647.937423313 857.002453988 647.937423313 727 652 c 1,35,-1
 698 652 l 1,36,-1
 680 596 l 1,37,38
 673 493 673 493 673 393.5 c 128,-1,39
 673 294 673 294 694 279 c 1,40,-1
 731 279 l 2,29,30
946.5 947.5 m 0,41,42
 966 986 966 986 966 1039.5 c 0,43,44
 966 1144.88 966 1144.88 890.875 1180.94 c 128,-1,45
 815.75 1217 815.75 1217 733.875 1217 c 128,-1,46
 652 1217 652 1217 652 1157 c 0,47,48
 652 1050 652 1050 657 938 c 2,49,-1
 659 885 l 2,50,51
 661 847 661 847 703 840 c 1,52,-1
 752 846 l 2,53,54
 904.272458045 864.127673577 904.272458045 864.127673577 946.5 947.5 c 0,41,42
EndSplineSet
EndChar

StartChar: C
Encoding: 67 67 38
Width: 1556
Flags: HMW
HStem: -65 411<826 872 826 978.5> 1143 395<764.5 928>
LayerCount: 2
Fore
SplineSet
49 797 m 1,0,1
 72.9891598916 1024.89701897 72.9891598916 1024.89701897 128.994579946 1140.44850949 c 0,2,3
 236.465010099 1362.18362688 236.465010099 1362.18362688 448 1455 c 0,4,5
 637.162790698 1538 637.162790698 1538 859 1538 c 0,6,7
 1231.04724409 1538 1231.04724409 1538 1402.5 1334.5 c 0,8,9
 1504.60857143 1213.30571429 1504.60857143 1213.30571429 1521 1033 c 2,10,-1
 1530 939 l 1,11,12
 1513 923 1513 923 1315 923 c 1,13,-1
 1156 925 l 1,14,-1
 1143 925 l 1,15,-1
 1056 927 l 1,16,-1
 1032 926 l 1,17,-1
 1012 926 l 2,18,19
 983.857142857 926 983.857142857 926 969.570755986 1007.8220339 c 128,-1,20
 955.284369115 1089.6440678 955.284369115 1089.6440678 925.642184557 1116.3220339 c 128,-1,21
 896 1143 896 1143 857 1143 c 128,-1,22
 818 1143 818 1143 788.5 1129 c 128,-1,23
 759 1115 759 1115 740 1095.5 c 128,-1,24
 721 1076 721 1076 707.5 1040 c 0,25,26
 684.081896552 977.551724138 684.081896552 977.551724138 679.040948276 908.418719212 c 128,-1,27
 674 839.285714286 674 839.285714286 674 753 c 2,28,-1
 674 729 l 1,29,-1
 670 628 l 1,30,31
 670 352 670 352 826 346 c 1,32,33
 865.65 346 865.65 346 882.325 360.5 c 0,34,35
 924.928227716 397.54628497 924.928227716 397.54628497 957.354707172 513.281834221 c 0,36,37
 964 537 964 537 974 552 c 1,38,-1
 1012 552 l 1,39,-1
 1058 551 l 1,40,-1
 1220 551 l 1,41,-1
 1269 552 l 1,42,-1
 1364 551 l 1,43,-1
 1422 551 l 1,44,-1
 1481 550 l 1,45,-1
 1521 550 l 1,46,47
 1533 549 1533 549 1538 529 c 1,48,-1
 1535 496 l 1,49,50
 1526 378 1526 378 1479.5 281.5 c 0,51,52
 1394.7102566 105.538489496 1394.7102566 105.538489496 1212.27373295 20.2692447481 c 128,-1,53
 1029.8372093 -65 1029.8372093 -65 812 -65 c 0,54,55
 431.45 -65 431.45 -65 240.225 159.970588235 c 128,-1,56
 49 384.941176471 49 384.941176471 49 797 c 1,0,1
EndSplineSet
EndChar

StartChar: D
Encoding: 68 68 39
Width: 1648
Flags: HMW
HStem: -33 21G 1495 20G<669.5 805>
LayerCount: 2
Fore
SplineSet
514 1512 m 1,0,-1
 701 1515 l 1,1,2
 1190 1515 1190 1515 1388 1353 c 1,3,4
 1429.93548387 1321.5483871 1429.93548387 1321.5483871 1479.96774194 1248.77419355 c 0,5,6
 1625 1037.81818182 1625 1037.81818182 1625 783.471153846 c 0,7,8
 1625 327.60106383 1625 327.60106383 1312 109.5 c 0,9,10
 1124.82581412 -20.9245656913 1124.82581412 -20.9245656913 882 -23 c 1,11,-1
 878 -27 l 1,12,-1
 853 -27 l 1,13,-1
 587 -24 l 1,14,15
 406 -24 406 -24 134 -33 c 1,16,17
 115 3 115 3 115 52 c 1,18,-1
 116 88 l 1,19,-1
 116 244 l 1,20,-1
 118 466 l 1,21,-1
 118 832 l 1,22,23
 116 958 116 958 116 1020 c 2,24,-1
 116 1184 l 1,25,-1
 117 1207 l 1,26,-1
 117 1493 l 2,27,28
 117 1501 117 1501 226 1506.5 c 128,-1,29
 335 1512 335 1512 400 1512 c 2,30,-1
 514 1512 l 1,0,-1
938.5 1166.5 m 0,31,32
 881.225174825 1207.17342657 881.225174825 1207.17342657 812 1211.5 c 0,33,34
 788 1213 788 1213 746.5 1214 c 128,-1,35
 705 1215 705 1215 686 1216 c 1,36,37
 668 1189 668 1189 662 1176 c 2,38,-1
 644 1139 l 1,39,-1
 644 1083 l 2,40,41
 644 910 644 910 652 614 c 1,42,-1
 658 325 l 1,43,44
 664 294 664 294 698 288 c 1,45,46
 801 290 801 290 857 302 c 1,47,48
 1054 372 1054 372 1054 781 c 0,49,50
 1054 1084.47826087 1054 1084.47826087 938.5 1166.5 c 0,31,32
EndSplineSet
EndChar

StartChar: E
Encoding: 69 69 40
Width: 1306
Flags: HMW
HStem: -32 21G -15 385<876 1242.5> 595 328 1149 363
LayerCount: 2
Fore
SplineSet
114 1238 m 1,0,-1
 109 1501 l 2,1,2
 110 1501 110 1501 116 1498 c 1,3,4
 876 1511 876 1511 1261 1512 c 1,5,6
 1265 1510 1265 1510 1267 1506 c 1,7,-1
 1267 1224 l 2,8,9
 1267 1183 1267 1183 1265 1157 c 1,10,11
 1260 1141 1260 1141 1206 1141 c 2,12,-1
 1199 1141 l 2,13,14
 957 1141 957 1141 695 1149 c 1,15,16
 695 1140 695 1140 692.5 1117 c 128,-1,17
 690 1094 690 1094 689 1084 c 2,18,-1
 684 1046 l 2,19,20
 679 1008 679 1008 677 914 c 1,21,-1
 987 921 l 2,22,23
 1067 923 1067 923 1103 923 c 2,24,-1
 1119 923 l 2,25,26
 1180 923 1180 923 1199 919.5 c 128,-1,27
 1218 916 1218 916 1218 899 c 1,28,-1
 1217 891 l 1,29,-1
 1217 867 l 1,30,-1
 1222 610 l 1,31,-1
 1221 609 l 1,32,-1
 1221 610 l 1,33,34
 917 595 917 595 735 595 c 2,35,-1
 688 595 l 1,36,-1
 688 353 l 1,37,-1
 1231 370 l 1,38,39
 1276 370 1276 370 1288 357 c 1,40,41
 1287 331 1287 331 1287 283 c 1,42,-1
 1294 11 l 2,43,44
 1294 -14 1294 -14 1272 -18 c 1,45,-1
 940 -15 l 2,46,47
 842 -15 842 -15 550 -22 c 2,48,-1
 386 -26 l 1,49,50
 212 -32 212 -32 128 -32 c 1,51,-1
 125 -30 l 1,52,-1
 126 -30 l 1,53,54
 116.5 -20.5 116.5 -20.5 107 -11 c 1,55,-1
 107 24 l 1,56,-1
 113 1093 l 1,57,-1
 114 1238 l 1,0,-1
EndSplineSet
EndChar

StartChar: F
Encoding: 70 70 41
Width: 1265
Flags: HMW
HStem: -33 21G<132 226.5> 530 421 1116 394 1494 20G<752 889>
LayerCount: 2
Fore
SplineSet
1270 1463 m 2,0,-1
 1269 1370 l 1,1,2
 1269 1233 1269 1233 1265 1126 c 1,3,4
 1148 1116 1148 1116 945 1116 c 2,5,-1
 714 1115 l 1,6,-1
 714 1086 l 1,7,-1
 712 998 l 2,8,9
 712 963 712 963 715 930 c 1,10,11
 965 951 965 951 1085.5 951 c 128,-1,12
 1206 951 1206 951 1233 933 c 1,13,-1
 1233 598 l 2,14,15
 1233 565 1233 565 1220 554 c 128,-1,16
 1207 543 1207 543 1180 543 c 2,17,-1
 1167 543 l 1,18,-1
 1113 545 l 1,19,20
 934 535 934 535 716 530 c 1,21,-1
 723 132 l 1,22,-1
 722 98 l 1,23,-1
 722 4 l 2,24,25
 722 -26.3636363636 722 -26.3636363636 704 -28 c 1,26,-1
 132 -33 l 1,27,28
 129.857142857 -26.5714285714 129.857142857 -26.5714285714 117 -6 c 1,29,30
 113 60 113 60 113 106 c 2,31,-1
 119 1497 l 2,32,33
 119 1510 119 1510 255 1510 c 1,34,-1
 280 1509 l 1,35,-1
 348 1509 l 1,36,-1
 831 1514 l 1,37,-1
 1174 1510 l 1,38,-1
 1208 1510 l 1,39,-1
 1223 1511 l 1,40,41
 1251 1511 1251 1511 1260.5 1498.5 c 128,-1,42
 1270 1486 1270 1486 1270 1463 c 2,0,-1
EndSplineSet
EndChar

StartChar: G
Encoding: 71 71 42
Width: 1681
Flags: HMW
HStem: -62 394<783.5 927> 520 334 1157 382<770.5 944.5>
LayerCount: 2
Fore
SplineSet
1613 58 m 2,0,1
 1613 57 1613 57 1614 54 c 1,2,-1
 1611 46 l 1,3,-1
 1612 46 l 1,4,-1
 1612 43.5 l 2,5,6
 1612 42 1612 42 1611 41 c 0,7,8
 1564 5 1564 5 1381.5 -25 c 128,-1,9
 1199 -55 1199 -55 1130.5 -55 c 128,-1,10
 1062 -55 1062 -55 1054 -54 c 1,11,-1
 1003 -57 l 2,12,13
 923 -62 923 -62 911 -62 c 0,14,15
 491 -62 491 -62 271.5 149 c 128,-1,16
 52 360 52 360 52 748.431506849 c 128,-1,17
 52 1136.8630137 52 1136.8630137 288.741935484 1337.93150685 c 128,-1,18
 525.483870968 1539 525.483870968 1539 929 1539 c 0,19,20
 1003 1539 1003 1539 1111.66801586 1524.96052616 c 128,-1,21
 1220.33603172 1510.92105231 1220.33603172 1510.92105231 1302 1484 c 1,22,23
 1402 1443 1402 1443 1473.37001676 1365.70404633 c 128,-1,24
 1544.74003353 1288.40809266 1544.74003353 1288.40809266 1567 1194 c 1,25,26
 1571 1168 1571 1168 1576.5 1112.5 c 128,-1,27
 1582 1057 1582 1057 1586 1031 c 1,28,29
 1580 1016 1580 1016 1543 1016 c 2,30,-1
 1035 1025 l 1,31,32
 1031 1027 1031 1027 1025 1052 c 1,33,-1
 1025 1049 l 1,34,35
 1006.93120393 1130.30958231 1006.93120393 1130.30958231 954.5 1148.5 c 0,36,37
 930 1157 930 1157 891 1157 c 128,-1,38
 852 1157 852 1157 817.5 1144 c 128,-1,39
 783 1131 783 1131 760 1108 c 128,-1,40
 737 1085 737 1085 719 1054.5 c 128,-1,41
 701 1024 701 1024 692 989 c 128,-1,42
 683 954 683 954 676 917 c 128,-1,43
 669 880 669 880 667.5 844 c 128,-1,44
 666 808 666 808 664.5 775 c 128,-1,45
 663 742 663 742 664 720.5 c 128,-1,46
 665 699 665 699 665 692 c 2,47,-1
 665 623 l 2,48,49
 665 558 665 558 671 532.5 c 128,-1,50
 677 507 677 507 685 476.5 c 128,-1,51
 693 446 693 446 704.5 429.5 c 0,52,53
 742.565550239 374.884210526 742.565550239 374.884210526 788.373684211 353.442105263 c 128,-1,54
 834.181818182 332 834.181818182 332 930.590909091 332 c 128,-1,55
 1027 332 1027 332 1114 361 c 1,56,-1
 1119 519 l 1,57,-1
 1047 525 l 1,58,-1
 1037 520 l 1,59,-1
 933 520 l 1,60,-1
 921 519 l 1,61,-1
 896 545 l 1,62,63
 894 562 894 562 894 599 c 2,64,-1
 894 823 l 2,65,66
 894 840 894 840 918 857 c 1,67,-1
 985 857 l 2,68,69
 1072 857 1072 857 1180 855 c 1,70,-1
 1190 855 l 1,71,72
 1288 853 1288 853 1339 853 c 2,73,-1
 1399 853 l 1,74,-1
 1422 854 l 1,75,76
 1600 854 1600 854 1625 831 c 1,77,-1
 1613 72 l 1,78,-1
 1613 58 l 2,0,1
EndSplineSet
EndChar

StartChar: H
Encoding: 72 72 43
Width: 1654
Flags: HMW
HStem: -33 21G<1290.5 1430.5> 526 450<844.5 869 869 876 876 883> 1500 20G<1265.5 1362.5>
LayerCount: 2
Fore
SplineSet
1564 342 m 1,0,-1
 1563.4 223.44 l 2,1,2
 1563.4 147.6 1563.4 147.6 1565 -14 c 1,3,4
 1551 -33 1551 -33 1343 -33 c 128,-1,5
 1135 -33 1135 -33 971 -27 c 1,6,7
 969 -25 969 -25 952 -2 c 1,8,-1
 952 158 l 1,9,-1
 954 465 l 2,10,11
 954 510 954 510 944 518 c 128,-1,12
 934 526 934 526 883 526 c 2,13,-1
 869 526 l 2,14,15
 774 526 774 526 719 517 c 1,16,-1
 719 377 l 1,17,-1
 717 -10 l 1,18,19
 702 -26 702 -26 466 -26 c 2,20,-1
 418 -26 l 2,21,22
 214.200769839 -25.9362423094 214.200769839 -25.9362423094 121 -20 c 1,23,24
 102 -14 102 -14 102 122 c 1,25,-1
 108 343 l 1,26,-1
 118 1239 l 1,27,-1
 118 1287 l 1,28,29
 119 1302 119 1302 119 1391.58333333 c 128,-1,30
 119 1481.16666667 119 1481.16666667 130 1505 c 1,31,-1
 135 1505 l 1,32,33
 201 1503 201 1503 232 1503 c 2,34,-1
 344 1503 l 1,35,-1
 465 1505 l 1,36,-1
 503 1505 l 2,37,38
 672.641025641 1505 672.641025641 1505 701 1465.5 c 0,39,40
 715 1446 715 1446 715 1405 c 2,41,-1
 712 1280 l 1,42,-1
 712 1233 l 1,43,-1
 706 1035 l 2,44,45
 706 1013 706 1013 709 977 c 1,46,-1
 771 977 l 1,47,-1
 796 976 l 1,48,-1
 876 976 l 2,49,50
 920 976 920 976 966 983 c 1,51,-1
 966 1220 l 1,52,-1
 967 1294 l 1,53,-1
 967 1363 l 1,54,-1
 966 1379 l 1,55,-1
 966 1430 l 2,56,57
 966 1489 966 1489 971.5 1502 c 128,-1,58
 977 1515 977 1515 1000 1515 c 1,59,-1
 1020 1514 l 1,60,-1
 1085 1514 l 1,61,-1
 1301 1520 l 1,62,63
 1559 1520 1559 1520 1559 1479 c 2,64,-1
 1559 1408 l 1,65,-1
 1560 1384 l 1,66,-1
 1559 1332 l 1,67,-1
 1559 1177 l 1,68,-1
 1564 539 l 2,69,70
 1564 523 1564 523 1562 497 c 1,71,-1
 1562 449 l 2,72,73
 1562 417 1562 417 1564 365 c 1,74,-1
 1564 342 l 1,0,-1
EndSplineSet
EndChar

StartChar: I
Encoding: 73 73 44
Width: 842
Flags: HMW
HStem: -35 21G<125 215.5> 1492 20G
LayerCount: 2
Fore
SplineSet
103 107 m 1,0,1
 103 310.166666667 103 310.166666667 114 389 c 1,2,3
 114 824 114 824 126 1266 c 1,4,5
 123 1329 123 1329 123 1393 c 2,6,-1
 123 1426 l 1,7,8
 119 1457 119 1457 119 1481 c 128,-1,9
 119 1505 119 1505 124 1512 c 1,10,11
 338 1499 338 1499 499 1499 c 128,-1,12
 660 1499 660 1499 720 1505 c 1,13,14
 722 1502 722 1502 723 1488 c 1,15,-1
 716 1488 l 1,16,-1
 716 1126 l 1,17,-1
 723 312 l 2,18,19
 723 303 723 303 726 297 c 1,20,-1
 726 295 l 1,21,22
 729 289 729 289 729 282 c 2,23,-1
 737 -9 l 1,24,25
 732 -20 732 -20 719 -26 c 1,26,-1
 685 -26 l 1,27,-1
 125 -35 l 1,28,29
 115 -30 115 -30 99 -20 c 1,30,-1
 100 -3 l 1,31,-1
 103 107 l 1,0,1
EndSplineSet
EndChar

StartChar: J
Encoding: 74 74 45
Width: 1383
Flags: HMW
HStem: -58 404<584 641 531.5 755.5> 1489 20G<751 1117 1117 1129> 1490 20G<702 710 1190 1288 1288 1290>
LayerCount: 2
Fore
SplineSet
130 497 m 1,0,-1
 250 496 l 1,1,-1
 285 496 l 1,2,-1
 298 497 l 1,3,-1
 467 494 l 1,4,5
 511.996309963 490.538745387 511.996309963 490.538745387 517 438 c 0,6,7
 519 417 519 417 522 396 c 0,8,9
 529.142857143 346 529.142857143 346 594.538095238 346 c 128,-1,10
 659.933333333 346 659.933333333 346 677.5 408 c 0,11,12
 691 455.647058824 691 455.647058824 691 522 c 2,13,-1
 691 548 l 1,14,-1
 688 548 l 1,15,-1
 684 690 l 2,16,17
 679.833333333 828.888888889 679.833333333 828.888888889 679.833333333 1101.11111111 c 128,-1,18
 679.833333333 1373.33333333 679.833333333 1373.33333333 684 1495 c 1,19,-1
 683 1496 l 1,20,21
 683 1504 683 1504 689 1508 c 1,22,-1
 702 1510 l 1,23,-1
 751 1509 l 1,24,-1
 1117 1509 l 1,25,-1
 1190 1510 l 1,26,-1
 1288 1510 l 2,27,28
 1296 1510 1296 1510 1300 1501 c 1,29,30
 1298 1479 1298 1479 1298 1434 c 2,31,-1
 1298 1418 l 1,32,-1
 1297 1401 l 1,33,-1
 1295 1350 l 2,34,35
 1288 1160 1288 1160 1288 786 c 2,36,-1
 1288 676 l 2,37,38
 1288 535 1288 535 1287 440.5 c 128,-1,39
 1286 346 1286 346 1240.5 251.5 c 128,-1,40
 1195 157 1195 157 1126.5 100.5 c 128,-1,41
 1058 44 1058 44 967.5 7 c 0,42,43
 808.513513514 -58 808.513513514 -58 635.756756757 -58 c 128,-1,44
 463 -58 463 -58 347 -23 c 1,45,46
 244.156398104 2.71090047393 244.156398104 2.71090047393 176.578199052 56.355450237 c 128,-1,47
 109 110 109 110 72.5 158 c 0,48,49
 -10 266.493150685 -10 266.493150685 -10 424 c 2,50,-1
 -10 450 l 1,51,-1
 -11 462 l 1,52,53
 -11 501 -11 501 1 501 c 2,54,-1
 130 497 l 1,0,-1
EndSplineSet
EndChar

StartChar: K
Encoding: 75 75 46
Width: 1646
Flags: HMW
HStem: -33 21G -32 21G<599.5 627.5> 1495 20G<179.5 220 559 602>
LayerCount: 2
Fore
SplineSet
115 1360 m 1,0,-1
 112 1446 l 1,1,2
 112 1501 112 1501 123 1514 c 1,3,4
 150 1515 150 1515 225.5 1515 c 128,-1,5
 301 1515 301 1515 356 1514 c 2,6,-1
 497 1512 l 1,7,8
 536 1515 536 1515 610 1515 c 128,-1,9
 684 1515 684 1515 704 1495 c 1,10,11
 699 1251 699 1251 699 915 c 1,12,-1
 734 909 l 1,13,14
 749 948 749 948 788.5 1026 c 128,-1,15
 828 1104 828 1104 834 1117 c 2,16,-1
 845 1141 l 2,17,18
 849 1150 849 1150 881.5 1218.5 c 128,-1,19
 914 1287 914 1287 948 1372.5 c 128,-1,20
 982 1458 982 1458 1021 1507 c 1,21,22
 1091 1508 1091 1508 1191.5 1508 c 128,-1,23
 1292 1508 1292 1508 1426 1504.5 c 128,-1,24
 1560 1501 1560 1501 1627 1501 c 1,25,26
 1342 986 1342 986 1222 788 c 1,27,-1
 1245 751 l 1,28,29
 1285.85305592 700.420026008 1285.85305592 700.420026008 1423.92652796 460.210013004 c 128,-1,30
 1562 220 1562 220 1624 119 c 2,31,-1
 1648 80 l 2,32,33
 1692 7 1692 7 1692 -3 c 128,-1,34
 1692 -13 1692 -13 1686 -21 c 1,35,-1
 1680 -21 l 1,36,37
 1624 -19 1624 -19 1589.5 -19 c 128,-1,38
 1555 -19 1555 -19 1499 -21 c 1,39,-1
 1050 -21 l 1,40,41
 896 267 896 267 730 604 c 1,42,43
 722 524 722 524 706 226 c 1,44,-1
 706 213 l 1,45,-1
 708 -14 l 1,46,47
 696 -32 696 -32 603 -32 c 1,48,-1
 582 -31 l 1,49,-1
 528 -31 l 1,50,-1
 245 -33 l 1,51,-1
 153 -33 l 2,52,53
 125.25 -33 125.25 -33 113 -12 c 1,54,-1
 110 -9 l 1,55,-1
 110 143 l 1,56,-1
 112 300 l 1,57,-1
 112 865 l 1,58,-1
 115 1360 l 1,0,-1
EndSplineSet
EndChar

StartChar: L
Encoding: 76 76 47
Width: 1265
Flags: HMW
HStem: -34 435 1499 20G<379 482.5>
LayerCount: 2
Fore
SplineSet
1270 384 m 1,0,1
 1263 356 1263 356 1263 324 c 2,2,-1
 1263 301 l 2,3,4
 1263 248 1263 248 1270 225 c 1,5,6
 1269.98201659 73.794805686 1269.98201659 73.794805686 1269 -8 c 1,7,8
 1263 -34 1263 -34 282 -34 c 0,9,10
 237 -34 237 -34 133 -32 c 1,11,12
 117 -2 117 -2 117 67 c 1,13,-1
 119 132 l 1,14,-1
 119 359 l 1,15,-1
 120 549 l 1,16,-1
 120 737 l 1,17,-1
 121 1040 l 2,18,19
 121 1124 121 1124 119 1198 c 1,20,-1
 119 1209 l 1,21,-1
 116 1353 l 1,22,23
 116 1480 116 1480 137 1518 c 1,24,25
 157 1517 157 1517 192 1517 c 2,26,-1
 240 1517 l 1,27,-1
 408 1519 l 1,28,29
 695 1519 695 1519 724 1483 c 1,30,-1
 716 1134 l 1,31,-1
 713 841 l 1,32,-1
 712 829 l 1,33,-1
 708 413 l 1,34,-1
 748 390 l 1,35,36
 929 401 929 401 1098.5 401 c 128,-1,37
 1268 401 1268 401 1270 384 c 1,0,1
EndSplineSet
EndChar

StartChar: M
Encoding: 77 77 48
Width: 2193
Flags: HMW
HStem: -34 21G<1622 1670> -33 21G<1908 1908 1908 1960> 1493 20G<142 279 279 291> 1494 20G<343.5 602.5>
VStem: 134 486<-18.5 0 -18.5 0.5>
LayerCount: 2
Fore
SplineSet
631 860 m 1,0,1
 619 577 619 577 619 278.5 c 2,2,-1
 619 -20 l 1,3,-1
 546 -20 l 1,4,-1
 521 -19 l 1,5,-1
 166 -22 l 2,6,7
 132 -22 132 -22 130 -23 c 1,8,9
 130 -22 130 -22 134 -6 c 1,10,-1
 134 0 l 1,11,-1
 135 4 l 1,12,13
 130 76 130 76 130 179 c 2,14,-1
 134 1296 l 1,15,-1
 133 1348 l 1,16,-1
 133 1398 l 1,17,-1
 131 1492 l 2,18,19
 131 1502 131 1502 142 1513 c 1,20,-1
 279 1513 l 1,21,-1
 359 1514 l 1,22,23
 641 1514 641 1514 762.5 1506 c 128,-1,24
 884 1498 884 1498 937 1498 c 1,25,26
 966 1326 966 1326 1023 1042 c 2,27,-1
 1094 684 l 1,28,-1
 1129 684 l 1,29,-1
 1257 1338 l 2,30,31
 1259.94736842 1352.73684211 1259.94736842 1352.73684211 1270.73716969 1425.3227779 c 128,-1,32
 1281.52697095 1497.90871369 1281.52697095 1497.90871369 1288 1506 c 1,33,-1
 1292 1506 l 1,34,-1
 1943 1512 l 1,35,-1
 1982 1511 l 1,36,-1
 2094 1511 l 1,37,38
 2103 1507 2103 1507 2104 1474 c 2,39,-1
 2114 1096 l 2,40,41
 2126 626 2126 626 2131 364 c 1,42,43
 2131 162 2131 162 2125 -15 c 1,44,45
 2122 -27 2122 -27 2085 -29 c 2,46,-1
 2040 -31 l 2,47,48
 1986 -33 1986 -33 1960 -33 c 2,49,-1
 1908 -33 l 1,50,51
 1811 -34 1811 -34 1622 -34 c 1,52,53
 1587 -3.375 1587 -3.375 1587 234 c 1,54,-1
 1589 548 l 1,55,-1
 1589 629 l 2,56,57
 1589 736 1589 736 1588 787 c 1,58,-1
 1550 794 l 1,59,60
 1517 673 1517 673 1423 255 c 2,61,-1
 1414 215 l 2,62,63
 1407 184 1407 184 1390.5 104.5 c 128,-1,64
 1374 25 1374 25 1364 -16 c 1,65,66
 1352 -30 1352 -30 1258 -30 c 2,67,-1
 1245 -30 l 1,68,-1
 1133 -27 l 1,69,-1
 1072 -28 l 1,70,-1
 1025 -28 l 1,71,-1
 946 -29 l 1,72,-1
 918.375 -29 l 2,73,74
 872.25 -29 872.25 -29 867 -8 c 1,75,-1
 868 -9 l 1,76,-1
 777 388 l 2,77,78
 773 403 773 403 758.768072289 453.602409639 c 128,-1,79
 744.536144578 504.204819277 744.536144578 504.204819277 743 538 c 1,80,-1
 668 862 l 1,81,-1
 631 860 l 1,0,1
EndSplineSet
EndChar

StartChar: N
Encoding: 78 78 49
Width: 1727
Flags: HMW
HStem: -34 21G<126 138> 1491 20G
VStem: 1149 478
LayerCount: 2
Fore
SplineSet
1627 700 m 1,0,-1
 1626 633 l 1,1,-1
 1626 263 l 1,2,-1
 1628 87 l 1,3,-1
 1628 37 l 1,4,-1
 1629 -10 l 1,5,6
 1623 -18 1623 -18 1580 -18 c 2,7,-1
 1554 -18 l 1,8,-1
 1240 -22 l 1,9,10
 1040 -22 1040 -22 942 -21 c 1,11,12
 927 -5 927 -5 833 270 c 1,13,-1
 642 777 l 1,14,-1
 606 772 l 1,15,-1
 605 670 l 1,16,-1
 605 399 l 1,17,-1
 609 128 l 1,18,-1
 609 16 l 2,19,20
 609 -29 609 -29 589 -31 c 1,21,22
 490 -28 490 -28 400 -28 c 2,23,-1
 369 -28 l 1,24,-1
 218 -32 l 1,25,-1
 198 -32 l 1,26,-1
 126 -34 l 1,27,-1
 123 -32 l 1,28,29
 90 -1 90 -1 90 13 c 2,30,-1
 90 31 l 1,31,-1
 91 51 l 1,32,-1
 96 441 l 1,33,34
 96 1083 96 1083 108 1412 c 1,35,-1
 110 1495 l 2,36,37
 110 1504 110 1504 799 1511 c 1,38,39
 805 1507 805 1507 817 1467 c 1,40,-1
 817 1470 l 1,41,-1
 823 1450 l 1,42,43
 897.076762486 1238.3323758 897.076762486 1238.3323758 1003.03838124 963.666187898 c 128,-1,44
 1109 689 1109 689 1111 683 c 1,45,-1
 1145 685 l 1,46,-1
 1149 1500 l 2,47,48
 1149 1508 1149 1508 1295 1508 c 1,49,-1
 1546 1503 l 1,50,-1
 1620 1503 l 1,51,52
 1627 1172 1627 1172 1627 700 c 1,0,-1
EndSplineSet
EndChar

StartChar: O
Encoding: 79 79 50
Width: 1645
Flags: HMW
HStem: -58 357<802 814> 1178 374<736.5 930>
LayerCount: 2
Fore
SplineSet
610 760 m 2,0,1
 610 759 610 759 609 755 c 1,2,-1
 609 752 l 1,3,4
 605 710 605 710 605 658 c 128,-1,5
 605 606 605 606 613.5 548 c 128,-1,6
 622 490 622 490 641.5 432 c 128,-1,7
 661 374 661 374 702.5 338 c 0,8,9
 745.877380952 300.371428571 745.877380952 300.371428571 800.610119048 300.371428571 c 128,-1,10
 855.342857143 300.371428571 855.342857143 300.371428571 892.671428571 315.685714286 c 128,-1,11
 930 331 930 331 955.5 355 c 128,-1,12
 981 379 981 379 999.5 420.5 c 0,13,14
 1048 529.297297297 1048 529.297297297 1048 757.9 c 0,15,16
 1048 991.25 1048 991.25 994.642857143 1084.625 c 128,-1,17
 941.285714286 1178 941.285714286 1178 833 1178 c 0,18,19
 779 1178 779 1178 738.5 1152 c 128,-1,20
 698 1126 698 1126 677.5 1098 c 128,-1,21
 657 1070 657 1070 635.5 978.983333333 c 128,-1,22
 614 887.966666667 614 887.966666667 614 811 c 1,23,-1
 610 760 l 2,0,1
35 752 m 1,24,-1
 37 774 l 2,25,26
 49 899 49 899 69 995.5 c 128,-1,27
 89 1092 89 1092 134 1176 c 1,28,29
 241 1361 241 1361 432.5 1456.5 c 128,-1,30
 624 1552 624 1552 845.320754717 1552 c 128,-1,31
 1066.64150943 1552 1066.64150943 1552 1248 1463 c 0,32,33
 1356 1410 1356 1410 1417 1329 c 1,34,35
 1534 1183 1534 1183 1571 1060 c 128,-1,36
 1608 937 1608 937 1608 776 c 0,37,38
 1608 418 1608 418 1460 230 c 1,39,-1
 1414 169 l 1,40,41
 1321 61 1321 61 1151 2.5 c 128,-1,42
 981 -56 981 -56 814 -58 c 1,43,44
 528 -58 528 -58 345 62 c 1,45,46
 35 263 35 263 35 752 c 1,24,-1
EndSplineSet
EndChar

StartChar: P
Encoding: 80 80 51
Width: 1527
Flags: HMW
HStem: -54 20G<134 134> 0 21 483 290 1503 21G<1033.5 1169.5>
LayerCount: 2
Fore
SplineSet
117 661 m 1,0,-1
 119 1072 l 1,1,-1
 119 1489 l 1,2,3
 121 1490 121 1490 137.5 1490 c 2,4,-1
 175 1490 l 2,5,6
 196 1490 196 1490 207 1492 c 1,7,-1
 331 1497 l 2,8,9
 379 1499 379 1499 405 1499 c 2,10,-1
 564 1499 l 1,11,-1
 858 1506 l 1,12,13
 918 1506 918 1506 990 1501 c 1,14,-1
 997 1501 l 1,15,16
 1031 1503 1031 1503 1040 1503 c 0,17,18
 1239.8852459 1503 1239.8852459 1503 1382.5 1376 c 0,19,20
 1451 1315 1451 1315 1491 1219 c 128,-1,21
 1531 1123 1531 1123 1531 1020.5 c 128,-1,22
 1531 918 1531 918 1510 846 c 128,-1,23
 1489 774 1489 774 1456 723.5 c 0,24,25
 1324.19718298 521.801749716 1324.19718298 521.801749716 945 488 c 1,26,-1
 729 479 l 1,27,28
 719 239 719 239 719 106 c 1,29,-1
 720 75 l 1,30,-1
 720 -6 l 1,31,32
 716 -20 716 -20 705 -25 c 1,33,-1
 134 -34 l 1,34,35
 117 14 117 14 117 120 c 2,36,-1
 117 661 l 1,0,-1
992 1090 m 1,37,38
 952.476525745 1194.93973364 952.476525745 1194.93973364 779.5 1202 c 0,39,40
 755 1203 755 1203 711 1203 c 0,41,42
 699 1203 699 1203 696 908 c 1,43,-1
 694 833 l 1,44,-1
 697 773 l 1,45,46
 820.113966858 775.018261752 820.113966858 775.018261752 913.556983429 825.256442704 c 128,-1,47
 1007 875.494623656 1007 875.494623656 1007 1007 c 0,48,49
 1007 1063 1007 1063 992 1090 c 1,37,38
EndSplineSet
EndChar

StartChar: Q
Encoding: 81 81 52
Width: 1642
Flags: HMW
HStem: -70 357<862 893> -30 398<1255 1594> 289 1263<828 846 846 849.5>
LayerCount: 2
Fore
SplineSet
1529 366 m 1,0,-1
 1594 368 l 1,1,2
 1662 364.6 1662 364.6 1662 324 c 1,3,4
 1661 313 l 1,5,-1
 1661 303 l 1,6,7
 1660 296 1660 296 1660 279 c 2,8,-1
 1660 242 l 1,9,-1
 1661 229 l 1,10,-1
 1662 132 l 1,11,-1
 1661 106 l 1,12,-1
 1661 57 l 1,13,-1
 1660 22 l 1,14,-1
 1661 5 l 1,15,-1
 1661 -23 l 1,16,17
 1657 -37 1657 -37 1638 -46 c 1,18,19
 1510 -30 1510 -30 1381 -30 c 128,-1,20
 1252 -30 1252 -30 1071 -50 c 128,-1,21
 890 -70 890 -70 802 -70 c 0,22,23
 591 -70 591 -70 445.5 12.5 c 128,-1,24
 300 95 300 95 199 251 c 1,25,26
 186 251 186 251 186 249 c 1,27,-1
 172 263 l 1,28,29
 49 455 49 455 49 747 c 0,30,31
 49 917 49 917 95 1055 c 0,32,33
 178.941860465 1306.8255814 178.941860465 1306.8255814 403.5 1436.5 c 0,34,35
 603.512195122 1552 603.512195122 1552 869 1552 c 0,36,37
 1043 1552 1043 1552 1185.5 1493 c 128,-1,38
 1328 1434 1328 1434 1421.5 1330.5 c 0,39,40
 1617 1114.09090909 1617 1114.09090909 1617 787 c 0,41,42
 1617 683 1617 683 1579 570 c 128,-1,43
 1541 457 1541 457 1474 366 c 1,44,-1
 1529 366 l 1,0,-1
816 288 m 1,45,-1
 828 289 l 1,46,-1
 846 289 l 1,47,-1
 866 287 l 1,48,49
 929.5 287 929.5 287 967 332 c 128,-1,50
 1004.5 377 1004.5 377 1015.25 420 c 0,51,52
 1041.82758621 526.310344828 1041.82758621 526.310344828 1046 664 c 1,53,-1
 1046 682 l 1,54,-1
 1049 812 l 1,55,56
 1049 989.483870968 1049 989.483870968 1012.79230769 1072.41116625 c 128,-1,57
 976.584615385 1155.33846154 976.584615385 1155.33846154 916.5 1182.5 c 0,58,59
 880 1199 880 1199 821.5 1199 c 128,-1,60
 763 1199 763 1199 715 1153.5 c 128,-1,61
 667 1108 667 1108 636 1001.91111111 c 128,-1,62
 605 895.822222222 605 895.822222222 605 732.911111111 c 128,-1,63
 605 570 605 570 617.5 512.5 c 0,64,65
 643.77688172 391.626344086 643.77688172 391.626344086 689.245583717 339.813172043 c 128,-1,66
 734.714285714 288 734.714285714 288 816 288 c 1,45,-1
EndSplineSet
EndChar

StartChar: R
Encoding: 82 82 53
Width: 1561
Flags: HMW
HStem: 507 324 1487 20G<826.5 911>
LayerCount: 2
Fore
SplineSet
559 1504 m 1,0,-1
 880 1507 l 2,1,2
 982 1507 982 1507 1065 1503 c 1,3,4
 1288 1497 1288 1497 1404.5 1398 c 128,-1,5
 1521 1299 1521 1299 1521 1119 c 0,6,7
 1521 994 1521 994 1448 905.5 c 128,-1,8
 1375 817 1375 817 1235 750 c 1,9,10
 1456.64821246 680.22185904 1456.64821246 680.22185904 1504.5 410 c 0,11,12
 1514.90282903 351.254612546 1514.90282903 351.254612546 1521.45141451 275.127306273 c 128,-1,13
 1528 199 1528 199 1532 173 c 1,14,-1
 1542 122 l 1,15,16
 1558 32 1558 32 1570 -8 c 1,17,-1
 1566 -11 l 1,18,19
 1396 -22 1396 -22 1255.5 -22 c 128,-1,20
 1115 -22 1115 -22 1007 -17 c 1,21,-1
 1001 -17 l 2,22,23
 970 -17 970 -17 935 278 c 2,24,-1
 930 321 l 1,25,26
 926 431 926 431 891.5 469 c 128,-1,27
 857 507 857 507 772 507 c 1,28,-1
 759 506 l 1,29,-1
 706 506 l 1,30,-1
 706 202 l 1,31,-1
 707 170 l 1,32,-1
 707 -13 l 1,33,34
 704 -23 704 -23 692 -25 c 1,35,36
 582 -29 582 -29 381.5 -29 c 128,-1,37
 181 -29 181 -29 117 -30 c 1,38,-1
 111 -28 l 1,39,-1
 109 -29 l 2,40,41
 107 -29 107 -29 103 -26 c 1,42,-1
 105 64 l 1,43,-1
 104 94 l 1,44,-1
 108 509 l 1,45,-1
 108 582 l 1,46,-1
 109 657 l 1,47,-1
 110 916 l 1,48,-1
 111 950 l 1,49,-1
 108 1177 l 1,50,51
 112 1496 l 2,52,53
 112 1504 112 1504 169 1504 c 2,54,-1
 233 1503 l 1,55,-1
 294 1503 l 1,56,-1
 421 1502 l 1,57,-1
 559 1504 l 1,0,-1
1576 -5 m 1,58,-1
 1571 -8 l 1,59,-1
 1571 -6 l 2,60,61
 1571 -5 1571 -5 1576 -5 c 1,58,-1
1571 -8 m 1,62,-1
 1571 -9 l 1,63,64
 1570 -9 1570 -9 1570 -8 c 1,65,-1
 1571 -8 l 1,62,-1
929 1178 m 1,66,67
 869 1204 869 1204 769 1204 c 2,68,-1
 711 1204 l 1,69,70
 700 1188 700 1188 700 1035.5 c 128,-1,71
 700 883 700 883 705 831 c 1,72,73
 1018 838 1018 838 1018 1047 c 0,74,75
 1018 1136 1018 1136 929 1178 c 1,66,67
EndSplineSet
EndChar

StartChar: S
Encoding: 83 83 54
Width: 1484
Flags: HMW
HStem: -63 349<688.5 736> -63 485<502 736> 1087 471<623 1023.5> 1189 369<749.5 763 763 767>
LayerCount: 2
Fore
SplineSet
62 413 m 2,0,-1
 591 422 l 2,1,2
 610.8 422 610.8 422 624.4 388 c 128,-1,3
 638 354 638 354 651 334 c 0,4,5
 682.2 286 682.2 286 753.6 286 c 128,-1,6
 825 286 825 286 869 319.5 c 128,-1,7
 913 353 913 353 913 405.797297297 c 128,-1,8
 913 458.594594595 913 458.594594595 886 478.297297297 c 128,-1,9
 859 498 859 498 826.817784257 516.529154519 c 128,-1,10
 794.635568513 535.058309038 794.635568513 535.058309038 732.317784257 545.029154519 c 128,-1,11
 670 555 670 555 664 557 c 1,12,-1
 666 557 l 1,13,-1
 609 572 l 1,14,15
 554 582 554 582 517 594 c 1,16,17
 278 658 278 658 171.5 755 c 128,-1,18
 65 852 65 852 65 1016 c 0,19,20
 65 1135 65 1135 109 1230 c 128,-1,21
 153 1325 153 1325 224 1385 c 0,22,23
 428.716666667 1558 428.716666667 1558 790 1558 c 0,24,25
 1077 1558 1077 1558 1241 1454 c 1,26,-1
 1240 1454 l 1,27,28
 1345 1378 1345 1378 1384 1304.5 c 128,-1,29
 1423 1231 1423 1231 1433 1123 c 1,30,-1
 1407 1097 l 1,31,32
 1144 1087 1144 1087 941 1087 c 0,33,34
 880 1087 880 1087 868 1123 c 0,35,36
 863 1138 863 1138 857 1153 c 0,37,38
 842.6 1189 842.6 1189 767 1189 c 2,39,-1
 763 1189 l 2,40,41
 703.80952381 1189 703.80952381 1189 661.904761905 1161.5 c 128,-1,42
 620 1134 620 1134 619.5 1108 c 128,-1,43
 619 1082 619 1082 630.5 1065 c 128,-1,44
 642 1048 642 1048 655 1038 c 128,-1,45
 668 1028 668 1028 695 1017.5 c 128,-1,46
 722 1007 722 1007 735.5 1003.5 c 128,-1,47
 749 1000 749 1000 778 992 c 2,48,-1
 813 983 l 2,49,50
 834 977 834 977 935.5 953 c 128,-1,51
 1037 929 1037 929 1105 907 c 1,52,-1
 1105 908 l 1,53,54
 1318.38473841 835.777473155 1318.38473841 835.777473155 1395.6923692 728.271549078 c 128,-1,55
 1473 620.765625 1473 620.765625 1473 478 c 0,56,57
 1473 96.6496815287 1473 96.6496815287 1017.5 -16.5 c 0,58,59
 885.880965147 -49.1951742627 885.880965147 -49.1951742627 736 -63 c 1,60,61
 552.173076923 -63 552.173076923 -63 372.010007849 -8.84693877551 c 128,-1,62
 191.846938776 45.306122449 191.846938776 45.306122449 131 167 c 1,63,64
 90 226 90 226 76 275.5 c 128,-1,65
 62 325 62 325 53 414 c 1,66,67
 56 413 56 413 62 413 c 2,0,-1
EndSplineSet
EndChar

StartChar: T
Encoding: 84 84 55
Width: 1318
Flags: HMW
HStem: -29 21G<913.5 951> 1091 414
LayerCount: 2
Fore
SplineSet
1337 1135 m 2,0,1
 1337 1102 1337 1102 1330 1102 c 2,2,3
 968 1105 l 1,4,5
 966 1008 966 1008 966 802 c 128,-1,6
 966 596 966 596 967 516 c 2,7,-1
 971 -14 l 1,8,9
 966 -28 966 -28 951 -29 c 1,10,-1
 740 -26 l 1,11,-1
 739 -27 l 1,12,-1
 673 -26 l 1,13,-1
 490 -26 l 2,14,15
 416 -26 416 -26 379 -27 c 1,16,-1
 362 -12 l 2,17,18
 361 -11 361 -11 349 4 c 1,19,20
 349 92 349 92 356 395 c 2,21,-1
 367 927 l 1,22,-1
 365 952 l 2,23,24
 357.634517182 1051.02482456 357.634517182 1051.02482456 351.264700822 1069.50519243 c 128,-1,25
 344.894884463 1087.98556031 344.894884463 1087.98556031 326.178045289 1089.49278015 c 128,-1,26
 307.461206116 1091 307.461206116 1091 298 1091 c 2,27,-1
 258 1089 l 1,28,-1
 10 1093 l 1,29,30
 -3 1119 -3 1119 -3 1210 c 1,31,-1
 -1 1298 l 1,32,-1
 -1 1325 l 1,33,34
 -2 1485 -2 1485 -4 1496 c 1,35,36
 -2 1496 -2 1496 4 1494 c 1,37,-1
 1277 1505 l 2,38,39
 1316 1505 1316 1505 1326 1499.5 c 128,-1,40
 1336 1494 1336 1494 1336 1479 c 2,41,-1
 1336 1215 l 1,42,-1
 1337 1135 l 2,0,1
EndSplineSet
EndChar

StartChar: U
Encoding: 85 85 56
Width: 1615
Flags: HMW
HStem: -62 412<764 850 764 1004.5> 1495 20G<943 1043.5>
LayerCount: 2
Fore
SplineSet
1546 775 m 1,0,-1
 1543 494 l 1,1,2
 1543 365 1543 365 1501.5 266 c 128,-1,3
 1460 167 1460 167 1392.5 106 c 0,4,5
 1206.59836066 -62 1206.59836066 -62 844.640643743 -62 c 128,-1,6
 482.682926829 -62 482.682926829 -62 281.5 113.5 c 0,7,8
 211 175 211 175 162.5 272.5 c 128,-1,9
 114 370 114 370 104 493 c 1,10,11
 109 911 109 911 109 1266 c 1,12,13
 104 1266 104 1266 104 1371 c 128,-1,14
 104 1476 104 1476 113 1501 c 1,15,-1
 134 1501 l 1,16,17
 281 1509 281 1509 535 1509 c 1,18,19
 553 1505 553 1505 600.5 1504 c 128,-1,20
 648 1503 648 1503 666 1501 c 2,21,-1
 697 1497 l 1,22,23
 704 1299 704 1299 706 952 c 1,24,-1
 700 550 l 1,25,26
 700 350 700 350 816 350 c 0,27,28
 865 350 865 350 898.5 393 c 128,-1,29
 932 436 932 436 934 490 c 1,30,-1
 938 500 l 1,31,-1
 941 837 l 1,32,-1
 942 867 l 1,33,34
 942 1099 942 1099 936 1315 c 2,35,-1
 934 1388 l 2,36,37
 932 1432 932 1432 932 1467 c 128,-1,38
 932 1502 932 1502 943 1515 c 1,39,40
 1329 1515 1329 1515 1525 1512 c 1,41,42
 1532.16666667 1504.83333333 1532.16666667 1504.83333333 1543 1499 c 1,43,-1
 1542 1499 l 1,44,-1
 1553 1492 l 1,45,46
 1545 1303 1545 1303 1545 1006 c 2,47,-1
 1545 834 l 1,48,-1
 1546 775 l 1,0,-1
EndSplineSet
EndChar

StartChar: V
Encoding: 86 86 57
Width: 1555
Flags: HMW
HStem: -31 21G 1490 20G<1534 1579 1579 1579>
LayerCount: 2
Fore
SplineSet
1068 -25 m 1,0,-1
 942 -22 l 1,1,-1
 867 -22 l 1,2,3
 835 -26 835 -26 728.5 -26 c 128,-1,4
 622 -26 622 -26 412 -31 c 1,5,6
 373 4 373 4 339.209497207 171.268156425 c 128,-1,7
 305.418994413 338.536312849 305.418994413 338.536312849 252.709497207 515.268156425 c 128,-1,8
 200 692 200 692 187 738 c 2,9,-1
 157 844 l 2,10,11
 144 890 144 890 111.5 1001 c 0,12,13
 11.0141342756 1344.19787986 11.0141342756 1344.19787986 -21 1500 c 1,14,15
 -21 1508 -21 1508 565 1508 c 0,16,17
 583 1508 583 1508 593 1495 c 1,18,19
 672 1026 672 1026 771 473 c 1,20,-1
 779 420 l 1,21,-1
 819 420 l 1,22,-1
 828 472 l 1,23,24
 859 667 859 667 946 1101 c 1,25,-1
 970 1214 l 2,26,27
 982.444444444 1271.03703704 982.444444444 1271.03703704 1025 1498 c 1,28,29
 1071 1510 1071 1510 1534 1510 c 2,30,-1
 1579 1510 l 1,31,32
 1591 1503 1591 1503 1594 1497 c 1,33,-1
 1393 770 l 2,34,35
 1371.41012686 690.867089536 1371.41012686 690.867089536 1367 669 c 1,36,-1
 1320 485 l 1,37,38
 1207 4 1207 4 1158 -27 c 1,39,40
 1131 -27 1131 -27 1073 -25 c 1,41,-1
 1068 -25 l 1,0,-1
EndSplineSet
EndChar

StartChar: W
Encoding: 87 87 58
Width: 2130
Flags: HMW
HStem: -35 21G 1497 20G<245 284>
LayerCount: 2
Fore
SplineSet
815 1506 m 2,0,-1
 989 1507 l 1,1,-1
 1378 1507 l 2,2,3
 1382 1507 1382 1507 1384 1505 c 1,4,-1
 1420 1271 l 1,5,6
 1434 1169 1434 1169 1465.5 963.5 c 128,-1,7
 1497 758 1497 758 1505 704 c 2,8,-1
 1513 650 l 1,9,-1
 1551 650 l 1,10,11
 1577 939 1577 939 1649 1411 c 1,12,-1
 1653 1434 l 2,13,14
 1654 1442 1654 1442 1654.5 1456.5 c 0,15,16
 1655.31617647 1480.16911765 1655.31617647 1480.16911765 1663.88031046 1495.58455882 c 128,-1,17
 1672.44444444 1511 1672.44444444 1511 1716 1511 c 0,18,19
 2037 1511 2037 1511 2185 1493 c 1,20,21
 2189 1489 2189 1489 2193 1470 c 1,22,23
 2169 1358 2169 1358 2114 1121 c 128,-1,24
 2059 884 2059 884 2032 760 c 2,25,-1
 2024 723 l 2,26,27
 2022 717 2022 717 2011.5 687 c 128,-1,28
 2001 657 2001 657 2002 645 c 1,29,-1
 1932 328 l 1,30,-1
 1900 171 l 2,31,32
 1873 38 1873 38 1863 -20 c 1,33,-1
 1858 -18 l 1,34,35
 1788 -22 1788 -22 1645 -22 c 2,36,-1
 1489 -22 l 1,37,-1
 1435 -21 l 1,38,39
 1322 -21 1322 -21 1229 -25 c 0,40,41
 1220.1849711 -25 1220.1849711 -25 1200.09248555 133 c 128,-1,42
 1180 291 1180 291 1178 302 c 2,43,-1
 1169 352 l 1,44,45
 1137 562 1137 562 1105 795 c 1,46,-1
 1068 796 l 1,47,48
 1011 502 1011 502 967 82 c 0,49,50
 956 -28 956 -28 924 -33 c 1,51,52
 781 -28 781 -28 647 -28 c 128,-1,53
 513 -28 513 -28 303 -35 c 1,54,55
 274 -12 274 -12 259 86 c 2,56,-1
 253 125 l 1,57,58
 214.518324607 326.570680628 214.518324607 326.570680628 95 869 c 1,59,-1
 74 966 l 2,60,61
 62 1024 62 1024 23.78 1195.6 c 128,-1,62
 -14.44 1367.2 -14.44 1367.2 -41 1500 c 1,63,64
 -40 1508 -40 1508 -27 1514 c 1,65,66
 -4 1511 -4 1511 22 1511 c 2,67,-1
 34 1511 l 1,68,-1
 129 1514 l 1,69,-1
 267 1517 l 1,70,71
 335 1517 335 1517 372 1514 c 1,72,-1
 435 1514 l 2,73,74
 444 1514 444 1514 468 1512 c 1,75,-1
 482 1512 l 2,76,77
 514.477876106 1512 514.477876106 1512 572 1012 c 0,78,79
 598 786 598 786 603 748 c 2,80,-1
 610 691 l 1,81,-1
 649 690 l 1,82,83
 686 922 686 922 731 1232 c 1,84,85
 731 1268 731 1268 747 1375 c 128,-1,86
 763 1482 763 1482 780 1507 c 1,87,88
 791 1506 791 1506 815 1506 c 2,0,-1
EndSplineSet
EndChar

StartChar: X
Encoding: 88 88 59
Width: 1600
Flags: HMW
HStem: 1491 20G<1551.5 1623>
LayerCount: 2
Fore
SplineSet
1632 1488 m 1,0,-1
 1631 1480 l 1,1,-1
 1395 1102 l 2,2,3
 1393 1098 1393 1098 1339 1013 c 2,4,-1
 1167 740 l 1,5,-1
 1189 700 l 1,6,-1
 1220 657 l 1,7,-1
 1306 526 l 1,8,-1
 1330 484 l 2,9,10
 1338 470 1338 470 1357 442 c 128,-1,11
 1376 414 1376 414 1378 411 c 1,12,-1
 1378 412 l 1,13,-1
 1558 134 l 1,14,-1
 1558 135 l 1,15,-1
 1648 -8 l 2,16,17
 1651 -11 1651 -11 1651 -15 c 0,18,19
 1651 -29 1651 -29 1601 -32 c 1,20,-1
 1088 -36 l 2,21,22
 1028 -36 1028 -36 1005 -22 c 1,23,24
 998 -4 998 -4 981 29 c 128,-1,25
 964 62 964 62 959 73 c 2,26,-1
 798 410 l 1,27,28
 738.75 298.083333333 738.75 298.083333333 719 252 c 1,29,30
 610 15 610 15 563 -30 c 1,31,32
 411 -26 411 -26 230 -26 c 1,33,34
 165 -27 l 1,35,-1
 -22 -27 l 1,36,37
 -27 -24 -27 -24 -27 -21 c 0,38,39
 -27 8 -27 8 69 150 c 1,40,41
 76 157 76 157 79 165 c 1,42,-1
 455 754 l 1,43,-1
 363 905 l 1,44,45
 254 1099 254 1099 150 1272 c 2,46,-1
 11 1502 l 2,47,48
 10 1504 10 1504 10 1506 c 1,49,-1
 169 1506 l 2,50,51
 364 1506 364 1506 481 1498 c 1,52,53
 573 1498 573 1498 622 1499 c 1,54,55
 660.140122864 1462.0640622 660.140122864 1462.0640622 779 1174 c 1,56,-1
 794 1134 l 1,57,-1
 828 1067 l 1,58,-1
 859 1137 l 1,59,60
 889 1209 889 1209 951 1343 c 128,-1,61
 1013 1477 1013 1477 1031 1498 c 1,62,-1
 1036 1495 l 1,63,-1
 1150 1499 l 2,64,65
 1484 1511 1484 1511 1623 1511 c 1,66,67
 1632 1506 1632 1506 1632 1488 c 1,0,-1
1650 -8 m 1,68,-1
 1648 -8 l 1,69,-1
 1648 -5 l 1,70,-1
 1650 -8 l 1,68,-1
1647 -2 m 2,71,-1
 1648 -5 l 2,72,73
 1647 -4 1647 -4 1647 -2 c 2,71,-1
EndSplineSet
EndChar

StartChar: Y
Encoding: 89 89 60
Width: 1524
Flags: HMW
HStem: -37 21G<477 574.5>
LayerCount: 2
Fore
SplineSet
1530 1507 m 1,0,-1
 1563 1508 l 1,1,2
 1573 1503 1573 1503 1578 1483 c 1,3,-1
 1548 1424 l 1,4,-1
 1548 1425 l 1,5,-1
 1483 1300 l 1,6,7
 1335.57766947 1028.49184759 1335.57766947 1028.49184759 1293 937 c 1,8,-1
 1259 872 l 2,9,10
 1204 766 1204 766 1072 498 c 1,11,12
 1070 464 1070 464 1070 396 c 2,13,-1
 1070 -17 l 1,14,15
 1065 -33 1065 -33 1050 -33 c 2,16,-1
 477 -37 l 1,17,18
 455 -9 455 -9 455 27 c 2,19,-1
 457 152 l 1,20,-1
 457 181 l 1,21,-1
 458 211 l 1,22,-1
 459 284 l 1,23,24
 459 493.111111111 459 493.111111111 351.5 732 c 0,25,26
 329 782 329 782 285 873 c 1,27,-1
 136 1171 l 2,28,29
 130 1182 130 1182 104.210526316 1232.19736842 c 0,30,31
 78.4210526316 1282.39473684 78.4210526316 1282.39473684 47 1340 c 1,32,-1
 47 1339 l 1,33,34
 -33 1461 -33 1461 -33 1501 c 0,35,36
 -33 1506 -33 1506 -1 1506 c 2,37,-1
 256 1506 l 2,38,39
 469 1506 469 1506 577 1503 c 1,40,41
 608.987907658 1497.35507512 608.987907658 1497.35507512 744 1022 c 2,42,-1
 789 863 l 1,43,44
 891.469879518 1135.27710843 891.469879518 1135.27710843 1004 1501 c 1,45,46
 1005 1509 1005 1509 1152 1509 c 2,47,-1
 1280 1509 l 2,48,49
 1326 1509 1326 1509 1357 1507 c 1,50,-1
 1530 1507 l 1,0,-1
EndSplineSet
EndChar

StartChar: Z
Encoding: 90 90 61
Width: 1395
Flags: HMW
HStem: -35 414 1116 387
LayerCount: 2
Fore
SplineSet
1351 1379 m 1,0,-1
 1348 1179 l 1,1,-1
 1348 1166 l 1,2,3
 1333 1066 1333 1066 1129 844 c 2,4,-1
 1052 760 l 1,5,6
 923 608 923 608 843 510 c 2,7,-1
 729 371 l 1,8,-1
 782 371 l 1,9,-1
 1362 379 l 2,10,11
 1377 379 1377 379 1377 201 c 2,12,-1
 1377 89 l 1,13,-1
 1379 24 l 2,14,15
 1379 -8 1379 -8 1366.5 -16.5 c 128,-1,16
 1354 -25 1354 -25 1322 -25 c 2,17,-1
 1296 -25 l 1,18,-1
 97 -35 l 2,19,20
 69 -35 69 -35 55 -29 c 128,-1,21
 41 -23 41 -23 26 -1 c 1,22,23
 26 272 26 272 19 339 c 1,24,-1
 35 352 l 1,25,-1
 176 523 l 1,26,27
 486 911 486 911 657 1116 c 1,28,-1
 362 1113 l 1,29,-1
 288 1111 l 2,30,31
 179 1108 179 1108 69 1108 c 1,32,33
 57.5517241379 1113.72413793 57.5517241379 1113.72413793 59.275862069 1137.86206897 c 128,-1,34
 61 1162 61 1162 59 1176 c 1,35,-1
 59 1195 l 1,36,-1
 60 1203 l 1,37,-1
 60 1262 l 1,38,-1
 51 1491 l 1,39,-1
 52 1497 l 1,40,41
 54 1497 54 1497 61 1493 c 1,42,43
 86.75 1492.91666667 86.75 1492.91666667 257.541666667 1492.91666667 c 0,44,45
 428.333333333 1492.91666667 428.333333333 1492.91666667 1070 1503 c 1,46,-1
 1287 1506 l 1,47,48
 1321 1505 1321 1505 1337 1493.5 c 128,-1,49
 1353 1482 1353 1482 1353 1445 c 1,50,-1
 1351 1389 l 1,51,-1
 1351 1379 l 1,0,-1
EndSplineSet
EndChar

StartChar: bracketleft
Encoding: 91 91 62
Width: 1035
Flags: HMW
HStem: -339 21G<210 335> -330 361<936 969> 1192 345<852 903.5>
VStem: 198 443
LayerCount: 2
Fore
SplineSet
380 1529 m 1,0,-1
 876 1537 l 1,1,2
 944 1537 944 1537 966 1506.5 c 128,-1,3
 988 1476 988 1476 988 1431 c 0,4,5
 988 1215 988 1215 985 1194 c 1,6,7
 927 1192 927 1192 862 1192 c 128,-1,8
 797 1192 797 1192 647 1204 c 1,9,10
 641 786 641 786 641 490 c 128,-1,11
 641 194 641 194 646 27 c 1,12,-1
 936 31 l 1,13,-1
 973 31 l 1,14,15
 992 12 992 12 992 -112 c 1,16,-1
 990 -212 l 1,17,-1
 990 -237 l 1,18,-1
 992 -266 l 1,19,20
 992 -327 992 -327 969 -330 c 1,21,-1
 210 -339 l 1,22,-1
 197 -325 l 2,23,24
 172 -299 172 -299 172 -246 c 1,25,-1
 174 -189 l 1,26,-1
 174 -112 l 1,27,-1
 175 -85 l 1,28,-1
 175 49 l 2,29,30
 175 1032 175 1032 198 1523 c 0,31,32
 198 1531 198 1531 228 1531 c 2,33,-1
 342 1529 l 1,34,-1
 380 1529 l 1,0,-1
985 1193 m 2,35,-1
 987 1194 l 2,36,37
 986 1193 986 1193 985 1193 c 2,35,-1
EndSplineSet
EndChar

StartChar: backslash
Encoding: 92 92 63
Width: 809
Flags: HMW
HStem: -74 21G<521 521> 1543 20G<151.5 199.5> 1545 20G<-26 -26> 1549 20G<-20 -20>
LayerCount: 2
Fore
SplineSet
268 1564 m 1,0,1
 267 1559 267 1559 267 1546.3630485 c 0,2,3
 267 1533.726097 267 1533.726097 540 813 c 1,4,-1
 598 656 l 2,5,6
 641 539 641 539 727.5 306 c 128,-1,7
 814 73 814 73 857 -44 c 1,8,9
 856.777340326 -51.2226596743 856.777340326 -51.2226596743 859 -56 c 1,10,11
 859 -72 859 -72 838 -72 c 2,12,-1
 798 -72 l 1,13,-1
 776 -73 l 1,14,-1
 659 -73 l 1,15,-1
 628 -72 l 1,16,-1
 600 -72 l 2,17,18
 535 -72 535 -72 521 -74 c 1,19,-1
 422 222 l 1,20,21
 137 1088 137 1088 -26 1565 c 1,22,-1
 -20 1569 l 1,23,24
 85 1563 85 1563 151.5 1563 c 128,-1,25
 218 1563 218 1563 266 1565 c 1,26,-1
 268 1564 l 1,0,1
EndSplineSet
EndChar

StartChar: bracketright
Encoding: 93 93 64
Width: 1036
Flags: HMW
HStem: -330 21G<665 698 665 670.5> -324 349<85 416 87 416> 1170 367 1525 20G<315.5 367> 1527 20G<76 158 158 194.5 620.5 672 880 880>
VStem: 402 454
LayerCount: 2
Fore
SplineSet
866 452 m 1,0,-1
 856 -214 l 1,1,-1
 856 -293 l 2,2,3
 856 -314 856 -314 845 -326 c 1,4,5
 777 -330 777 -330 698 -330 c 2,6,-1
 665 -330 l 1,7,-1
 362 -327 l 2,8,9
 108.609236886 -324.226475131 108.609236886 -324.226475131 87 -324 c 1,10,11
 79 -322 79 -322 77 -302 c 1,12,-1
 77 -299 l 1,13,14
 72 -159 72 -159 72 -79 c 128,-1,15
 72 1 72 1 77.5 11.5 c 128,-1,16
 83 22 83 22 99 22 c 2,17,-1
 131 22 l 2,18,19
 329 22 329 22 416 25 c 1,20,-1
 416 140 l 2,21,22
 416 489 416 489 402 1173 c 1,23,-1
 252 1173 l 1,24,-1
 86 1170 l 1,25,26
 68 1188 68 1188 64 1195 c 1,27,-1
 64 1394 l 1,28,-1
 65 1447 l 1,29,-1
 65 1479 l 1,30,-1
 64 1492 l 1,31,32
 64 1533 64 1533 76 1547 c 1,33,-1
 158 1547 l 1,34,-1
 348 1545 l 1,35,-1
 490 1546 l 1,36,-1
 560 1546 l 1,37,-1
 633 1547 l 1,38,-1
 880 1537 l 1,39,-1
 880 1466 l 1,40,-1
 879 1417 l 1,41,-1
 879 1242 l 2,42,43
 879 1089 879 1089 870 628 c 1,44,-1
 866 452 l 1,0,-1
880 1537 m 1,45,-1
 880 1547 l 1,46,-1
 890 1537 l 1,47,-1
 880 1537 l 1,45,-1
EndSplineSet
EndChar

StartChar: asciicircum
Encoding: 94 94 65
Width: 1275
Flags: HMW
HStem: 759 21G<871.5 882 882 904> 1517 20G<524 524>
LayerCount: 2
Fore
SplineSet
1007 756 m 1,0,-1
 904 759 l 1,1,-1
 882 759 l 2,2,3
 866.805555556 759 866.805555556 759 843.902777778 807.5 c 128,-1,4
 821 856 821 856 810 880 c 128,-1,5
 799 904 799 904 794 913 c 2,6,-1
 754 995 l 1,7,8
 699 1117 699 1117 647 1218 c 1,9,-1
 439 781 l 1,10,11
 432 774 432 774 429 772 c 1,12,-1
 409 772 l 1,13,-1
 197 770 l 1,14,-1
 170 771 l 2,15,16
 159 771 159 771 155 769 c 1,17,18
 211 895 211 895 307 1087 c 1,19,-1
 384 1248 l 2,20,21
 407 1295 407 1295 453 1391.5 c 128,-1,22
 499 1488 499 1488 522 1535 c 1,23,-1
 524 1537 l 1,24,25
 605 1536 605 1536 687.5 1536 c 128,-1,26
 770 1536 770 1536 776 1537 c 1,27,28
 777 1536 777 1536 780 1518 c 1,29,30
 842 1395 842 1395 969 1149.5 c 128,-1,31
 1096 904 1096 904 1158 782 c 1,32,33
 1146 756 1146 756 1007 756 c 1,0,-1
154 768 m 1,34,-1
 151 761 l 1,35,-1
 145 761 l 1,36,-1
 137 769 l 1,37,-1
 154 768 l 1,34,-1
137 768 m 1,38,-1
 133 768 l 1,39,-1
 134 771 l 1,40,-1
 137 768 l 1,38,-1
154 767 m 1,41,42
 154 762 154 762 151 761 c 1,43,-1
 154 767 l 1,41,42
155 769 m 2,44,-1
 154 768 l 2,45,46
 154 769 154 769 155 769 c 2,44,-1
EndSplineSet
EndChar

StartChar: underscore
Encoding: 95 95 66
Width: 1050
Flags: HMW
HStem: -302 21G<14 14> -277 107 -186 20G<639 758>
LayerCount: 2
Fore
SplineSet
326 -168 m 1,0,-1
 700 -166 l 1,1,2
 924 -166 924 -166 985 -169 c 128,-1,3
 1046 -172 1046 -172 1061 -182 c 128,-1,4
 1076 -192 1076 -192 1076 -232 c 1,5,-1
 1075 -261.5 l 2,6,7
 1075 -279 1075 -279 1059.5 -279 c 2,8,-1
 1048 -279 l 1,9,-1
 980 -278 l 1,10,-1
 938 -278 l 1,11,-1
 894 -277 l 1,12,13
 473 -277 473 -277 14 -302 c 1,14,-1
 -9 -272 l 1,15,-1
 -9 -269 l 1,16,17
 -15 -239 -15 -239 -15 -203.5 c 128,-1,18
 -15 -168 -15 -168 0 -168 c 2,19,-1
 326 -168 l 1,0,-1
1091 -286 m 1,20,-1
 1073 -277 l 1,21,-1
 1074 -275 l 1,22,-1
 1091 -286 l 1,20,-1
EndSplineSet
EndChar

StartChar: grave
Encoding: 96 96 67
Width: 633
Flags: HMW
HStem: 1426 21G<205 205.5> 1426 375<205 362> 1799 20G
LayerCount: 2
Fore
SplineSet
214 1430 m 1,0,-1
 205 1426 l 1,1,2
 203 1428 203 1428 169 1470 c 1,3,-1
 169 1469 l 1,4,-1
 138 1507 l 1,5,6
 49 1614 49 1614 -34 1697.5 c 128,-1,7
 -117 1781 -117 1781 -117 1806 c 0,8,9
 -117 1811 -117 1811 -108 1819 c 1,10,11
 97 1801 97 1801 332 1801 c 2,12,-1
 362 1801 l 1,13,-1
 368 1802 l 1,14,15
 389.791798107 1785.65615142 389.791798107 1785.65615142 471.456243881 1648.26773088 c 0,16,17
 553.120689655 1510.87931034 553.120689655 1510.87931034 573.060344828 1482.43965517 c 128,-1,18
 593 1454 593 1454 593 1442 c 128,-1,19
 593 1430 593 1430 532 1430 c 2,20,-1
 214 1430 l 1,0,-1
EndSplineSet
EndChar

StartChar: a
Encoding: 97 97 68
Width: 1575
Flags: HMW
HStem: -36 21G 958 277<695 778 695 783> 1220 20G<851 866.5> 1221 20G<782.5 789>
LayerCount: 2
Fore
SplineSet
564 664 m 1,0,-1
 574 663 l 1,1,-1
 598 663 l 2,2,3
 632 663 632 663 651 668 c 1,4,-1
 705 675 l 1,5,6
 842.832083958 684.616191904 842.832083958 684.616191904 871 749 c 0,7,8
 885 781 885 781 885 830 c 1,9,10
 879 840 879 840 879 868 c 128,-1,11
 879 896 879 896 850.5 927 c 128,-1,12
 822 958 822 958 783 958 c 2,13,-1
 778 958 l 2,14,15
 682 958 682 958 682 795 c 1,16,17
 677 787 677 787 665.5 789 c 132,-1,18
 654 791 654 791 610 791 c 2,19,-1
 94 791 l 1,20,21
 99 860 99 860 129.5 939.5 c 0,22,23
 188.60764395 1093.56746538 188.60764395 1093.56746538 358.067884807 1161.14363505 c 128,-1,24
 527.528125663 1228.71980471 527.528125663 1228.71980471 695 1235 c 1,25,-1
 755 1238 l 1,26,-1
 787 1241 l 2,27,28
 793 1241 793 1241 799 1238 c 1,29,-1
 812 1238 l 1,30,-1
 857 1240 l 2,31,32
 871 1240 871 1240 920 1233 c 2,33,-1
 949 1229 l 2,34,35
 956 1228 956 1228 971 1228 c 128,-1,36
 986 1228 986 1228 1034 1221.5 c 128,-1,37
 1082 1215 1082 1215 1153.5 1187 c 0,38,39
 1398.12132926 1091.2042347 1398.12132926 1091.2042347 1449.98185012 819.455105386 c 0,40,41
 1472 704.08 1472 704.08 1472 564 c 1,42,43
 1479 541 1479 541 1479 522 c 1,44,-1
 1474 453 l 1,45,-1
 1474 337 l 1,46,47
 1475 335 1475 335 1475 320 c 2,48,-1
 1473 252 l 1,49,-1
 1473 243 l 1,50,51
 1476 238 1476 238 1476 229 c 2,52,-1
 1475 220 l 1,53,-1
 1475 199 l 2,54,55
 1475 104 1475 104 1504 19 c 1,56,-1
 1514 -3 l 1,57,-1
 1062 -3 l 1,58,-1
 1026 -2 l 1,59,60
 986 -2 986 -2 965 -3 c 1,61,62
 933 57 933 57 904 161 c 1,63,64
 891 134 891 134 859.5 99.5 c 128,-1,65
 828 65 828 65 813 65 c 1,66,67
 665 -7 665 -7 588 -17 c 1,68,69
 473.97600333 -36.0039994451 473.97600333 -36.0039994451 465.6239628 -36.0039994451 c 128,-1,70
 457.271922271 -36.0039994451 457.271922271 -36.0039994451 457 -36 c 0,71,72
 217.680473373 -36 217.680473373 -36 96.5 130.5 c 0,73,74
 35 215 35 215 35 327 c 0,75,76
 35 570 35 570 261 625 c 0,77,78
 319 639 319 639 485 654 c 2,79,-1
 518 657 l 1,80,-1
 564 664 l 1,0,-1
892 432 m 1,81,-1
 893 464 l 1,82,83
 893 514 893 514 885 560 c 1,84,85
 863 548 863 548 821 533 c 128,-1,86
 779 518 779 518 754 507.5 c 128,-1,87
 729 497 729 497 708.5 470.5 c 128,-1,88
 688 444 688 444 688 398 c 128,-1,89
 688 352 688 352 717.5 314 c 128,-1,90
 747 276 747 276 782.5 276 c 0,91,92
 856.6 276 856.6 276 889 330 c 5,93,-1
 891 340 l 1,94,-1
 892 402 l 1,95,-1
 892 432 l 1,81,-1
EndSplineSet
EndChar

StartChar: b
Encoding: 98 98 69
Width: 1524
Flags: HMW
HStem: -36 313<690.5 1167> -5 282<39 779> 882 357<695.5 1064> 1537 20G<534.5 637>
LayerCount: 2
Fore
SplineSet
1476 677 m 1,0,-1
 1478 659 l 1,1,-1
 1478 653 l 1,2,-1
 1477 602 l 1,3,4
 1472.11434359 128.091328569 1472.11434359 128.091328569 1172 2.5 c 0,5,6
 1080 -36 1080 -36 960 -36 c 0,7,8
 796 -36 796 -36 640 111 c 1,9,-1
 594 79 l 1,10,-1
 551 -5 l 1,11,-1
 39 -5 l 1,12,-1
 38 775 l 1,13,-1
 38 1555 l 1,14,15
 243 1557 243 1557 637 1557 c 1,16,17
 639 1463 639 1463 639 1330.5 c 128,-1,18
 639 1198 639 1198 637 1080 c 1,19,20
 725 1155 725 1155 824 1197 c 128,-1,21
 923 1239 923 1239 1012 1239 c 0,22,23
 1183 1239 1183 1239 1299 1123 c 1,24,25
 1321.71698113 1103.52830189 1321.71698113 1103.52830189 1333.85849057 1084.76415094 c 128,-1,26
 1346 1066 1346 1066 1352 1061 c 1,27,-1
 1352 1062 l 1,28,-1
 1362 1054 l 1,29,30
 1422.90541325 973.307043025 1422.90541325 973.307043025 1459 842 c 1,31,32
 1477 765 1477 765 1477 726 c 128,-1,33
 1477 687 1477 687 1476 677 c 1,0,-1
858 559 m 2,34,35
 858 655.153846154 858 655.153846154 839 734.076923077 c 0,36,37
 803.388888889 882 803.388888889 882 729 882 c 0,38,39
 668.565217391 882 668.565217391 882 635.782608696 787.75 c 0,40,41
 603 693.5 603 693.5 603 524 c 0,42,43
 603 408.444444444 603 408.444444444 662.5 322.5 c 0,44,45
 694 277 694 277 729.5 277 c 128,-1,46
 765 277 765 277 791 303.5 c 128,-1,47
 817 330 817 330 837.5 391.5 c 0,48,49
 858 453 858 453 858 491.5 c 128,-1,50
 858 530 858 530 857 533 c 1,51,-1
 857 535 l 1,52,53
 858 539 858 539 858 546 c 2,54,-1
 858 559 l 2,34,35
EndSplineSet
EndChar

StartChar: c
Encoding: 99 99 70
Width: 1520
Flags: HMW
HStem: -36 380<718.5 723.5> -35 21G<801.5 850.5> 892 348
LayerCount: 2
Fore
SplineSet
786 -31 m 1,0,-1
 706 -36 l 1,1,2
 645 -36 645 -36 586 -22 c 1,3,4
 546.25 -22 546.25 -22 478 -1 c 1,5,6
 249.72737069 52.7112068966 249.72737069 52.7112068966 138 186 c 1,7,-1
 120 207 l 1,8,9
 33 319 33 319 7 508 c 2,10,-1
 4 529 l 2,11,12
 0 561 0 561 0 605.5 c 128,-1,13
 0 650 0 650 17 726 c 0,14,15
 79.9345213427 1007.35433071 79.9345213427 1007.35433071 282 1114 c 2,16,-1
 417 1186 l 1,17,18
 567.428571429 1240 567.428571429 1240 791 1240 c 0,19,20
 876 1240 876 1240 948 1218 c 2,21,-1
 968 1212 l 2,22,23
 967 1212 967 1212 967 1213 c 1,24,-1
 969 1213 l 1,25,26
 1307.74736842 1122.66736842 1307.74736842 1122.66736842 1420 915 c 1,27,-1
 1422 908 l 1,28,29
 1472 807 1472 807 1489 682 c 1,30,-1
 1466 690 l 1,31,-1
 840 690 l 1,32,-1
 835 727 l 2,33,34
 819 842 819 842 781 880 c 1,35,-1
 761 892 l 1,36,37
 673.283950617 886.152263374 673.283950617 886.152263374 662.5 652.5 c 0,38,39
 661 620 661 620 659 614 c 1,40,-1
 660 581.5 l 1,41,-1
 663 524.5 l 2,42,43
 663 517 663 517 664 509 c 1,44,-1
 674 499 l 1,45,-1
 663 499 l 1,46,47
 668.339694656 424.244274809 668.339694656 424.244274809 694.669847328 384.122137405 c 128,-1,48
 721 344 721 344 748 344 c 0,49,50
 799.101694915 344 799.101694915 344 818.050847458 406.111111111 c 128,-1,51
 837 468.222222222 837 468.222222222 837 519 c 1,52,53
 914 523 914 523 1069 523 c 2,54,-1
 1107 523 l 1,55,-1
 1203 522 l 1,56,-1
 1299 522 l 1,57,-1
 1492 521 l 1,58,59
 1461.13901345 200.04573991 1461.13901345 200.04573991 1189 67 c 1,60,61
 1169 60 1169 60 1134 44 c 2,62,-1
 1096 26 l 1,63,64
 937 -35 937 -35 805 -35 c 0,65,66
 791 -35 791 -35 786 -31 c 1,0,-1
EndSplineSet
EndChar

StartChar: d
Encoding: 100 100 71
Width: 1528
Flags: HMW
HStem: -36 311<373.5 786.5> 880 359<517 810> 1534 20G<874 1172 1172 1221> 1535 20G<1422.5 1472>
LayerCount: 2
Fore
SplineSet
871 1188 m 1,0,-1
 874 1289 l 1,1,-1
 874 1554 l 1,2,-1
 1172 1554 l 1,3,-1
 1472 1555 l 1,4,5
 1473 -6 l 1,6,-1
 963 -6 l 1,7,8
 942 28 942 28 932 57 c 1,9,-1
 892 127 l 1,10,11
 796 42 796 42 711.5 3 c 128,-1,12
 627 -36 627 -36 504 -36 c 0,13,14
 305 -36 305 -36 169 122 c 128,-1,15
 33 280 33 280 33 527 c 0,16,17
 33 690 33 690 70 835 c 1,18,19
 110.441622964 974.523599227 110.441622964 974.523599227 199.327046745 1096.10251222 c 128,-1,20
 288.212470527 1217.6814252 288.212470527 1217.6814252 431 1234 c 1,21,-1
 446 1233 l 1,22,-1
 531 1239 l 1,23,24
 653.444444444 1239 653.444444444 1239 808 1132 c 1,25,-1
 829 1119 l 1,26,-1
 828 1120 l 1,27,28
 851 1105 851 1105 857 1098 c 1,29,-1
 888 1112 l 1,30,31
 871 1163 871 1163 871 1182 c 2,32,-1
 871 1188 l 1,0,-1
657 573 m 1,33,-1
 656 538.5 l 1,34,-1
 656 510 l 2,35,36
 656 455 656 455 677 397 c 1,37,-1
 676 398 l 1,38,39
 683 368 683 368 716 321.5 c 128,-1,40
 749 275 749 275 783 275 c 0,41,42
 796 275 796 275 804 280 c 1,43,44
 907.95277704 324.724863687 907.95277704 324.724863687 907.95277704 560.432430221 c 0,45,46
 907.95277704 723.221508064 907.95277704 723.221508064 854 820.5 c 0,47,48
 821 880 821 880 781.5 880 c 128,-1,49
 742 880 742 880 712 820.5 c 0,50,51
 657 711.416666667 657 711.416666667 657 573 c 1,33,-1
EndSplineSet
EndChar

StartChar: e
Encoding: 101 101 72
Width: 1475
Flags: HMW
HStem: -36 21G<671.5 681> -33 474<776 1421> 580 132<722 852 722 1427 603 852> 958 281<662.5 785.5>
LayerCount: 2
Fore
SplineSet
553 1226 m 1,0,1
 598.5 1239 598.5 1239 649.25 1239 c 128,-1,2
 700 1239 700 1239 746 1235 c 2,3,-1
 788 1231 l 2,4,5
 886.694444444 1222.02777778 886.694444444 1222.02777778 940 1208 c 1,6,-1
 940 1209 l 1,7,-1
 961 1200 l 1,8,9
 1171 1135 1171 1135 1288 1002 c 1,10,-1
 1288 1003 l 1,11,12
 1315 971 1315 971 1354.5 906.5 c 128,-1,13
 1394 842 1394 842 1394 817 c 1,14,-1
 1402 790 l 1,15,-1
 1407 761 l 1,16,17
 1426 694 1426 694 1426 649 c 128,-1,18
 1426 604 1426 604 1427 580 c 1,19,-1
 603 580 l 1,20,-1
 603 547 l 1,21,22
 609 524 609 524 609 499 c 128,-1,23
 609 474 609 474 609.5 459.5 c 128,-1,24
 610 445 610 445 612 431.5 c 128,-1,25
 614 418 614 418 614.5 409.5 c 128,-1,26
 615 401 615 401 619 389.5 c 128,-1,27
 623 378 623 378 623.5 374 c 128,-1,28
 624 370 624 370 629.5 358 c 128,-1,29
 635 346 635 346 638.5 335.5 c 128,-1,30
 642 325 642 325 652 315 c 1,31,-1
 652 316 l 1,32,-1
 663 295 l 1,33,34
 682 274 682 274 715 265 c 1,35,36
 770.493181818 277.331818182 770.493181818 277.331818182 789.508885991 321.977384501 c 128,-1,37
 808.524590164 366.62295082 808.524590164 366.62295082 822 434 c 1,38,39
 858 444 858 444 924 444 c 1,40,-1
 1052 441 l 1,41,-1
 1421 441 l 1,42,43
 1409 319 1409 319 1349 217 c 1,44,-1
 1350 217 l 1,45,46
 1298 135 1298 135 1188.5 75.5 c 1,47,48
 876.54454935 -33.387366305 876.54454935 -33.387366305 788.683664462 -33.387366305 c 0,49,50
 772.54946522 -33.387366305 772.54946522 -33.387366305 763 -31 c 1,51,-1
 740 -31 l 1,52,-1
 731 -32 l 1,53,-1
 722 -32 l 2,54,55
 714 -32 714 -32 702 -30 c 1,56,57
 692 -36 692 -36 678 -36 c 1,58,-1
 591 -26 l 1,59,60
 583.5 -29 583.5 -29 562.25 -29 c 128,-1,61
 541 -29 541 -29 450 -2 c 1,62,-1
 450 -3 l 1,63,-1
 426 4 l 1,64,-1
 402 12 l 1,65,66
 252 56 252 56 145 166.5 c 128,-1,67
 38 277 38 277 8 424 c 0,68,69
 5 442 5 442 -3 478.5 c 128,-1,70
 -11 515 -11 515 -11 527.5 c 2,71,-1
 -11 576 l 2,72,73
 -11 593 -11 593 -10 602 c 1,74,-1
 -10 617 l 2,75,76
 -10 829 -10 829 115.85204171 983.39268027 c 128,-1,77
 241.704083421 1137.78536054 241.704083421 1137.78536054 454 1201 c 1,78,-1
 478 1208 l 1,79,80
 531 1217 531 1217 554 1227 c 1,81,-1
 553 1226 l 1,0,1
852 712 m 1,82,-1
 873 725 l 1,83,84
 855.512690355 833.421319797 855.512690355 833.421319797 840.756345178 863.710659898 c 128,-1,85
 826 894 826 894 812.5 915.5 c 0,86,87
 785.813953488 958 785.813953488 958 743.406976744 958 c 128,-1,88
 701 958 701 958 671 916 c 0,89,90
 617.814516129 841.540322581 617.814516129 841.540322581 604 708 c 1,91,92
 668 712 668 712 722 712 c 2,93,-1
 852 712 l 1,82,-1
EndSplineSet
EndChar

StartChar: f
Encoding: 102 102 73
Width: 893
Flags: HMW
HStem: -2 21G<407.5 492> -1 21G<627.5 665> 833 302 1551 20G<442 530.5>
VStem: 161 504<0 833 -1 834 -1 834>
LayerCount: 2
Fore
SplineSet
164 1173 m 1,0,-1
 162 1253 l 1,1,2
 162 1301 162 1301 195.5 1392 c 128,-1,3
 229 1483 229 1483 286 1533 c 1,4,5
 339 1571 339 1571 497.5 1571 c 128,-1,6
 656 1571 656 1571 832 1568 c 1,7,-1
 832 1355 l 1,8,-1
 798 1355 l 2,9,10
 762 1355 762 1355 746 1356 c 1,11,12
 667 1326.74074074 667 1326.74074074 667 1190 c 1,13,14
 669 1184 669 1184 669 1181.5 c 128,-1,15
 669 1179 669 1179 668 1175 c 1,16,-1
 668 1147 l 1,17,18
 700 1141 700 1141 742 1141 c 2,19,-1
 787 1141 l 2,20,21
 813 1141 813 1141 828 1140 c 1,22,-1
 828 833 l 1,23,-1
 665 833 l 1,24,-1
 665 -1 l 1,25,-1
 456 -2 l 2,26,27
 363 -2 363 -2 161 0 c 1,28,-1
 161 834 l 1,29,-1
 47 834 l 1,30,-1
 46 985 l 1,31,-1
 46 1135 l 1,32,-1
 164 1135 l 1,33,-1
 164 1173 l 1,0,-1
EndSplineSet
EndChar

StartChar: g
Encoding: 103 103 74
Width: 1599
Flags: HMW
HStem: -461 357<688.5 880> -461 498<688.5 713.5> -460 21G<793.5 860> 22 21G<1523.5 1524> 34 21G<126.5 170.5> 144 250<434 864.5> 972 224<773 1269> 972 268<432 890>
LayerCount: 2
Fore
SplineSet
932 126 m 2,0,-1
 936 184 l 1,1,2
 936 199 936 199 927 265 c 1,3,4
 914 242 914 242 891.5 219 c 128,-1,5
 869 196 869 196 854 192 c 1,6,7
 745 144 745 144 589.5 144 c 128,-1,8
 434 144 434 144 310.5 207.5 c 128,-1,9
 187 271 187 271 112.5 391 c 128,-1,10
 38 511 38 511 38 647 c 128,-1,11
 38 783 38 783 78.5 888.5 c 128,-1,12
 119 994 119 994 191.5 1072 c 128,-1,13
 264 1150 264 1150 371 1195 c 128,-1,14
 478 1240 478 1240 605 1240 c 0,15,16
 808 1240 808 1240 944 1127 c 1,17,18
 969.1875 1099.875 969.1875 1099.875 996 1082 c 1,19,-1
 1010 1126 l 1,20,-1
 1010 1196 l 1,21,-1
 1269 1196 l 1,22,-1
 1529 1197 l 1,23,-1
 1530 264 l 2,24,25
 1530 247 1530 247 1528 211 c 1,26,-1
 1528 207 l 1,27,28
 1527 188 1527 188 1527 147 c 2,29,-1
 1527 136 l 1,30,-1
 1529 83 l 1,31,-1
 1523 27 l 2,32,33
 1523 22 1523 22 1523.5 21 c 128,-1,34
 1523.9047619 20.1904761905 1523.9047619 20.1904761905 1514.94526379 -23.655661197 c 128,-1,35
 1505.98576567 -67.5017985844 1505.98576567 -67.5017985844 1493 -102 c 0,36,37
 1452 -212 1452 -212 1330 -302.5 c 128,-1,38
 1208 -393 1208 -393 1118 -406 c 1,39,40
 1108 -416 1108 -416 1079 -421.5 c 128,-1,41
 1050 -427 1050 -427 1044 -429 c 1,42,-1
 1044 -428 l 1,43,44
 947 -460 947 -460 858.5 -460 c 128,-1,45
 770 -460 770 -460 767 -458 c 1,46,-1
 737 -458 l 1,47,48
 728 -461 728 -461 689.5 -461 c 128,-1,49
 651 -461 651 -461 549 -438 c 2,50,-1
 517 -431 l 2,51,52
 443.758064516 -415.580645161 443.758064516 -415.580645161 384 -388 c 1,53,54
 242 -331 242 -331 161 -236 c 128,-1,55
 80 -141 80 -141 51 27 c 1,56,-1
 49 36 l 1,57,58
 81 34 81 34 143 34 c 1,59,-1
 307 37 l 1,60,-1
 750 37 l 1,61,-1
 749 33 l 1,62,63
 749 -19 749 -19 771.5 -61.5 c 128,-1,64
 794 -104 794 -104 831 -104 c 0,65,66
 896.384615385 -104 896.384615385 -104 919 -30.5 c 0,67,68
 937 28 937 28 937 93 c 2,69,-1
 937 113 l 1,70,71
 934 113 934 113 934 109 c 1,72,73
 932 112 932 112 932 126 c 2,0,-1
960 670 m 1,74,-1
 961 682 l 1,75,76
 952.212121212 972 952.212121212 972 833 972 c 0,77,78
 799 972 799 972 773 947 c 0,79,80
 731.346216658 906.948285248 731.346216658 906.948285248 715.673108329 826.738848506 c 128,-1,81
 700 746.529411765 700 746.529411765 700 688 c 1,82,-1
 703 653 l 1,83,-1
 703 644 l 1,84,-1
 702 637 l 1,85,-1
 702 631 l 2,86,87
 702 549 702 549 741 471.5 c 128,-1,88
 780 394 780 394 840 394 c 0,89,90
 906 394 906 394 950 558 c 1,91,-1
 945 558 l 1,92,93
 960 597 960 597 960 638 c 2,94,-1
 960 670 l 1,74,-1
EndSplineSet
EndChar

StartChar: h
Encoding: 104 104 75
Width: 1438
Flags: HMW
HStem: -1 21G<41 326 41 41 807 1375 807 807> 0 21G<563 613> 802 437<663.5 1031> 1550 20G<519.5 619>
LayerCount: 2
Fore
SplineSet
1373 665 m 1,0,-1
 1374 354 l 1,1,-1
 1374 171 l 1,2,-1
 1375 -1 l 1,3,-1
 807 -1 l 1,4,-1
 806 511 l 1,5,-1
 809 622 l 1,6,7
 809 713 809 713 782.5 757.5 c 128,-1,8
 756 802 756 802 717 802 c 0,9,10
 643.123287671 802 643.123287671 802 625 728.5 c 0,11,12
 612 675.777777778 612 675.777777778 612 592 c 2,13,-1
 612 464 l 1,14,-1
 613 422 l 1,15,-1
 613 0 l 1,16,-1
 326 -1 l 1,17,-1
 41 -1 l 1,18,-1
 40 783 l 1,19,-1
 40 1568 l 1,20,21
 241 1570 241 1570 619 1570 c 1,22,-1
 620 1066 l 1,23,24
 690 1145 690 1145 790.5 1192 c 128,-1,25
 891 1239 891 1239 974 1239 c 128,-1,26
 1057 1239 1057 1239 1137 1199 c 128,-1,27
 1217 1159 1217 1159 1269 1093 c 1,28,29
 1313 1024 1313 1024 1344 926.5 c 128,-1,30
 1375 829 1375 829 1375 764 c 1,31,-1
 1373 665 l 1,0,-1
EndSplineSet
EndChar

StartChar: i
Encoding: 105 105 76
Width: 764
Flags: HMW
HStem: -5 21G<224.5 251> 1304 272<65 172.5 52 681 65 65> 1566 20G<62 62>
LayerCount: 2
Fore
SplineSet
680 1578 m 1,0,-1
 681 1304 l 1,1,-1
 65 1304 l 1,2,3
 65 1400 65 1400 63 1441 c 1,4,-1
 62 1576 l 1,5,-1
 680 1578 l 1,0,-1
52 1576 m 1,6,-1
 62 1586 l 1,7,-1
 62 1576 l 1,8,-1
 52 1576 l 1,6,-1
684 317 m 1,9,-1
 685 308 l 1,10,-1
 686 158 l 2,11,12
 686 117 686 117 682 60 c 128,-1,13
 678 3 678 3 675 1 c 1,14,-1
 657 -1 l 1,15,-1
 293 -1 l 1,16,-1
 251 -5 l 1,17,18
 94.8186581805 -4.9786656683 94.8186581805 -4.9786656683 61 -1 c 1,19,-1
 61 6 l 1,20,-1
 60 25 l 1,21,-1
 60 70 l 2,22,23
 60 267 60 267 66 397 c 1,24,-1
 77 1167 l 1,25,-1
 77 1197 l 1,26,-1
 155 1198 l 1,27,-1
 172 1197 l 1,28,-1
 201 1197 l 1,29,-1
 226 1196 l 1,30,-1
 239 1197 l 1,31,-1
 311 1197 l 1,32,-1
 326 1198 l 1,33,-1
 667 1194 l 1,34,35
 671 1195 671 1195 673 1195 c 128,-1,36
 675 1195 675 1195 675 1189 c 2,37,-1
 676 1094 l 2,38,39
 677 999 677 999 680 839.25 c 0,40,41
 683 679.5 683 679.5 683 614 c 2,42,-1
 682 489 l 1,43,-1
 682 436 l 1,44,-1
 685 383 l 1,45,-1
 685 352 l 2,46,47
 685 351 685 351 684 348 c 1,48,-1
 684 317 l 1,9,-1
EndSplineSet
EndChar

StartChar: j
Encoding: 106 106 77
Width: 918
Flags: HMW
HStem: -536 21G<132 146> -535 409<39 404> 1294 260<254 543 543 590.5 251 836 254 254> 1535 20G<786.5 835>
LayerCount: 2
Fore
SplineSet
254 1294 m 1,0,-1
 251 1554 l 1,1,-1
 543 1554 l 1,2,-1
 835 1555 l 1,3,-1
 836 1294 l 1,4,-1
 254 1294 l 1,0,-1
64 -532 m 1,5,6
 34.6428571429 -512.428571429 34.6428571429 -512.428571429 41 -487 c 1,7,-1
 41 -484 l 1,8,9
 44 -472 44 -472 44 -469 c 2,10,-1
 44 -450 l 1,11,-1
 47 -354 l 1,12,-1
 47 -126 l 1,13,-1
 80 -126 l 2,14,15
 205.666666667 -126 205.666666667 -126 234.5 -39.5 c 0,16,17
 248 1 248 1 248 66 c 2,18,-1
 248 81 l 1,19,-1
 250 208 l 1,20,-1
 250 1196 l 1,21,-1
 542 1196 l 1,22,-1
 835 1197 l 1,23,24
 838 552 838 552 838 -108 c 2,25,-1
 838 -112 l 1,26,27
 841 -131.5 841 -131.5 841 -151 c 0,28,29
 841 -234 841 -234 806.5 -323.5 c 128,-1,30
 772 -413 772 -413 717 -451 c 1,31,-1
 718 -451 l 1,32,33
 590 -535 590 -535 340 -535 c 1,34,-1
 234 -532 l 1,35,-1
 228 -532 l 1,36,-1
 222 -533 l 1,37,-1
 204 -533 l 2,38,39
 198 -533 198 -533 194 -531 c 1,40,-1
 176 -531 l 1,41,42
 161 -536 161 -536 143 -536 c 128,-1,43
 125 -536 125 -536 101 -534 c 1,44,-1
 95 -534 l 1,45,46
 77 -532 77 -532 64 -532 c 1,5,6
47 -126 m 1,47,-1
 39 -126 l 1,48,-1
 47 -116 l 1,49,-1
 47 -126 l 1,47,-1
EndSplineSet
EndChar

StartChar: k
Encoding: 107 107 78
Width: 1632
Flags: HMW
HStem: -2 21G<330.5 438.5> -1 21G<871 1559 871 871> 1549 20G<20 338 338 391> 1550 20G<601 656>
LayerCount: 2
Fore
SplineSet
1367 1198 m 1,0,-1
 1386 1197 l 1,1,-1
 1463 1197 l 2,2,3
 1469 1197 1469 1197 1480.5 1198 c 128,-1,4
 1492 1199 1492 1199 1500 1199 c 1,5,6
 1491.23798318 1152.29412964 1491.23798318 1152.29412964 1441 1073 c 1,7,8
 1424.2 1053.4 1424.2 1053.4 1410 1025 c 1,9,-1
 1410 1026 l 1,10,11
 1359 949 1359 949 1218 704 c 1,12,13
 1290 549 1290 549 1348 430.5 c 128,-1,14
 1406 312 1406 312 1438 246 c 2,15,-1
 1559 -1 l 1,16,-1
 871 -1 l 1,17,-1
 802 205 l 1,18,19
 760 327 760 327 699 527 c 1,20,-1
 661 441 l 1,21,-1
 661 1 l 1,22,23
 564 -2 564 -2 352 -2 c 128,-1,24
 140 -2 140 -2 20 0 c 1,25,-1
 20 1569 l 1,26,-1
 338 1569 l 1,27,-1
 656 1570 l 1,28,29
 656 1449 656 1449 658.5 1135 c 128,-1,30
 661 821 661 821 661 694 c 1,31,-1
 699 806 l 1,32,33
 735 921 735 921 831 1198 c 1,34,-1
 1367 1198 l 1,0,-1
EndSplineSet
EndChar

StartChar: l
Encoding: 108 108 79
Width: 770
Flags: HMW
HStem: -1 21G<64 676 64 64> 1550 20G<62 107> 1551 20G<273 376.5>
LayerCount: 2
Fore
SplineSet
62 1570 m 1,0,-1
 316 1571 l 2,1,2
 432 1571 432 1571 676 1569 c 1,3,-1
 676 -1 l 1,4,-1
 64 -1 l 1,5,-1
 62 1570 l 1,0,-1
EndSplineSet
EndChar

StartChar: m
Encoding: 109 109 80
Width: 2224
Flags: HMW
HStem: -1 21G<32 352 32 32 845 1122 845 845 1570 2176 1570 1570> 0 21G<618 674 1351.5 1400> 754 485<904.5 1525>
LayerCount: 2
Fore
SplineSet
1349 996 m 1,0,1
 1534.93181818 1239 1534.93181818 1239 1720.20487968 1239 c 128,-1,2
 1905.47794118 1239 1905.47794118 1239 2045.5 1102 c 0,3,4
 2114.72981993 1034.40499162 2114.72981993 1034.40499162 2139 951 c 1,5,-1
 2146 924 l 1,6,7
 2173 829.5 2173 829.5 2173 807.25 c 128,-1,8
 2173 785 2173 785 2169 771 c 1,9,10
 2176 765 2176 765 2176 753 c 2,11,-1
 2174 714 l 1,12,13
 2176 642 2176 642 2176 613 c 2,14,-1
 2176 -1 l 1,15,-1
 1570 -1 l 1,16,-1
 1569 587 l 1,17,-1
 1570 609 l 1,18,19
 1570 754 1570 754 1489 754 c 0,20,21
 1398 754 1398 754 1398 594 c 1,22,-1
 1400 525 l 1,23,-1
 1400 0 l 1,24,-1
 1122 -1 l 1,25,-1
 845 -1 l 1,26,-1
 844 536 l 1,27,-1
 846 601 l 1,28,29
 846 731 846 731 766 755 c 1,30,31
 672 750 672 750 672 610 c 1,32,-1
 674 550 l 1,33,-1
 674 0 l 1,34,-1
 352 -1 l 1,35,-1
 32 -1 l 1,36,-1
 31 600 l 1,37,-1
 31 1197 l 1,38,-1
 305 1198 l 1,39,-1
 580 1198 l 1,40,-1
 587 1174 l 1,41,42
 624 1043 624 1043 643 970 c 1,43,44
 708 1082 708 1082 794.5 1160.5 c 128,-1,45
 881 1239 881 1239 967 1239 c 0,46,47
 994 1239 994 1239 1021 1239 c 0,48,49
 1108 1239 1108 1239 1199 1167.5 c 128,-1,50
 1290 1096 1290 1096 1349 996 c 1,0,1
EndSplineSet
EndChar

StartChar: n
Encoding: 110 110 81
Width: 1460
Flags: HMW
HStem: -1 21G<51 350 51 51 812 1397 812 812> 0 21G<596 648> 754 442<316 769> 754 486<695 1123>
LayerCount: 2
Fore
SplineSet
316 1196 m 1,0,-1
 584 1197 l 1,1,2
 589 1176 589 1176 602 1131 c 128,-1,3
 615 1086 615 1086 627 1041 c 2,4,-1
 646 966 l 1,5,6
 686 1067 686 1067 695 1078 c 2,7,-1
 711 1098 l 1,8,9
 811.84057971 1240 811.84057971 1240 1021 1240 c 0,10,11
 1120 1240 1120 1240 1209.5 1180.5 c 128,-1,12
 1299 1121 1299 1121 1349 1025.5 c 128,-1,13
 1399 930 1399 930 1399 824 c 0,14,15
 1399 812 1399 812 1396 805 c 1,16,-1
 1396 190 l 1,17,-1
 1397 -1 l 1,18,-1
 812 -1 l 1,19,-1
 810 499 l 1,20,-1
 814 601 l 1,21,22
 814 754 814 754 733 754 c 0,23,24
 646 754 646 754 646 609 c 0,25,26
 646 577 646 577 647 565 c 1,27,-1
 647 550 l 1,28,-1
 648 533 l 1,29,-1
 648 0 l 1,30,-1
 350 -1 l 1,31,-1
 51 -1 l 1,32,-1
 50 599 l 1,33,-1
 50 1197 l 1,34,-1
 316 1196 l 1,0,-1
EndSplineSet
EndChar

StartChar: o
Encoding: 111 111 82
Width: 1569
Flags: HMW
HStem: -36 334<738 829.5 738 897> 897 342<794 823.5> 1218 20G<707 707 757.5 759.5 765 765>
LayerCount: 2
Fore
SplineSet
1513 605 m 1,0,1
 1511 595 1511 595 1511 593 c 2,2,-1
 1511 585 l 1,3,4
 1508 420 1508 420 1435 288 c 1,5,-1
 1436 288 l 1,6,7
 1334 132 1334 132 1151.5 48 c 128,-1,8
 969 -36 969 -36 792 -36 c 128,-1,9
 615 -36 615 -36 498.295454545 -1.5303030303 c 128,-1,10
 381.590909091 32.9393939394 381.590909091 32.9393939394 282.795454545 98.9696969697 c 128,-1,11
 184 165 184 165 135.5 226.5 c 0,12,13
 22 370.422680412 22 370.422680412 22 633 c 0,14,15
 22 642 22 642 25 648 c 1,16,-1
 25 664 l 1,17,18
 22 668 22 668 22 672 c 2,19,-1
 24 683 l 1,20,-1
 23 683 l 1,21,22
 42 858 42 858 97 913 c 1,23,24
 97 924 97 924 111 938 c 1,25,-1
 111 937 l 1,26,-1
 126 961 l 1,27,28
 243.566775244 1111.84039088 243.566775244 1111.84039088 396 1168 c 2,29,-1
 431 1181 l 1,30,31
 497 1213 497 1213 616 1229 c 1,32,-1
 648 1232 l 2,33,34
 655 1233 655 1233 676.68627451 1233.7745098 c 128,-1,35
 698.37254902 1234.54901961 698.37254902 1234.54901961 707 1238 c 1,36,-1
 750 1237 l 1,37,38
 753 1238 753 1238 757 1238 c 128,-1,39
 761 1238 761 1238 766 1237 c 1,40,-1
 765 1238 l 1,41,42
 771 1235 771 1235 783 1235 c 1,43,44
 787 1239 787 1239 797 1239 c 0,45,46
 1014 1239 1014 1239 1166 1150 c 1,47,-1
 1186 1141 l 1,48,49
 1513 984 1513 984 1513 605 c 1,0,1
891 599 m 1,50,51
 887.029144768 797.542761586 887.029144768 797.542761586 833.5 868.5 c 0,52,53
 812 897 812 897 780.5 897 c 128,-1,54
 749 897 749 897 725 860.5 c 128,-1,55
 701 824 701 824 686.5 745.976190476 c 128,-1,56
 672 667.952380952 672 667.952380952 672 607.476190476 c 128,-1,57
 672 547 672 547 677.5 503.5 c 128,-1,58
 683 460 683 460 694 411.5 c 128,-1,59
 705 363 705 363 728 330.5 c 128,-1,60
 751 298 751 298 780 298 c 0,61,62
 891 298 891 298 891 599 c 1,50,51
EndSplineSet
EndChar

StartChar: p
Encoding: 112 112 83
Width: 1552
Flags: HMW
HStem: -318 21G<35 338 35 35> -317 21G<589.5 642> 905 292<292 788.5> 905 334<702.5 1197.5>
LayerCount: 2
Fore
SplineSet
34 1196 m 1,0,-1
 292 1197 l 1,1,-1
 553 1197 l 1,2,3
 572 1158 572 1158 587 1131 c 2,4,-1
 625 1061 l 1,5,6
 731 1158 731 1158 820.5 1198.5 c 128,-1,7
 910 1239 910 1239 1016 1239 c 128,-1,8
 1122 1239 1122 1239 1205.5 1200 c 0,9,10
 1353.93856871 1130.66941102 1353.93856871 1130.66941102 1425.46928436 965.751372176 c 128,-1,11
 1497 800.833333333 1497 800.833333333 1497 614 c 0,12,13
 1497 590 1497 590 1493 570 c 1,14,15
 1477 396 1477 396 1432.5 281.5 c 128,-1,16
 1388 167 1388 167 1276 64 c 1,17,-1
 1276 65 l 1,18,19
 1176 -21 1176 -21 1086 -21 c 1,20,21
 1060 -33 1060 -33 1033.5 -33 c 128,-1,22
 1007 -33 1007 -33 959.5 -26.5 c 128,-1,23
 912 -20 912 -20 897 -12 c 1,24,25
 758.079295154 17.768722467 758.079295154 17.768722467 672 106 c 1,26,-1
 634 105 l 1,27,28
 643 48 643 48 643 7 c 1,29,-1
 642 -11 l 1,30,-1
 642 -317 l 1,31,-1
 338 -318 l 1,32,-1
 35 -318 l 1,33,-1
 34 439 l 1,34,-1
 34 1196 l 1,0,-1
871 503 m 2,35,-1
 876 566 l 1,36,37
 875 567 875 567 875 570 c 128,-1,38
 875 573 875 573 876 575 c 1,39,-1
 876 592 l 2,40,41
 876 641 876 641 872 673 c 2,42,-1
 866 715 l 2,43,44
 864 725 864 725 855 776 c 0,45,46
 831 905 831 905 754 905 c 0,47,48
 630 905 630 905 630 579 c 0,49,50
 630 399.942307692 630 399.942307692 685 318.5 c 0,51,52
 711 280 711 280 749 271 c 1,53,54
 853 280 853 280 871 503 c 2,35,-1
EndSplineSet
EndChar

StartChar: q
Encoding: 113 113 84
Width: 1556
Flags: HMW
HStem: -319 21G<890 1498 890 890> 1220 20G<490.5 564>
LayerCount: 2
Fore
SplineSet
1493 858 m 1,0,1
 1498 -319 l 1,2,-1
 890 -319 l 1,3,-1
 889 120 l 1,4,5
 837 96 837 96 804 69 c 1,6,7
 760 25 760 25 670 -3.5 c 128,-1,8
 580 -32 580 -32 504 -32 c 0,9,10
 373 -32 373 -32 264.5 49 c 128,-1,11
 156 130 156 130 98 253.5 c 128,-1,12
 40 377 40 377 40 511 c 1,13,14
 33 524 33 524 33 541 c 128,-1,15
 33 558 33 558 39 579 c 1,16,17
 34 588 34 588 34 593 c 0,18,19
 34 718 34 718 70.842046794 844.156599577 c 128,-1,20
 107.684093588 970.313199153 107.684093588 970.313199153 178 1062 c 1,21,22
 331 1240 331 1240 564 1240 c 1,23,24
 605 1236 605 1236 669 1222 c 128,-1,25
 733 1208 733 1208 750 1190 c 1,26,27
 806 1164 806 1164 873 1089 c 1,28,-1
 885 1078 l 1,29,-1
 912 1061 l 1,30,31
 929.333333333 1104.33333333 929.333333333 1104.33333333 942.666666667 1129.66666667 c 128,-1,32
 956 1155 956 1155 960 1164 c 2,33,-1
 970 1185 l 2,34,35
 970 1186 970 1186 975.5 1195 c 128,-1,36
 981 1204 981 1204 982 1207 c 1,37,38
 1050 1197 1050 1197 1492 1197 c 1,39,-1
 1493 858 l 1,0,1
909 547 m 1,40,-1
 911 592 l 1,41,42
 911 879.621621622 911 879.621621622 789 906 c 1,43,44
 731.972477064 897.853211009 731.972477064 897.853211009 712.596262982 855.731006483 c 128,-1,45
 693.2200489 813.608801956 693.2200489 813.608801956 685.61002445 773.804400978 c 128,-1,46
 678 734 678 734 669.5 698.454545455 c 128,-1,47
 661 662.909090909 661 662.909090909 661 617 c 2,48,-1
 661 570 l 2,49,50
 661 304 661 304 780 271 c 1,51,52
 826.795698925 274.899641577 826.795698925 274.899641577 844.897849462 296.449820789 c 0,53,54
 876.198324022 333.712290503 876.198324022 333.712290503 893 411 c 1,55,-1
 910 533 l 1,56,-1
 909 547 l 1,40,-1
EndSplineSet
EndChar

StartChar: r
Encoding: 114 114 85
Width: 1186
Flags: HMW
HStem: -1 21G<45 400 45 45> 0 21G<694 756> 1220 20G<1066 1070>
LayerCount: 2
Fore
SplineSet
44 1197 m 1,0,-1
 310 1198 l 1,1,-1
 576 1198 l 1,2,-1
 598 1064 l 2,3,4
 621 923 621 923 625 904 c 1,5,-1
 660 904 l 1,6,7
 697 1075 697 1075 802 1147 c 1,8,-1
 842 1170 l 1,9,10
 845 1176 845 1176 878 1192 c 1,11,-1
 874 1191 l 1,12,-1
 897 1200 l 2,13,14
 995 1239 995 1239 1066 1240 c 0,15,16
 1081 1240 1081 1240 1086 1238 c 1,17,-1
 1123 1238 l 1,18,-1
 1123 680 l 1,19,20
 1102 685 1102 685 1057 685 c 128,-1,21
 1012 685 1012 685 964.5 672 c 128,-1,22
 917 659 917 659 884.5 638.5 c 128,-1,23
 852 618 852 618 828 586 c 0,24,25
 754 487.333333333 754 487.333333333 754 289 c 1,26,-1
 756 184 l 1,27,-1
 756 0 l 1,28,-1
 400 -1 l 1,29,-1
 45 -1 l 1,30,-1
 44 596 l 1,31,-1
 44 1197 l 1,0,-1
EndSplineSet
EndChar

StartChar: s
Encoding: 115 115 86
Width: 1638
Flags: HMW
HStem: -36 252<695 872.5 854 872.5 795 883> -36 372<601 751 601 883> -35 21G<758.5 760 760 833> 938 302 1015 225<771 819 770.5 831>
LayerCount: 2
Fore
SplineSet
1273 937 m 1,0,-1
 1182 938 l 2,1,2
 1101 938 1101 938 931 936 c 1,3,4
 919 969 919 969 882.5 992 c 128,-1,5
 846 1015 846 1015 802 1015 c 128,-1,6
 758 1015 758 1015 730 995.5 c 128,-1,7
 702 976 702 976 702 941 c 128,-1,8
 702 906 702 906 728.5 878 c 128,-1,9
 755 850 755 850 803 838.5 c 128,-1,10
 851 827 851 827 898.5 823 c 128,-1,11
 946 819 946 819 1009.5 815 c 128,-1,12
 1073 811 1073 811 1105.5 805.5 c 128,-1,13
 1138 800 1138 800 1188 793.5 c 0,14,15
 1277.41176471 781.876470588 1277.41176471 781.876470588 1345.90958606 761.327124183 c 128,-1,16
 1414.40740741 740.777777778 1414.40740741 740.777777778 1489 676 c 1,17,18
 1503.5 668.75 1503.5 668.75 1529 639 c 1,19,20
 1574 570 1574 570 1586 439 c 1,21,22
 1581 295 1581 295 1481 183.5 c 128,-1,23
 1381 72 1381 72 1228 22 c 1,24,25
 1216 16 1216 16 1198 14 c 1,26,-1
 1164 6 l 1,27,28
 1067 -22 1067 -22 996 -22 c 1,29,30
 953 -36 953 -36 858 -36 c 1,31,-1
 833 -35 l 1,32,-1
 760 -35 l 1,33,-1
 749 -36 l 1,34,35
 594 -36 594 -36 417 14 c 1,36,-1
 417 13 l 1,37,38
 40 106 40 106 39 337 c 1,39,40
 92 333 92 333 186 333 c 128,-1,41
 280 333 280 333 440.5 334.5 c 128,-1,42
 601 336 601 336 684 336 c 1,43,44
 683 330 683 330 683 316 c 0,45,46
 683 272 683 272 728 244 c 128,-1,47
 773 216 773 216 832 216 c 128,-1,48
 891 216 891 216 925 239 c 128,-1,49
 959 262 959 262 959 298.5 c 128,-1,50
 959 335 959 335 940 359.5 c 128,-1,51
 921 384 921 384 884 396 c 128,-1,52
 847 408 847 408 815.5 413.5 c 128,-1,53
 784 419 784 419 734 423 c 128,-1,54
 684 427 684 427 660 431 c 128,-1,55
 636 435 636 435 589 441.5 c 128,-1,56
 542 448 542 448 506.5 452.5 c 128,-1,57
 471 457 471 457 423.5 466 c 128,-1,58
 376 475 376 475 339.5 484.5 c 128,-1,59
 303 494 303 494 261 510 c 128,-1,60
 219 526 219 526 188.5 545 c 0,61,62
 37 639.37704918 37 639.37704918 37 819.078947368 c 0,63,64
 37 979.807228916 37 979.807228916 128.5 1068 c 0,65,66
 241.739001848 1177.14602588 241.739001848 1177.14602588 498 1210 c 0,67,68
 524 1213.71428571 524 1213.71428571 572 1224.35714286 c 128,-1,69
 620 1235 620 1235 638 1235 c 128,-1,70
 656 1235 656 1235 662 1233 c 1,71,-1
 789 1240 l 1,72,-1
 965 1232 l 2,73,74
 975 1231 975 1231 1023 1227.5 c 0,75,76
 1141.53763441 1218.85663082 1141.53763441 1218.85663082 1232.2688172 1194.42831541 c 128,-1,77
 1323 1170 1323 1170 1405.5 1099 c 128,-1,78
 1488 1028 1488 1028 1500 945 c 1,79,-1
 1493 947 l 1,80,-1
 1273 937 l 1,0,-1
EndSplineSet
EndChar

StartChar: t
Encoding: 116 116 87
Width: 1042
Flags: HMW
HStem: -3 21G<388 391 391 402> -1 371<859.5 932 859.5 983> 902 285<789 789 789 951 784 952> 1496 20G<165 474 474 525.5> 1497 20G<729.5 783>
LayerCount: 2
Fore
SplineSet
789 498 m 1,0,-1
 788 483 l 1,1,2
 788 448 788 448 790.5 431.5 c 128,-1,3
 793 415 793 415 810.867647059 392.5 c 128,-1,4
 828.735294118 370 828.735294118 370 928 370 c 1,5,-1
 955 369 l 2,6,7
 970 369 970 369 982 372 c 1,8,-1
 983 -1 l 1,9,-1
 436 -1 l 1,10,-1
 402 -3 l 1,11,-1
 391 -3 l 2,12,13
 354 -3 354 -3 310 21 c 128,-1,14
 266 45 266 45 244.5 63.5 c 128,-1,15
 223 82 223 82 208 111 c 0,16,17
 180.28443449 164.583426652 180.28443449 164.583426652 174.642217245 217.479213326 c 128,-1,18
 169 270.375 169 270.375 169 348 c 2,19,-1
 169 902 l 1,20,-1
 51 902 l 1,21,-1
 50 1042 l 1,22,-1
 50 1185 l 1,23,-1
 165 1185 l 1,24,-1
 165 1516 l 1,25,-1
 474 1516 l 1,26,-1
 783 1517 l 1,27,-1
 784 1187 l 1,28,-1
 951 1187 l 1,29,-1
 952 1044 l 1,30,-1
 952 902 l 1,31,-1
 789 902 l 1,32,-1
 789 498 l 1,0,-1
EndSplineSet
EndChar

StartChar: u
Encoding: 117 117 88
Width: 1538
Flags: HMW
HStem: -36 399<456.5 793> 1 21G<919 1479 919 919> 1175 20G<55 373 373 426 823 879> 1176 20G<636 691 1152 1478 1478 1478>
LayerCount: 2
Fore
SplineSet
691 1100 m 1,0,-1
 689 465 l 2,1,2
 689 363 689 363 762 363 c 0,3,4
 823 363 823 363 823 471 c 2,5,-1
 823 1195 l 1,6,-1
 1152 1196 l 1,7,-1
 1478 1196 l 1,8,-1
 1479 1 l 1,9,-1
 919 1 l 1,10,-1
 872 163 l 1,11,12
 743.798076923 -36 743.798076923 -36 521 -36 c 0,13,14
 329 -36 329 -36 198 74 c 1,15,-1
 199 81 l 1,16,17
 182 86 182 86 157 117.5 c 128,-1,18
 132 149 132 149 119 172 c 0,19,20
 54 290 54 290 54 519 c 1,21,-1
 55 551 l 1,22,-1
 55 1195 l 1,23,-1
 373 1195 l 1,24,-1
 691 1196 l 1,25,-1
 691 1100 l 1,0,-1
EndSplineSet
EndChar

StartChar: v
Encoding: 118 118 89
Width: 1663
Flags: HMW
HStem: 0 21G<325 1291 325 325> 1176 20G<-5 57> 1177 20G<1633 1636 1633 1633>
LayerCount: 2
Fore
SplineSet
-5 1196 m 1,0,-1
 375 1197 l 1,1,-1
 747 1197 l 1,2,3
 752 1168 752 1168 757 1117 c 2,4,-1
 779 899 l 2,5,6
 791 775 791 775 824 497 c 1,7,-1
 826 497 l 1,8,-1
 934 1197 l 1,9,-1
 1639 1197 l 1,10,-1
 1636 1177 l 1,11,-1
 1633 1177 l 1,12,13
 1467 597 1467 597 1291 0 c 1,14,-1
 325 0 l 1,15,16
 251 254 251 254 204 419 c 1,17,-1
 186 491 l 1,18,19
 94 844 94 844 -5 1196 c 1,0,-1
EndSplineSet
EndChar

StartChar: w
Encoding: 119 119 90
Width: 1966
Flags: HMW
HStem: -1 21G<203 880 203 203 1046 1682 1046 1046> 1179 20G<1 336 336 389> 1180 20G<613.5 669>
LayerCount: 2
Fore
SplineSet
1141 1186 m 1,0,-1
 1215 708 l 1,1,-1
 1217 708 l 1,2,3
 1231 784 1231 784 1253 926 c 2,4,-1
 1269 1030 l 1,5,-1
 1283 1104 l 1,6,7
 1290 1172 1290 1172 1297 1198 c 1,8,-1
 1952 1198 l 1,9,10
 1894 927 1894 927 1738 219 c 1,11,-1
 1682 -1 l 1,12,-1
 1046 -1 l 1,13,-1
 1024 166 l 1,14,15
 1007 276 1007 276 988.608294931 429.5 c 0,16,17
 970.216589862 583 970.216589862 583 968 583 c 1,18,-1
 880 -1 l 1,19,-1
 203 -1 l 1,20,21
 168.863547758 156.881091618 168.863547758 156.881091618 133.931773879 382.440545809 c 128,-1,22
 99 608 99 608 92 652 c 2,23,-1
 71 785 l 2,24,25
 71 786 71 786 1 1199 c 1,26,-1
 336 1199 l 1,27,28
 669 1200 l 1,29,30
 671 1173 671 1173 674 1160 c 1,31,-1
 680 1117 l 1,32,33
 716 802 716 802 724 697 c 1,34,-1
 728 697 l 1,35,36
 732 721 732 721 740 777.5 c 128,-1,37
 748 834 748 834 753 865 c 2,38,-1
 802 1158 l 1,39,-1
 804 1184 l 1,40,41
 913 1186 913 1186 1141 1186 c 1,0,-1
EndSplineSet
EndChar

StartChar: x
Encoding: 120 120 91
Width: 1624
Flags: HMW
HStem: -2 21G<655 665 655 655> -1 21G<33 207 33 33 923 1558 923 923> 0 21G<292.5 309 309 410> 1177 20G<103 411 411 462.5> 1178 20G<672.5 726 915 1542 1542 1542>
LayerCount: 2
Fore
SplineSet
411 1197 m 1,0,-1
 726 1198 l 1,1,2
 738 1133 738 1133 756 1007 c 128,-1,3
 774 881 774 881 782 841 c 2,4,-1
 795 775 l 1,5,-1
 830 775 l 1,6,-1
 869 965 l 2,7,8
 871 975 871 975 888 1070 c 128,-1,9
 905 1165 905 1165 915 1198 c 1,10,-1
 1542 1198 l 1,11,-1
 1388 868 l 1,12,-1
 1371 828 l 2,13,14
 1364 811 1364 811 1340.5 767.357142857 c 0,15,16
 1317 723.714285714 1317 723.714285714 1317 718 c 1,17,-1
 1290 668 l 1,18,19
 1346 531 1346 531 1417.5 347.5 c 128,-1,20
 1489 164 1489 164 1558 -1 c 1,21,-1
 923 -1 l 1,22,23
 879 176 879 176 799 540 c 1,24,-1
 763 540 l 1,25,26
 759 519 759 519 743 436 c 128,-1,27
 727 353 727 353 720 311 c 2,28,-1
 702 203 l 2,29,30
 690 128 690 128 665 -2 c 1,31,-1
 655 -2 l 1,32,33
 489 0 489 0 410 0 c 2,34,-1
 309 0 l 1,35,-1
 207 -1 l 1,36,-1
 33 -1 l 1,37,38
 47 43 47 43 65 87 c 2,39,-1
 84 135 l 2,40,41
 96 167 96 167 143.952755906 304.007874016 c 0,42,43
 191.905511811 441.015748031 191.905511811 441.015748031 234 533 c 1,44,-1
 286 670 l 1,45,46
 254 749 254 749 202 901 c 1,47,-1
 203 901 l 1,48,-1
 186 952 l 2,49,50
 169.988708174 1000.44354087 169.988708174 1000.44354087 140.994354087 1083.72177044 c 128,-1,51
 112 1167 112 1167 103 1197 c 1,52,-1
 411 1197 l 1,0,-1
EndSplineSet
EndChar

StartChar: y
Encoding: 121 121 92
Width: 1403
Flags: HMW
HStem: -550 21G<322.5 341.5> -549 21G<166 176 258 273> 1178 20G<1355 1355>
LayerCount: 2
Fore
SplineSet
238 -139 m 1,0,1
 331.347107438 -106.811342263 331.347107438 -106.811342263 331.347107438 42.0486988594 c 0,2,3
 331.347107438 98.2066115702 331.347107438 98.2066115702 293 219 c 2,4,-1
 277 269 l 1,5,6
 160 644 160 644 -16 1195 c 1,7,-1
 289 1195 l 1,8,-1
 590 1196 l 1,9,-1
 635 937 l 1,10,11
 640 894 640 894 651 815 c 128,-1,12
 662 736 662 736 667 696 c 1,13,-1
 764 1196 l 1,14,-1
 1355 1196 l 1,15,-1
 1355 1198 l 1,16,-1
 1375 1196 l 1,17,-1
 1370 1176 l 1,18,-1
 1368 1176 l 1,19,-1
 1104 444 l 1,20,21
 1063 341 1063 341 1043 271.5 c 128,-1,22
 1023 202 1023 202 998.208791209 140.813186813 c 128,-1,23
 973.417582418 79.6263736264 973.417582418 79.6263736264 910.518650364 -98.8955952912 c 128,-1,24
 847.61971831 -277.417564209 847.61971831 -277.417564209 791 -379 c 1,25,26
 701 -532 701 -532 504 -545 c 1,27,-1
 410 -546 l 1,28,-1
 329 -550 l 1,29,30
 306 -550 306 -550 290 -547 c 1,31,32
 283 -549 283 -549 269 -549 c 2,33,-1
 208 -546 l 1,34,-1
 169 -549 l 2,35,36
 164 -549 164 -549 144 -547 c 1,37,38
 102 -547 102 -547 60 -547 c 1,39,-1
 41 -496 l 2,40,41
 39 -490 39 -490 39 -480.5 c 128,-1,42
 39 -471 39 -471 40 -467 c 1,43,-1
 40 -460 l 1,44,-1
 41 -450 l 1,45,-1
 41 -336 l 2,46,47
 41 -218 41 -218 40 -161 c 1,48,49
 54 -159 54 -159 70.5 -159 c 128,-1,50
 87 -159 87 -159 97 -162 c 1,51,52
 111 -159 111 -159 134 -159 c 2,53,-1
 142 -159 l 1,54,55
 149.909090909 -153.727272727 149.909090909 -153.727272727 177.954545455 -149.863636364 c 128,-1,56
 206 -146 206 -146 221 -142 c 128,-1,57
 236 -138 236 -138 238 -138 c 1,58,-1
 238 -139 l 1,0,1
EndSplineSet
EndChar

StartChar: z
Encoding: 122 122 93
Width: 1440
Flags: HMW
HStem: -4 21G<50.5 73.5> -1 371<917 1106 1106 1141.5 917 1325> 1 21G<-3 -1> 821 375<146 1399 146 228>
LayerCount: 2
Fore
SplineSet
456 819 m 1,0,-1
 228 821 l 1,1,-1
 146 821 l 1,2,-1
 146 1196 l 1,3,-1
 1399 1196 l 1,4,5
 1398 1193 1398 1193 1395 1193 c 1,6,-1
 1282 1011 l 1,7,8
 1038 590 1038 590 917 370 c 1,9,-1
 1106 370 l 1,10,-1
 1325 369 l 1,11,-1
 1325 -1 l 1,12,-1
 145 -1 l 1,13,14
 58 -4 l 2,15,16
 29 -4 29 -4 11 -1 c 1,17,-1
 12 -2 l 1,18,19
 9 -2 9 -2 4 -0.5 c 128,-1,20
 -1 1 -1 1 -3 1 c 1,21,22
 8.27371273713 24.674796748 8.27371273713 24.674796748 136.136856369 221.337398374 c 128,-1,23
 264 418 264 418 310 493 c 2,24,-1
 512 819 l 1,25,-1
 456 819 l 1,0,-1
EndSplineSet
EndChar

StartChar: braceleft
Encoding: 123 123 94
Width: 1032
Flags: HMW
HStem: -325 21G<905 905> -317 340<608 889> 1164 368<690 844 690 892> 1514 20G<818 832.5>
VStem: 254 464
LayerCount: 2
Fore
SplineSet
818 1534 m 1,0,-1
 897 1531 l 1,1,-1
 905 1531 l 1,2,-1
 930 1508 l 1,3,-1
 929 1345 l 1,4,-1
 929 1262 l 1,5,6
 930 1219 l 1,7,8
 930 1163 930 1163 911 1163 c 2,9,-1
 892 1164 l 1,10,-1
 844 1164 l 2,11,12
 786 1164 786 1164 758.5 1139 c 128,-1,13
 731 1114 731 1114 726 1045 c 1,14,-1
 723 965 l 2,15,16
 721 911 721 911 721 801 c 0,17,18
 721 730 721 730 662.5 678 c 128,-1,19
 604 626 604 626 520 597 c 1,20,-1
 605 565 l 1,21,22
 675 532 675 532 697.5 475 c 128,-1,23
 720 418 720 418 720 295 c 2,24,-1
 720 259 l 1,25,-1
 718 203 l 1,26,-1
 718 185 l 2,27,28
 718 96.375 718 96.375 738.5 68.1875 c 128,-1,29
 759 40 759 40 790.5 31.5 c 128,-1,30
 822 23 822 23 875 23 c 2,31,-1
 889 23 l 2,32,33
 914 23 914 23 918 18 c 1,34,-1
 918 -4 l 1,35,-1
 917 -16 l 1,36,-1
 917 -96 l 1,37,-1
 918 -129 l 1,38,39
 918 -311 918 -311 905 -325 c 1,40,-1
 721 -317 l 1,41,42
 537.47826087 -317 537.47826087 -317 449.340456514 -288.448316899 c 128,-1,43
 361.202652159 -259.896633798 361.202652159 -259.896633798 314.984276012 -202.38043237 c 128,-1,44
 268.765899865 -144.864230943 268.765899865 -144.864230943 264.882949932 -65.9321154714 c 128,-1,45
 261 13 261 13 260.5 73 c 128,-1,46
 260 133 260 133 260 168.5 c 128,-1,47
 260 204 260 204 259 242 c 128,-1,48
 258 280 258 280 256.5 300 c 128,-1,49
 255 320 255 320 249.5 341.5 c 0,50,51
 241.305122494 373.534521158 241.305122494 373.534521158 219.230844075 390.514735327 c 128,-1,52
 197.156565657 407.494949495 197.156565657 407.494949495 144 416 c 1,53,-1
 109 420 l 2,54,55
 60 426 60 426 60 427 c 0,56,57
 54 574 54 574 54 669 c 128,-1,58
 54 764 54 764 66 776 c 1,59,60
 247 778 247 778 257 886 c 1,61,-1
 255 1155 l 1,62,-1
 254 1163 l 1,63,-1
 254 1188 l 2,64,65
 254 1471.67010309 254 1471.67010309 515.5 1517.5 c 0,66,67
 586.675324675 1529.97402597 586.675324675 1529.97402597 690 1532 c 2,68,-1
 818 1534 l 1,0,-1
EndSplineSet
EndChar

StartChar: bar
Encoding: 124 124 95
Width: 492
Flags: HMW
HStem: 1551 20G<219.5 265.5>
VStem: 109 293
LayerCount: 2
Fore
SplineSet
388 1557 m 2,0,-1
 385 1500 l 1,1,-1
 389 1159 l 2,2,3
 395 611 395 611 402 280 c 1,4,-1
 407 -60 l 1,5,6
 396 -84 396 -84 293 -84 c 2,7,-1
 219 -84 l 2,8,9
 140 -84 140 -84 111 -79 c 1,10,-1
 100 -67 l 2,11,12
 98 -66 98 -66 88 -56 c 1,13,14
 88 284 88 284 99 817 c 2,15,-1
 102 965 l 2,16,17
 104 1046 104 1046 109 1519 c 1,18,-1
 109 1526 l 1,19,-1
 108 1534 l 1,20,-1
 108 1547 l 2,21,22
 108 1565 108 1565 112 1570 c 1,23,24
 159 1571 159 1571 251 1571 c 128,-1,25
 343 1571 343 1571 387 1570 c 0,26,27
 388 1569 388 1569 388 1557 c 2,0,-1
EndSplineSet
EndChar

StartChar: braceright
Encoding: 125 125 96
Width: 1035
Flags: HMW
HStem: -334 21G<157 161 161 227> -332 363<119 256 119 398 119 444> 1170 343<205 213>
VStem: 315 470
LayerCount: 2
Fore
SplineSet
258 1512 m 2,0,1
 260 1512 260 1512 265 1513 c 1,2,-1
 363 1513 l 2,3,4
 539.392857143 1513 539.392857143 1513 613.81052637 1476.44395196 c 0,5,6
 765.731903485 1401.81590706 765.731903485 1401.81590706 776 1128 c 1,7,-1
 776 1082 l 1,8,-1
 770 894 l 1,9,10
 770 783.642857143 770 783.642857143 912 773.5 c 0,11,12
 933 772 933 772 963 772 c 1,13,-1
 967 773 l 1,14,15
 974 771 974 771 974 760 c 2,16,-1
 974 641 l 1,17,-1
 973 599 l 1,18,-1
 973 471 l 1,19,-1
 974 427 l 1,20,21
 965.434579439 415.579439252 965.434579439 415.579439252 916.21728972 413.789719626 c 128,-1,22
 867 412 867 412 839.5 405.5 c 0,23,24
 776 390.490909091 776 390.490909091 776 314 c 0,25,26
 776.031073749 291.360168132 776.031073749 291.360168132 778 260 c 2,27,-1
 781 192 l 2,28,29
 785 110 785 110 785 47.5 c 128,-1,30
 785 -15 785 -15 772.5 -78 c 128,-1,31
 760 -141 760 -141 736.5 -184 c 0,32,33
 688.800595238 -271.279761905 688.800595238 -271.279761905 612.900297619 -301.639880952 c 128,-1,34
 537 -332 537 -332 444 -332 c 2,35,-1
 398 -332 l 1,36,-1
 382 -331 l 1,37,-1
 256 -332 l 1,38,-1
 227 -334 l 1,39,-1
 161 -334 l 1,40,-1
 136 -333 l 2,41,42
 128 -333 128 -333 124 -334 c 1,43,44
 121 -330 121 -330 118.5 -325.5 c 128,-1,45
 116 -321 116 -321 113.5 -318 c 128,-1,46
 111 -315 111 -315 108 -311 c 1,47,-1
 108 -312 l 1,48,-1
 100 -302 l 1,49,-1
 103 -147 l 1,50,-1
 102 -103 l 1,51,52
 102 24 102 24 119 31 c 1,53,-1
 174 31 l 2,54,55
 240 31 240 31 273.5 56 c 128,-1,56
 307 81 307 81 307 158 c 1,57,-1
 304 304 l 1,58,59
 308 439 308 439 350.5 497.5 c 128,-1,60
 393 556 393 556 525 601 c 1,61,62
 401 639 401 639 356.5 695.5 c 128,-1,63
 312 752 312 752 312 865 c 1,64,-1
 315 1039 l 1,65,66
 315 1115 315 1115 280 1142.5 c 128,-1,67
 245 1170 245 1170 146 1170 c 0,68,69
 114 1170 114 1170 114 1174 c 2,70,-1
 116 1315 l 1,71,-1
 116 1375 l 1,72,-1
 114 1439 l 1,73,74
 114 1496 114 1496 122 1515 c 1,75,76
 152 1513 152 1513 205 1513 c 2,77,-1
 232 1513 l 1,78,-1
 239 1512 l 1,79,-1
 258 1512 l 2,0,1
EndSplineSet
EndChar

StartChar: asciitilde
Encoding: 126 126 97
Width: 1303
Flags: HMW
HStem: 315 281 454 298 741 20G<1080 1092.5>
LayerCount: 2
Fore
SplineSet
1056 745 m 1,0,1
 1051.8 753.4 1051.8 753.4 1050 766 c 1,2,-1
 1060 770 l 1,3,-1
 1070 760 l 1,4,-1
 1080 761 l 1,5,6
 1098 761 1098 761 1137 652 c 128,-1,7
 1176 543 1176 543 1176 516 c 128,-1,8
 1176 489 1176 489 1175 485 c 1,9,-1
 1175 480 l 1,10,11
 1112 392 1112 392 1044 343.5 c 128,-1,12
 976 295 976 295 891 295 c 128,-1,13
 806 295 806 295 690 352 c 1,14,15
 681 353.5 681 353.5 675 358 c 1,16,-1
 651 370 l 2,17,18
 525 433 525 433 458.5 433 c 128,-1,19
 392 433 392 433 354 402 c 128,-1,20
 316 371 316 371 280 305 c 1,21,-1
 211 315 l 1,22,-1
 195 358 l 2,23,24
 195 359 195 359 190.5 369 c 128,-1,25
 186 379 186 379 184 386 c 1,26,-1
 185 385 l 1,27,28
 138 510 138 510 138 563 c 0,29,30
 138 566 138 566 140 568 c 0,31,32
 257 772 257 772 427 772 c 0,33,34
 500.333333333 772 500.333333333 772 548.166666667 751.5 c 128,-1,35
 596 731 596 731 651 706 c 1,36,-1
 684 688 l 2,37,38
 698 681 698 681 700 681 c 0,39,40
 830 616 830 616 875 616 c 0,41,42
 970 616 970 616 1056 745 c 1,0,1
EndSplineSet
EndChar

StartChar: exclamdown
Encoding: 161 161 99
Width: 784
Flags: HMW
HStem: -415 21G<99 99> 871 355<348 593 424 472> 1205 20G<640.5 648>
LayerCount: 2
Fore
SplineSet
235 696 m 2,0,-1
 297 695 l 1,1,-1
 464 695 l 2,2,3
 573.4 695 573.4 695 591.746357616 680.887417219 c 0,4,5
 610.092715232 666.774834437 610.092715232 666.774834437 611.868275424 624.161389821 c 0,6,7
 613.643835616 581.547945205 613.643835616 581.547945205 620 545 c 1,8,-1
 628 488 l 1,9,10
 673 21 673 21 692 -253 c 2,11,-1
 698 -343 l 2,12,13
 700 -367 700 -367 700 -385 c 1,14,15
 690.650506096 -403.698987808 690.650506096 -403.698987808 620 -405 c 1,16,-1
 611 -406 l 1,17,-1
 99 -415 l 1,18,-1
 79 -400 l 1,19,20
 78 -398 78 -398 77 -397 c 1,21,-1
 90 -259 l 1,22,23
 94 -170 94 -170 109 -53.5 c 128,-1,24
 124 63 124 63 145.354831843 367.946998723 c 0,25,26
 166.709663687 672.893997446 166.709663687 672.893997446 189 692 c 1,27,28
 192 696 192 696 235 696 c 2,0,-1
593 1226 m 1,29,-1
 648 1225 l 1,30,31
 659 1203 659 1203 659 1007 c 2,32,-1
 659 888 l 1,33,34
 645 870 645 870 508 870 c 1,35,-1
 472 871 l 1,36,-1
 385 871 l 1,37,-1
 154 864 l 1,38,39
 138 880 138 880 129 893 c 1,40,-1
 134 1047 l 1,41,-1
 135 1070 l 1,42,-1
 135 1085 l 2,43,44
 135 1224 135 1224 143 1224 c 2,45,-1
 212 1224 l 1,46,-1
 424 1226 l 1,47,-1
 593 1226 l 1,29,-1
660 890 m 2,48,-1
 659 888 l 2,49,50
 659 889 659 889 660 890 c 2,48,-1
EndSplineSet
EndChar

StartChar: cent
Encoding: 162 162 100
Width: 1497
Flags: HMW
HStem: -286 21G<828.5 865 865 936> 665 420<938 938 938 979.5>
VStem: 628 330
LayerCount: 2
Fore
SplineSet
934 1315 m 1,0,-1
 929 1095 l 1,1,-1
 938 1085 l 1,2,3
 1116 1075 1116 1075 1228 973.5 c 128,-1,4
 1340 872 1340 872 1360 673 c 1,5,6
 1348 667 1348 667 1249 667 c 1,7,-1
 1216 668 l 1,8,-1
 1158 668 l 1,9,-1
 942 665 l 2,10,11
 910 665 910 665 896 672 c 1,12,-1
 896 675 l 2,13,14
 896 788.348837209 896 788.348837209 853.5 818 c 0,15,16
 832 833 832 833 798 833 c 0,17,18
 655 829 655 829 655 522 c 0,19,20
 655 446 655 446 661 404 c 1,21,-1
 661 397 l 2,22,23
 661 222 661 222 775 222 c 0,24,25
 861.795918367 222 861.795918367 222 893 291.5 c 0,26,27
 907.482014388 323.755395683 907.482014388 323.755395683 917 365 c 2,28,-1
 923 389 l 1,29,30
 1078 386 1078 386 1368 386 c 0,31,32
 1376 386 1376 386 1380 371 c 1,33,34
 1367.65467626 213.597122302 1367.65467626 213.597122302 1314 151 c 1,35,36
 1265 77 1265 77 1177 32.5 c 128,-1,37
 1089 -12 1089 -12 953 -53 c 1,38,39
 958 -141 958 -141 958 -193.5 c 0,40,41
 958 -255.5 958 -255.5 954.828571429 -269.771428571 c 128,-1,42
 951.657142857 -284.042857143 951.657142857 -284.042857143 936 -286 c 1,43,-1
 865 -286 l 2,44,45
 740 -286 740 -286 648 -281 c 1,46,-1
 623 -252 l 1,47,-1
 626 -60 l 1,48,49
 411.883280757 -5.7570977918 411.883280757 -5.7570977918 341 55 c 0,50,51
 185 186 185 186 171 341 c 1,52,53
 143 448 143 448 143 536 c 0,54,55
 143 945 143 945 630 1088 c 1,56,-1
 630 1143 l 1,57,-1
 628 1317 l 2,58,59
 628 1330 628 1330 774 1330 c 128,-1,60
 920 1330 920 1330 934 1322 c 1,61,-1
 934 1315 l 1,0,-1
EndSplineSet
EndChar

StartChar: sterling
Encoding: 163 163 101
Width: 1440
Flags: HMW
HStem: -38 437 624 276<872 1001> 1188 379<837 869>
LayerCount: 2
Fore
SplineSet
1135 392 m 1,0,-1
 1407 399 l 1,1,2
 1422 394 1422 394 1422 348 c 2,3,-1
 1422 318 l 1,4,-1
 1426 15 l 1,5,6
 1424 -12 1424 -12 1408 -21 c 128,-1,7
 1392 -30 1392 -30 1362 -30 c 2,8,-1
 1324 -30 l 1,9,-1
 1303 -31 l 1,10,-1
 1088 -31 l 1,11,-1
 1035 -30 l 1,12,13
 682 -30 682 -30 446 -35 c 1,14,-1
 410 -37 l 2,15,16
 362 -39 362 -39 341 -39 c 2,17,-1
 288 -39 l 1,18,-1
 260 -38 l 1,19,-1
 164 -38 l 2,20,21
 102 -38 102 -38 69 -36 c 1,22,-1
 51 -13 l 1,23,-1
 50 5 l 1,24,-1
 50 25 l 1,25,-1
 45 271 l 1,26,27
 45 346 45 346 62 365 c 1,28,-1
 204 375 l 1,29,30
 207 522 207 522 207 540 c 2,31,-1
 207 569 l 1,32,-1
 208 610 l 1,33,-1
 125 610 l 1,34,-1
 105 611 l 1,35,-1
 76 611 l 1,36,-1
 63 610 l 1,37,38
 12 610 12 610 12 628 c 2,39,-1
 13 708 l 1,40,-1
 13 746 l 1,41,-1
 14 784 l 1,42,-1
 14 799 l 1,43,-1
 12 854 l 1,44,45
 12 893 12 893 24 905 c 1,46,-1
 65 904 l 1,47,-1
 106 904 l 1,48,-1
 212 903 l 1,49,50
 209.999305348 969.022923526 209.999305348 969.022923526 209.999305348 1033.06306948 c 0,51,52
 209.999305348 1201.72892819 209.999305348 1201.72892819 280 1328 c 1,53,54
 360 1444 360 1444 514.5 1505.5 c 128,-1,55
 669 1567 669 1567 843 1567 c 0,56,57
 1232 1567 1232 1567 1385 1335 c 1,58,59
 1440 1269 1440 1269 1440 1094 c 0,60,61
 1440 1074 1440 1074 1432 1069 c 1,62,63
 1066 1072 1066 1072 1012 1073.5 c 128,-1,64
 958 1075 958 1075 944 1084 c 128,-1,65
 930 1093 930 1093 927.5 1106.5 c 0,66,67
 923.27077748 1129.33780161 923.27077748 1129.33780161 903.367531597 1158.6689008 c 128,-1,68
 883.464285714 1188 883.464285714 1188 837 1188 c 1,69,70
 735 1180 735 1180 735 1029 c 0,71,72
 735 981 735 981 738 948 c 1,73,-1
 738 942 l 1,74,75
 740 922 740 922 740 895 c 1,76,-1
 991 900 l 2,77,78
 1035 900 1035 900 1044 893 c 1,79,-1
 1047 641 l 2,80,81
 1047 619 1047 619 1033 619 c 128,-1,82
 1019 619 1019 619 1011 620 c 2,83,-1
 953 623 l 2,84,85
 933 624 933 624 847 624 c 128,-1,86
 761 624 761 624 752.5 608.5 c 128,-1,87
 744 593 744 593 742 497 c 2,88,-1
 739 388 l 1,89,90
 890 392 890 392 1079 392 c 2,91,-1
 1135 392 l 1,0,-1
EndSplineSet
EndChar

StartChar: currency
Encoding: 164 164 102
Width: 1478
Flags: HMW
HStem: 38 263 944 239<697.5 734 734 769> 1243 20G<272 272 1329 1329>
VStem: 249 229<626 626> 1049 246<529.5 647 529.5 772.5>
LayerCount: 2
Fore
SplineSet
767 59 m 1,0,1
 668 72.2 668 72.2 634 78.6 c 128,-1,2
 600 85 600 85 536 112.5 c 128,-1,3
 472 140 472 140 420 184 c 1,4,-1
 349 108 l 1,5,6
 288 38 288 38 268 38 c 0,7,8
 263.272727273 38 263.272727273 38 248 50 c 1,9,10
 236 52 236 52 221 61 c 1,11,12
 256 123 256 123 310 180 c 2,13,-1
 367 240 l 1,14,15
 324 294 324 294 305 353 c 1,16,-1
 306 353 l 1,17,-1
 294 386 l 1,18,19
 265 455 265 455 255 516 c 1,20,-1
 249 626 l 1,21,22
 251 729 251 729 283.5 844.5 c 128,-1,23
 316 960 316 960 392 1038 c 1,24,-1
 339 1093 l 1,25,26
 222 1212 222 1212 222 1222.5 c 128,-1,27
 222 1233 222 1233 242.5 1247 c 128,-1,28
 263 1261 263 1261 272 1263 c 1,29,-1
 442 1081 l 1,30,31
 587 1183 587 1183 760 1183 c 0,32,33
 987 1183 987 1183 1108 1071 c 1,34,-1
 1131 1052 l 1,35,-1
 1331 1262 l 1,36,37
 1334.94631075 1261.0429514 1334.94631075 1261.0429514 1380 1225 c 1,38,39
 1378 1212 1378 1212 1326.33333333 1158.30952381 c 128,-1,40
 1274.66666667 1104.61904762 1274.66666667 1104.61904762 1256.33333333 1086.80952381 c 128,-1,41
 1238 1069 1238 1069 1231 1061 c 1,42,-1
 1232 1061 l 1,43,-1
 1179 1004 l 1,44,45
 1295 851 1295 851 1295 585 c 0,46,47
 1295 411 1295 411 1206 269 c 1,48,-1
 1291 180 l 2,49,50
 1351 117 1351 117 1381 60 c 1,51,52
 1370 52 1370 52 1356 49 c 1,53,-1
 1339 39 l 1,54,-1
 1334 38 l 1,55,56
 1316 38 1316 38 1258.24202303 101.196266412 c 0,57,58
 1254 106 1254 106 1252 108 c 2,59,-1
 1156 210 l 1,60,61
 1081 135 1081 135 996.5 102.5 c 128,-1,62
 912 70 912 70 812 60 c 1,63,-1
 767 59 l 1,0,1
1329 1263 m 1,64,-1
 1333 1265 l 1,65,-1
 1331 1262 l 1,66,-1
 1329 1263 l 1,64,-1
270 1265 m 1,67,-1
 277 1262 l 1,68,-1
 273 1262 l 1,69,-1
 270 1265 l 1,67,-1
733 300 m 1,70,-1
 742 301 l 1,71,-1
 767 301 l 2,72,73
 866.695652174 301 866.695652174 301 904.847826087 320.5 c 0,74,75
 1049 394.177777778 1049 394.177777778 1049 586.5 c 0,76,77
 1049 805.020833333 1049 805.020833333 978 877.5 c 0,78,79
 934.192598488 922.22005571 934.192598488 922.22005571 883.63201353 933.110027855 c 128,-1,80
 833.071428571 944 833.071428571 944 769 944 c 2,81,-1
 734 944 l 2,82,83
 548.385964912 944 548.385964912 944 495 765 c 0,84,85
 478 708 478 708 478 604.5 c 0,86,87
 478 398 478 398 639 329 c 1,88,89
 675 300 675 300 733 300 c 1,70,-1
EndSplineSet
EndChar

StartChar: yen
Encoding: 165 165 103
Width: 1456
Flags: HMW
HStem: -36 21G<977 1003> -34 21G<461 461> 139 247<189 411> 591 228<1331 1333 1331 1333> 1514 20G<340.5 415>
LayerCount: 2
Fore
SplineSet
1319 818 m 1,0,-1
 1333 819 l 1,1,2
 1345 813 1345 813 1345 770 c 2,3,-1
 1346 674 l 2,4,5
 1346 597 1346 597 1333 591 c 1,6,-1
 1072 591 l 1,7,-1
 1026 621 l 1,8,9
 1026 522 1026 522 1036 380 c 1,10,11
 1153 390 1153 390 1234 390 c 128,-1,12
 1315 390 1315 390 1333.5 379 c 128,-1,13
 1352 368 1352 368 1352 339 c 1,14,15
 1350 300 l 1,16,-1
 1350 206 l 2,17,18
 1350 169 1350 169 1340.5 159 c 128,-1,19
 1331 149 1331 149 1303 149 c 2,20,-1
 1236 150 l 1,21,-1
 1203 150 l 1,22,-1
 1169 151 l 1,23,24
 1109 151 1109 151 1027 147 c 1,25,-1
 1026 61 l 1,26,-1
 1027 18 l 1,27,28
 1027 -32 1027 -32 1003 -36 c 1,29,-1
 819 -37 l 1,30,-1
 728 -37 l 1,31,-1
 635 -38 l 1,32,-1
 616 -38 l 2,33,34
 615 -38 615 -38 610 -37 c 2,35,-1
 461 -34 l 1,36,37
 458 -29 458 -29 438 -4 c 1,38,-1
 438 -1 l 2,39,40
 438 13 438 13 439 22 c 1,41,-1
 439 35 l 1,42,-1
 440 56 l 1,43,-1
 438 109 l 1,44,-1
 438 145 l 1,45,-1
 219 139 l 1,46,47
 130.285714286 139 130.285714286 139 127 162 c 1,48,-1
 127 252 l 1,49,-1
 128 284 l 1,50,-1
 125 341 l 1,51,52
 125 389 125 389 160 389 c 1,53,-1
 193 388 l 1,54,-1
 225 388 l 1,55,-1
 362 386 l 1,56,-1
 411 386 l 1,57,-1
 452 392 l 1,58,59
 452 590 452 590 392 590 c 1,60,61
 305 585 305 585 143 585 c 1,62,63
 129 594 129 594 129 674 c 2,64,-1
 129 699 l 1,65,-1
 131 782 l 2,66,67
 131 812.2 131 812.2 159 815 c 0,68,69
 169 816 169 816 182 816 c 2,70,-1
 207 816 l 1,71,-1
 250 814 l 1,72,-1
 283 814 l 1,73,-1
 266 916 l 1,74,-1
 143 1168 l 2,75,76
 131 1193 131 1193 97.446969697 1267.90909091 c 0,77,78
 63.8939393939 1342.81818182 63.8939393939 1342.81818182 28 1399 c 1,79,-1
 23 1410 l 1,80,81
 -29 1497 -29 1497 -29 1523 c 0,82,83
 -29 1531 -29 1531 152 1531 c 2,84,-1
 226 1531 l 1,85,-1
 374 1534 l 1,86,87
 538 1534 538 1534 557 1516 c 1,88,89
 561.973684211 1477.86842105 561.973684211 1477.86842105 580.986842105 1428.43421053 c 128,-1,90
 600 1379 600 1379 605 1364 c 2,91,-1
 643 1246 l 1,92,-1
 642 1246 l 1,93,-1
 671 1154 l 2,94,95
 675 1141 675 1141 689.40548575 1098.97794613 c 128,-1,96
 703.8109715 1056.95589226 703.8109715 1056.95589226 710 1035 c 2,97,-1
 735 955 l 1,98,-1
 762 856 l 1,99,100
 873 1214 873 1214 891 1274 c 2,101,-1
 947 1460 l 1,102,103
 961 1503 961 1503 1000 1516 c 128,-1,104
 1039 1529 1039 1529 1146 1529 c 1,105,-1
 1291 1527 l 1,106,-1
 1330 1527 l 1,107,-1
 1360 1528 l 1,108,-1
 1389 1528 l 1,109,-1
 1443 1529 l 1,110,111
 1505 1529 1505 1529 1513 1519 c 1,112,113
 1492 1481 1492 1481 1455.5 1400.5 c 128,-1,114
 1419 1320 1419 1320 1397 1280 c 1,115,-1
 1314 1111 l 1,116,117
 1272.15789474 1007.78947368 1272.15789474 1007.78947368 1233 905 c 1,118,-1
 1199 820 l 1,119,120
 1250 817 1250 817 1273.5 817 c 128,-1,121
 1297 817 1297 817 1306 818 c 1,122,-1
 1319 818 l 1,0,-1
1362 602 m 1,123,-1
 1342 600 l 1,124,-1
 1342 604 l 1,125,-1
 1362 602 l 1,123,-1
EndSplineSet
EndChar

StartChar: brokenbar
Encoding: 166 166 104
Width: 494
Flags: HMW
HStem: 1551 20G<220.5 266.5>
VStem: 100 296<-348 -160.5>
LayerCount: 2
Fore
SplineSet
389 1557 m 2,0,-1
 386 1500 l 1,1,-1
 390 1159 l 1,2,-1
 396 795 l 1,3,4
 386 769 386 769 290 769 c 2,5,-1
 215.5 769 l 1,6,7
 189 767 l 2,8,9
 183 767 183 767 177 767 c 0,10,11
 120 767 120 767 113 783 c 1,12,-1
 100 797 l 1,13,-1
 110 1519 l 1,14,-1
 110 1526 l 1,15,-1
 109 1534 l 1,16,-1
 109 1547 l 2,17,18
 109 1565 109 1565 113 1570 c 1,19,20
 160 1571 160 1571 252.5 1571 c 128,-1,21
 345 1571 345 1571 388 1570 c 0,22,23
 389 1569 389 1569 389 1557 c 2,0,-1
389 477 m 1,24,-1
 388 442 l 2,25,26
 388 425 388 425 390 420 c 1,27,-1
 390 6 l 1,28,-1
 392 -10 l 1,29,-1
 396 -348 l 1,30,31
 386 -373 386 -373 290 -373 c 2,32,-1
 215.5 -373 l 1,33,-1
 189 -375 l 2,34,35
 183 -375 183 -375 177 -375 c 0,36,37
 120 -375 120 -375 113 -359 c 1,38,-1
 100 -345 l 1,39,-1
 110 440 l 1,40,-1
 109 449 l 1,41,-1
 109 467 l 2,42,43
 109 494 109 494 195 494 c 128,-1,44
 281 494 281 494 389 491 c 1,45,46
 388 490 388 490 388 489 c 2,47,-1
 389 477 l 1,24,-1
EndSplineSet
EndChar

StartChar: section
Encoding: 167 167 105
Width: 1819
Flags: HMW
HStem: -68 294<543 907.5> 1281 278<712 996>
VStem: 200 418<722 771> 971 392
LayerCount: 2
Fore
SplineSet
253 299 m 1,0,1
 472 226 472 226 592 226 c 0,2,3
 621 226 621 226 648 240.5 c 128,-1,4
 675 255 675 255 675 287 c 0,5,6
 675 329.875 675 329.875 552 376 c 0,7,8
 541 381 541 381 447 418 c 128,-1,9
 353 455 353 455 306 489 c 1,10,-1
 307 489 l 1,11,12
 200 582 200 582 200 715 c 0,13,14
 200 803 200 803 263.5 883.5 c 128,-1,15
 327 964 327 964 438 1003 c 1,16,17
 360 1044 360 1044 314 1107.5 c 128,-1,18
 268 1171 268 1171 265 1244 c 1,19,20
 289 1427 289 1427 445 1504 c 1,21,22
 580 1559 580 1559 765.166666667 1559 c 128,-1,23
 950.333333333 1559 950.333333333 1559 1229 1515 c 1,24,-1
 1230 1327 l 1,25,-1
 1231 1262 l 2,26,27
 1231 1246 1231 1246 1227 1242 c 1,28,29
 1053 1281 1053 1281 959.5 1281 c 128,-1,30
 866 1281 866 1281 866 1236 c 128,-1,31
 866 1191 866 1191 1013 1144 c 1,32,-1
 1077 1123 l 1,33,-1
 1076 1124 l 1,34,-1
 1102 1115 l 1,35,36
 1219 1068 1219 1068 1285 989 c 128,-1,37
 1351 910 1351 910 1363 820 c 1,38,39
 1359.90816327 712.816326531 1359.90816327 712.816326531 1341 675 c 1,40,41
 1291 556 1291 556 1136 476 c 1,42,43
 1201 432 1201 432 1240 371 c 128,-1,44
 1279 310 1279 310 1279 243 c 128,-1,45
 1279 176 1279 176 1247 118.5 c 0,46,47
 1191.83100775 19.3682170543 1191.83100775 19.3682170543 1069.51550388 -24.3158914729 c 128,-1,48
 947.2 -68 947.2 -68 828 -68 c 0,49,50
 515 -68 515 -68 260 -21 c 1,51,-1
 236 7 l 1,52,53
 233 86 233 86 233 192.5 c 128,-1,54
 233 299 233 299 253 299 c 1,0,1
638 843 m 1,55,-1
 653 830 l 1,56,-1
 638 842 l 1,57,58
 618 810 618 810 618 775.5 c 128,-1,59
 618 741 618 741 655 706 c 128,-1,60
 692 671 692 671 766.861111111 643.5 c 128,-1,61
 841.722222222 616 841.722222222 616 869.861111111 616 c 128,-1,62
 898 616 898 616 934.5 639 c 128,-1,63
 971 662 971 662 971 697.5 c 128,-1,64
 971 733 971 733 893.5 768.5 c 128,-1,65
 816 804 816 804 746.175 821.1 c 128,-1,66
 676.35 838.2 676.35 838.2 669.975 838.2 c 128,-1,67
 663.6 838.2 663.6 838.2 663 838 c 2,68,-1
 708 883 l 1,69,70
 664.666666667 883 664.666666667 883 638 843 c 1,55,-1
1341 675 m 1,71,-1
 1341 672 l 1,72,-1
 1341 675 l 1,71,-1
EndSplineSet
EndChar

StartChar: dieresis
Encoding: 168 168 106
Width: 659
Flags: HMW
HStem: 1392 20G 1440 21G<484 484> 1446 367
VStem: -108 361<1474 1741>
LayerCount: 2
Fore
SplineSet
586 1810 m 2,0,-1
 756 1813 l 1,1,2
 817 1813 817 1813 820 1805 c 1,3,4
 824.961106535 1653.48142046 824.961106535 1653.48142046 827 1463 c 1,5,6
 824 1457 824 1457 824 1453 c 1,7,-1
 817 1454 l 1,8,-1
 484 1440 l 1,9,-1
 458 1469 l 1,10,11
 458 1554 458 1554 464 1677.5 c 128,-1,12
 470 1801 470 1801 482 1813 c 1,13,14
 537 1810 537 1810 586 1810 c 2,0,-1
458 1468 m 1,15,-1
 458 1469 l 1,16,-1
 458 1468 l 1,15,-1
823 1452 m 1,17,-1
 837 1451 l 1,18,19
 837 1434 837 1434 823 1434 c 0,20,21
 817 1434 817 1434 813 1438 c 1,22,-1
 823 1452 l 1,17,-1
253 1741 m 1,23,-1
 255 1643 l 1,24,-1
 255 1612 l 2,25,26
 255 1503 255 1503 256 1456 c 1,27,28
 246 1445 246 1445 175 1445 c 1,29,-1
 154 1446 l 1,30,-1
 103 1446 l 1,31,-1
 -84 1439 l 1,32,-1
 -108 1474 l 1,33,34
 -108 1788 -108 1788 -86 1813 c 1,35,36
 -50 1812 -50 1812 66.5879492364 1811.48844717 c 128,-1,37
 183.175898473 1810.97689435 183.175898473 1810.97689435 247 1809 c 1,38,39
 254 1807 254 1807 254 1784 c 1,40,-1
 253 1773 l 1,41,-1
 253 1741 l 1,23,-1
EndSplineSet
EndChar

StartChar: copyright
Encoding: 169 169 107
Width: 1646
Flags: HMW
HStem: -66 207<773 969> 294 222<775.5 901 775.5 959> 294 356<710 1157> 996 204<776.5 890.5> 1356 202<744.5 829 829 843>
VStem: 264 106 412 249 1278 117 1436 219
LayerCount: 2
Fore
SplineSet
1475 242 m 1,0,1
 1209.48275862 -66 1209.48275862 -66 824.3 -66 c 0,2,3
 621.6 -66 621.6 -66 399 60 c 1,4,-1
 399 59 l 1,5,6
 146.003696584 216.78264084 146.003696584 216.78264084 48.5 567 c 0,7,8
 24 655 24 655 12 745 c 1,9,10
 26.1222107793 1083.9330587 26.1222107793 1083.9330587 235.5 1306.5 c 0,11,12
 350.708655449 1428.96589359 350.708655449 1428.96589359 511.48924836 1493.48294679 c 0,13,14
 672.26984127 1558 672.26984127 1558 830.134920635 1558 c 128,-1,15
 988 1558 988 1558 1137 1494 c 128,-1,16
 1286 1430 1286 1430 1397 1320 c 128,-1,17
 1508 1210 1508 1210 1577.5 1057 c 128,-1,18
 1647 904 1647 904 1655 733 c 1,19,20
 1652 599 1652 599 1605 469.5 c 128,-1,21
 1558 340 1558 340 1475 241 c 1,22,-1
 1475 242 l 1,0,1
843 1356 m 1,23,-1
 829 1356 l 2,24,25
 704 1356 704 1356 590 1304 c 128,-1,26
 476 1252 476 1252 392.5 1162 c 128,-1,27
 309 1072 309 1072 275 982.5 c 128,-1,28
 241 893 241 893 223 758 c 1,29,30
 223 598 223 598 304.5 455.5 c 128,-1,31
 386 313 386 313 525 227 c 128,-1,32
 664 141 664 141 803.5 141 c 128,-1,33
 943 141 943 141 1055.5 190 c 128,-1,34
 1168 239 1168 239 1251.5 323 c 128,-1,35
 1335 407 1335 407 1385.5 526 c 128,-1,36
 1436 645 1436 645 1436 771 c 128,-1,37
 1436 897 1436 897 1387.5 1004 c 128,-1,38
 1339 1111 1339 1111 1258 1187 c 128,-1,39
 1177 1263 1177 1263 1068.5 1308.5 c 128,-1,40
 960 1354 960 1354 843 1356 c 1,23,-1
1157 650 m 1,41,-1
 1171 651 l 1,42,-1
 1184 651 l 2,43,44
 1230 651 1230 651 1237 631 c 1,45,46
 1204 487 1204 487 1102 390.5 c 128,-1,47
 1000 294 1000 294 871 294 c 0,48,49
 605.573770492 294 605.573770492 294 484 500 c 0,50,51
 416.178847807 614.919174549 416.178847807 614.919174549 412 757 c 1,52,53
 420 882 420 882 487 985 c 128,-1,54
 554 1088 554 1088 653.5 1144 c 128,-1,55
 753 1200 753 1200 862 1200 c 0,56,57
 1013 1200 1013 1200 1103.5 1113.5 c 128,-1,58
 1194 1027 1194 1027 1226 882 c 1,59,60
 1222 873 1222 873 1179 873 c 1,61,-1
 1156 874 l 1,62,-1
 1007 874 l 1,63,-1
 999 882 l 1,64,65
 962 996 962 996 851 996 c 0,66,67
 706.777777778 996 706.777777778 996 670 830.5 c 0,68,69
 661 790 661 790 661 748 c 0,70,71
 661 652 661 652 705.5 584 c 128,-1,72
 750 516 750 516 835.181818182 516 c 0,73,74
 920.363636364 516 920.363636364 516 943 557.5 c 0,75,76
 979.849056604 625.056603774 979.849056604 625.056603774 1004 648 c 1,77,78
 1031 650 1031 650 1077 650 c 2,79,-1
 1157 650 l 1,41,-1
1227 883 m 1,80,-1
 1227 881 l 1,81,-1
 1226 882 l 1,82,-1
 1227 883 l 1,80,-1
EndSplineSet
EndChar

StartChar: ordfeminine
Encoding: 170 170 108
Width: 845
Flags: HMW
HStem: 924 79<214.5 451.5> 1235 17 1457 56<433 471.5>
VStem: 64 231<1070.5 1139.5> 540 252<1103 1347 1134 1347 1308 1311 1311 1347 1308 1353.5>
LayerCount: 2
Fore
SplineSet
540 1311 m 2,0,1
 540 1457 540 1457 441.611111111 1457 c 128,-1,2
 343.222222222 1457 343.222222222 1457 311 1399 c 1,3,4
 275 1399 275 1399 204.5 1398 c 128,-1,5
 134 1397 134 1397 98 1397 c 1,6,7
 148 1513 148 1513 433 1513 c 2,8,-1
 489 1513 l 2,9,10
 666.147058824 1513 666.147058824 1513 756 1448 c 1,11,12
 792 1407 792 1407 792 1327 c 2,13,-1
 791 1217 l 1,14,-1
 791 938 l 1,15,16
 789 938 789 938 784 937 c 1,17,-1
 776 938 l 1,18,-1
 758 938 l 2,19,20
 724 938 724 938 654 940 c 1,21,-1
 648 940 l 1,22,23
 582 942 582 942 550 942 c 1,24,-1
 548 963 l 2,25,26
 547 966 547 966 547 967 c 2,27,-1
 547 1022 l 1,28,29
 406 924 406 924 292.5 924 c 0,30,31
 64 924 64 924 64 1077 c 0,32,33
 64 1252 64 1252 381 1252 c 0,34,35
 472 1252 472 1252 540 1249 c 1,36,-1
 540 1311 l 2,0,1
514 1235 m 2,37,38
 295 1235 295 1235 295 1113.35714286 c 0,39,40
 295 1056 295 1056 330 1029.5 c 128,-1,41
 365 1003 365 1003 418.5 1003 c 128,-1,42
 472 1003 472 1003 501.5 1025 c 128,-1,43
 531 1047 531 1047 540 1103 c 1,44,-1
 540 1134 l 1,45,-1
 541 1183 l 1,46,-1
 539 1217 l 1,47,-1
 539 1235 l 1,48,-1
 514 1235 l 2,37,38
EndSplineSet
EndChar

StartChar: guillemotleft
Encoding: 171 171 109
Width: 1335
Flags: HMW
HStem: 1025 20G<611 742 742 743.5> 1026 20G<347 350 350 350 1218.5 1266.5>
LayerCount: 2
Fore
SplineSet
1255 1046 m 1,0,-1
 1326 1044 l 1,1,-1
 1354 1044 l 2,2,3
 1381 1044 1381 1044 1384 1035 c 1,4,-1
 1305 863 l 2,5,6
 1209 653 1209 653 1145 526 c 1,7,-1
 1160 490 l 1,8,-1
 1160 484 l 1,9,10
 1250 275 1250 275 1263 248 c 2,11,-1
 1291 188 l 2,12,13
 1333 98 1333 98 1380 -10 c 1,14,15
 1374 -24 1374 -24 1321 -24 c 1,16,-1
 1305 -23 l 1,17,-1
 1264 -23 l 1,18,-1
 1195 -24 l 1,19,-1
 991 -24 l 2,20,21
 972 -24 972 -24 956 -14 c 1,22,23
 946 2 946 2 828 187 c 1,24,-1
 830 187 l 1,25,-1
 793 243 l 2,26,27
 708 372 708 372 633 500 c 1,28,-1
 635 516 l 1,29,30
 691 608 691 608 805.5 790 c 128,-1,31
 920 972 920 972 960 1037 c 1,32,33
 969 1043 969 1043 1016 1043 c 2,34,-1
 1038 1043 l 1,35,-1
 1255 1046 l 1,0,-1
1183 487 m 1,36,-1
 1184 481 l 1,37,-1
 1164 481 l 1,38,-1
 1162 498 l 1,39,40
 1183 498 1183 498 1183 487 c 1,36,-1
579 1044 m 1,41,-1
 611 1045 l 1,42,-1
 742 1045 l 1,43,-1
 751 1042 l 2,44,45
 752 1042 752 1042 753 1043 c 1,46,47
 750 1005 750 1005 695 907 c 2,48,-1
 670 862 l 2,49,50
 668 857 668 857 662 845 c 128,-1,51
 656 833 656 833 654 827 c 2,52,-1
 515 521 l 1,53,54
 558 417 558 417 639.5 240.5 c 128,-1,55
 721 64 721 64 752 -8 c 1,56,57
 742.571428571 -19 742.571428571 -19 614.5 -19 c 1,58,-1
 350 -25 l 2,59,60
 342 -25 342 -25 340 -14 c 1,61,-1
 302 42 l 2,62,63
 271 87 271 87 1 498 c 1,64,65
 4.86544342508 544.385321101 4.86544342508 544.385321101 63.5 629.5 c 0,66,67
 79 652 79 652 88 665.5 c 128,-1,68
 97 679 97 679 114.5 704 c 2,69,-1
 148 752 l 2,70,71
 191 814 191 814 197 825 c 1,72,-1
 196 825 l 1,73,-1
 333 1038 l 2,74,75
 335 1040 335 1040 347 1046 c 1,76,-1
 350 1046 l 1,77,78
 442 1044 442 1044 484 1044 c 2,79,-1
 579 1044 l 1,41,-1
EndSplineSet
EndChar

StartChar: logicalnot
Encoding: 172 172 110
Width: 1283
Flags: HMW
HStem: 223 21G<915 915> 617 293 902 20G<1010.5 1189>
VStem: 885 323<257 916 617 916>
LayerCount: 2
Fore
SplineSet
1144 227 m 1,0,-1
 1128 228 l 1,1,2
 1033 228 1033 228 915 223 c 1,3,-1
 885 257 l 1,4,-1
 885 617 l 1,5,-1
 113 620 l 1,6,7
 108 624 108 624 108 638 c 2,8,-1
 111 811 l 1,9,-1
 111 834 l 1,10,-1
 110 859 l 1,11,-1
 110 910 l 1,12,13
 1189 922 l 1,14,15
 1206 918 1206 918 1208 916 c 1,16,-1
 1211 581 l 2,17,18
 1213 357 1213 357 1213 248 c 1,19,20
 1208 227 1208 227 1191 227 c 2,21,-1
 1144 227 l 1,0,-1
103 911 m 1,22,-1
 111 916 l 1,23,24
 110 912 110 912 110 910 c 1,25,26
 108 911 108 911 103 911 c 1,22,-1
EndSplineSet
EndChar

StartChar: registered
Encoding: 174 174 111
Width: 1710
Flags: HMW
HStem: -66 225<807.5 995.5> 394 410<616 942.5 870.5 1154> 713 91<729 942.5> 1031 94<839.5 896> 1351 207<788.5 961.5>
VStem: 56 226 616 113<577 616 616 713 577 906> 1047 109<865 927.5> 1462 236
LayerCount: 2
Fore
SplineSet
402 79 m 1,0,1
 96.0232828871 279.061699651 96.0232828871 279.061699651 56 746 c 1,2,3
 70.1687524573 1073.6177718 70.1687524573 1073.6177718 248 1283.5 c 0,4,5
 334 1385 334 1385 438 1443 c 0,6,7
 644.206896552 1558 644.206896552 1558 870 1558 c 0,8,9
 1030 1558 1030 1558 1178 1494 c 128,-1,10
 1326 1430 1326 1430 1437.5 1321 c 128,-1,11
 1549 1212 1549 1212 1619.5 1058.5 c 128,-1,12
 1690 905 1690 905 1698 733 c 1,13,14
 1694 577 1694 577 1633 431 c 128,-1,15
 1572 285 1572 285 1468 177 c 1,16,17
 1353 63 1353 63 1200.5 -1.5 c 128,-1,18
 1048 -66 1048 -66 907 -66 c 0,19,20
 625.647887324 -66 625.647887324 -66 401 79 c 1,21,-1
 402 79 l 1,0,1
1338 1153 m 1,22,23
 1140 1351 1140 1351 876 1351 c 0,24,25
 734 1351 734 1351 627 1312.5 c 128,-1,26
 520 1274 520 1274 431 1175 c 1,27,28
 350 1076 350 1076 316 985 c 128,-1,29
 282 894 282 894 282 768.5 c 128,-1,30
 282 643 282 643 322.5 533.5 c 128,-1,31
 363 424 363 424 436.5 340.5 c 128,-1,32
 510 257 510 257 620 208 c 128,-1,33
 730 159 730 159 881.5 159 c 128,-1,34
 1033 159 1033 159 1170.5 239.5 c 128,-1,35
 1308 320 1308 320 1385 463.5 c 128,-1,36
 1462 607 1462 607 1462 800.5 c 128,-1,37
 1462 994 1462 994 1338 1153 c 1,22,23
620 1118 m 1,38,-1
 884 1125 l 1,39,40
 1003 1125 1003 1125 1079.5 1077 c 128,-1,41
 1156 1029 1156 1029 1156 934 c 0,42,43
 1156 797.526315789 1156 797.526315789 1052.5 748.5 c 0,44,45
 1007.11111111 727 1007.11111111 727 964 727 c 1,46,-1
 1070 526 l 1,47,48
 1081 513 1081 513 1098 479.5 c 1,49,-1
 1144 402 l 1,50,-1
 1144 392 l 1,51,52
 1096 387 1096 387 1024 387 c 1,53,54
 999 432 999 432 959 521.5 c 128,-1,55
 919 611 919 611 899 650 c 2,56,-1
 866 713 l 1,57,-1
 729 713 l 1,58,-1
 729 616 l 2,59,60
 729 575 729 575 726.5 498 c 128,-1,61
 724 421 724 421 724 392 c 1,62,63
 715 393 715 393 693 393 c 2,64,-1
 638 393 l 1,65,66
 616 394 l 1,67,-1
 616 906 l 1,68,69
 614 998 614 998 614 1043 c 2,70,-1
 614 1118 l 1,71,-1
 620 1118 l 1,38,-1
744 379 m 1,72,-1
 724 379 l 1,73,-1
 724 392 l 1,74,75
 744 391 744 391 744 379 c 1,72,-1
1145 392.5 m 1,76,-1
 1145 392 l 1,77,78
 1151 394 1151 394 1154 394 c 1,79,-1
 1144 383 l 1,80,-1
 1144 392 l 1,81,-1
 1145 392.5 l 1,76,-1
1024 387 m 1,82,-1
 1028 380 l 1,83,-1
 1018 387 l 1,84,-1
 1024 387 l 1,82,-1
728 808 m 1,85,-1
 902 804 l 1,86,87
 973 804 973 804 1010 825.5 c 128,-1,88
 1047 847 1047 847 1047 903.25 c 128,-1,89
 1047 959.5 1047 959.5 1026 991 c 1,90,91
 1005 1017 1005 1017 966.5 1024 c 128,-1,92
 928 1031 928 1031 863 1031 c 128,-1,93
 798 1031 798 1031 729 1024 c 1,94,-1
 728 964 l 1,95,-1
 728 808 l 1,85,-1
EndSplineSet
EndChar

StartChar: overscore
Encoding: 175 175 112
Width: 678
Flags: HMW
HStem: 1195 21G<-96 -96> 1199 276 1460 20G
LayerCount: 2
Fore
SplineSet
-116 1358 m 1,0,-1
 -117 1379 l 1,1,2
 -117 1441 -117 1441 -99 1480 c 1,3,4
 319 1454 319 1454 576 1454 c 2,5,-1
 643 1454 l 1,6,-1
 795 1458 l 1,7,8
 799 1453 799 1453 799 1430 c 1,9,-1
 798 1417 l 1,10,-1
 798 1345 l 2,11,12
 798 1303 798 1303 799 1287 c 1,13,-1
 799 1261 l 1,14,-1
 800 1233 l 2,15,16
 800 1208 800 1208 769 1208 c 2,17,-1
 739 1208 l 1,18,-1
 727 1209 l 1,19,-1
 591 1207 l 1,20,-1
 566 1206 l 1,21,-1
 540 1206 l 2,22,23
 457 1206 457 1206 389 1202 c 1,24,-1
 120 1199 l 1,25,26
 -24 1195 -24 1195 -96 1195 c 1,27,-1
 -117 1219 l 1,28,-1
 -117 1283 l 1,29,-1
 -116 1301 l 1,30,-1
 -116 1358 l 1,0,-1
EndSplineSet
EndChar

StartChar: degree
Encoding: 176 176 113
Width: 878
Flags: HMW
HStem: 954 21G<384.5 537.5> 1548 20G<348 521>
LayerCount: 2
Fore
SplineSet
748 1265 m 2,0,-1
 748 1251 l 1,1,2
 746 1138 746 1138 660 1046 c 128,-1,3
 574 954 574 954 455.089041096 954 c 0,4,5
 336.178082192 954 336.178082192 954 236.5 1027.5 c 0,6,7
 187 1064 187 1064 156 1127 c 128,-1,8
 125 1190 125 1190 124 1270 c 1,9,10
 148 1398 148 1398 229 1483 c 128,-1,11
 310 1568 310 1568 437 1568 c 128,-1,12
 564 1568 564 1568 656 1482 c 128,-1,13
 748 1396 748 1396 748 1265 c 2,0,-1
EndSplineSet
EndChar

StartChar: plusminus
Encoding: 177 177 114
Width: 1266
Flags: HMW
HStem: -35 21G<112 112> -25 311 676 290<1032 1181 790 1182> 1181 20G<542 748 748 750.5> 1182 20G<500.5 523.5 759 769.5>
VStem: 484 307
LayerCount: 2
Fore
SplineSet
385 669 m 2,0,-1
 187 666 l 1,1,-1
 141 666 l 2,2,3
 98 666 98 666 98 679 c 2,4,-1
 98 760 l 1,5,-1
 97 788 l 1,6,-1
 97 957 l 2,7,8
 97 972 97 972 257 972 c 2,9,-1
 281 972 l 1,10,-1
 307 973 l 1,11,-1
 484 976 l 1,12,-1
 484 1148 l 2,13,14
 484 1177 484 1177 489 1189.5 c 128,-1,15
 494 1202 494 1202 520 1202 c 1,16,-1
 542 1201 l 1,17,-1
 748 1201 l 1,18,-1
 761 1202 l 1,19,20
 794 1202 794 1202 800 1191 c 1,21,-1
 799 1180 l 1,22,-1
 796 967 l 1,23,-1
 976 967 l 1,24,-1
 1032 966 l 1,25,-1
 1182 966 l 1,26,27
 1189 962 1189 962 1189 939 c 2,28,-1
 1186 703 l 1,29,-1
 1187 694 l 1,30,31
 1187 676 1187 676 1181 676 c 2,32,-1
 790 676 l 1,33,-1
 789 570 l 1,34,35
 791 528 791 528 791 503 c 2,36,-1
 791 478 l 2,37,38
 791 453 791 453 792 453 c 2,39,-1
 753 453 l 1,40,-1
 737 454 l 1,41,-1
 515 451 l 1,42,-1
 503 451 l 1,43,44
 496 540 496 540 494 665 c 1,45,46
 436 669 436 669 385 669 c 2,0,-1
499 455 m 1,47,-1
 504 446 l 1,48,49
 492 439 492 439 485 439 c 128,-1,50
 478 439 478 439 478 454 c 1,51,-1
 499 455 l 1,47,-1
94 163 m 1,52,-1
 92 212 l 1,53,54
 92 271 92 271 116 289 c 1,55,-1
 140 286 l 1,56,57
 306 273 306 273 507 273 c 1,58,-1
 675 274 l 1,59,-1
 760 274 l 1,60,-1
 844 275 l 1,61,62
 1067 275 1067 275 1182 266 c 1,63,64
 1186 262 1186 262 1186 181 c 1,65,-1
 1185 153 l 1,66,-1
 1185 -18 l 1,67,68
 1181 -25 1181 -25 1156 -25 c 1,69,-1
 1147 -24 l 1,70,-1
 453 -32 l 1,71,-1
 360 -32 l 1,72,-1
 225 -34 l 1,73,-1
 164 -34 l 2,74,75
 127 -34 127 -34 112 -35 c 1,76,-1
 91 -6 l 1,77,-1
 94 149 l 1,78,-1
 94 163 l 1,52,-1
EndSplineSet
EndChar

StartChar: twosuperior
Encoding: 178 178 115
Width: 1160
Flags: HMW
HStem: -23 21G<147 147> -10 268<666.5 1035.5> 720 363<145 718 149 718> 838 245<535 610>
VStem: 670 392<716 780.5>
LayerCount: 2
Fore
SplineSet
1073 148 m 1,0,-1
 1069 10 l 1,1,-1
 1069 -3 l 2,2,3
 1069 -15 1069 -15 1061 -16 c 1,4,-1
 1008 -15 l 2,5,6
 790 -10 790 -10 638.5 -10 c 128,-1,7
 487 -10 487 -10 147 -23 c 1,8,-1
 140 -15 l 1,9,10
 129 -6 129 -6 129 48 c 2,11,-1
 132 254 l 2,12,13
 132 260 132 260 168 284 c 2,14,-1
 382 428 l 1,15,16
 486 501 486 501 553 561 c 0,17,18
 670 666 670 666 670 754 c 0,19,20
 670 793 670 793 646.5 815.5 c 128,-1,21
 623 838 623 838 587 838 c 128,-1,22
 551 838 551 838 531 822.5 c 128,-1,23
 511 807 511 807 506 788.5 c 128,-1,24
 501 770 501 770 496 748.5 c 128,-1,25
 491 727 491 727 484 720 c 1,26,27
 459 719 459 719 420 719 c 2,28,-1
 241 719 l 1,29,-1
 208 720 l 1,30,-1
 149 720 l 2,31,32
 133 720 133 720 129 722 c 1,33,34
 133 794 133 794 149.5 851 c 128,-1,35
 166 908 166 908 212 956 c 128,-1,36
 258 1004 258 1004 350.898148148 1043.5 c 128,-1,37
 443.796296296 1083 443.796296296 1083 567.398148148 1083 c 128,-1,38
 691 1083 691 1083 772 1064.5 c 128,-1,39
 853 1046 853 1046 919 1009 c 128,-1,40
 985 972 985 972 1023.5 909 c 128,-1,41
 1062 846 1062 846 1062 774.5 c 128,-1,42
 1062 703 1062 703 1041.5 646 c 0,43,44
 1004.87677035 544.169556585 1004.87677035 544.169556585 917.471225412 463.827085985 c 128,-1,45
 830.065680473 383.484615385 830.065680473 383.484615385 712 308 c 1,46,-1
 713 309 l 1,47,48
 697 299 697 299 651 253 c 1,49,-1
 1008 258 l 2,50,51
 1046 258 1046 258 1059.5 230 c 128,-1,52
 1073 202 1073 202 1073 148 c 1,0,-1
EndSplineSet
EndChar

StartChar: threesuperior
Encoding: 179 179 116
Width: 1227
Flags: HMW
HStem: -43 239<558.5 619> -43 356<456 619> 426 190<522 545 545 562> 727 357 846 238<602.5 629.5>
VStem: 689 399<175.5 779>
LayerCount: 2
Fore
SplineSet
552.39616 425.08 m 1,0,-1
 498.5 424 l 2,1,2
 482 424 482 424 475 437.5 c 128,-1,3
 468 451 468 451 468 488.5 c 0,4,5
 468 545 468 545 470.571428571 581 c 128,-1,6
 473.142857143 617 473.142857143 617 488 617 c 1,7,-1
 501 616 l 1,8,-1
 545 616 l 2,9,10
 613 616 613 616 651 646.5 c 128,-1,11
 689 677 689 677 689 735.5 c 0,12,13
 689 846 689 846 600 846 c 0,14,15
 563 846 563 846 542.5 831 c 128,-1,16
 522 816 522 816 518 797 c 0,17,18
 504.933333333 734.933333333 504.933333333 734.933333333 493 723 c 1,19,20
 346 723 346 723 223 727 c 1,21,-1
 186 727 l 2,22,23
 156 727 156 727 150 733 c 1,24,25
 152 742 152 742 154.5 785 c 128,-1,26
 157 828 157 828 167 853 c 0,27,28
 213 966 213 966 287.5 1012 c 128,-1,29
 362 1058 362 1058 454 1071 c 128,-1,30
 546 1084 546 1084 638 1084 c 128,-1,31
 730 1084 730 1084 798 1065.5 c 128,-1,32
 866 1047 866 1047 927 1012.5 c 128,-1,33
 988 978 988 978 1026.5 919 c 128,-1,34
 1065 860 1065 860 1065 799 c 0,35,36
 1065 687.901408451 1065 687.901408451 996.896786156 636.104597921 c 128,-1,37
 928.793572311 584.307787392 928.793572311 584.307787392 829 553 c 1,38,39
 968 510 968 510 1028 450 c 128,-1,40
 1088 390 1088 390 1088 299 c 0,41,42
 1088 11 1088 11 719 -37 c 1,43,44
 654 -43 654 -43 563 -43 c 128,-1,45
 472 -43 472 -43 373.5 -14.5 c 128,-1,46
 275 14 275 14 206 83 c 1,47,48
 138 143 138 143 133 306 c 0,49,50
 133 309 133 309 134 309 c 2,51,-1
 456 313 l 1,52,-1
 480 314 l 2,53,54
 485 314 485 314 487 308 c 1,55,56
 493.323125263 252.497787567 493.323125263 252.497787567 517.661562631 224.248893784 c 128,-1,57
 542 196 542 196 594.5 196 c 128,-1,58
 647 196 647 196 673.5 224.5 c 128,-1,59
 700 253 700 253 700 292 c 0,60,61
 700 425.08 700 425.08 552.39616 425.08 c 1,0,-1
168 857 m 2,62,-1
 169 859 l 2,63,64
 169 858 169 858 168 857 c 2,62,-1
EndSplineSet
EndChar

StartChar: acute
Encoding: 180 180 117
Width: 641
Flags: HMW
HStem: 1410 374 1774 20G<262 332 332 393>
LayerCount: 2
Fore
SplineSet
125 1410 m 1,0,-1
 109 1409 l 1,1,-1
 60 1409 l 1,2,-1
 45 1438 l 1,3,-1
 213 1724 l 1,4,5
 256 1787 256 1787 262 1794 c 1,6,-1
 332 1794 l 1,7,-1
 750 1784 l 1,8,-1
 750 1781 l 1,9,10
 710 1735 710 1735 619 1633.5 c 128,-1,11
 528 1532 528 1532 485 1483 c 128,-1,12
 442 1434 442 1434 410.5 1424 c 128,-1,13
 379 1414 379 1414 308 1413 c 2,14,-1
 125 1410 l 1,0,-1
EndSplineSet
EndChar

StartChar: mu
Encoding: 181 181 118
Width: 1358
Flags: HMW
HStem: -427 21G<127 139.5 268.5 272 272 324> -426 21G<145.5 147 147 253> -48 322<647 650> 1040 20G<276 590 590 590> 1041 20G<218 251.5>
LayerCount: 2
Fore
SplineSet
1156 -19 m 1,0,-1
 1104 -20 l 1,1,-1
 971 -20 l 2,2,3
 879 -20 879 -20 806 -16 c 1,4,5
 795 -7 795 -7 795 72 c 2,6,-1
 795 93 l 1,7,-1
 761 99 l 1,8,-1
 744 67 l 2,9,10
 682 -48 682 -48 625 -48 c 0,11,12
 621 -48 621 -48 585 -37 c 1,13,-1
 585 -119 l 1,14,-1
 589 -416 l 1,15,-1
 583 -416 l 1,16,-1
 467 -422 l 2,17,18
 385 -427 385 -427 324 -427 c 2,19,-1
 272 -427 l 1,20,-1
 253 -426 l 1,21,-1
 147 -426 l 1,22,-1
 138 -427 l 1,23,24
 91 -427 91 -427 85 -425 c 1,25,26
 90 -410 90 -410 92 -401 c 1,27,-1
 86 -64 l 2,28,29
 79 330 79 330 79 610 c 1,30,-1
 76 825 l 1,31,-1
 76 894 l 1,32,-1
 74 1033 l 2,33,34
 74 1052 74 1052 83 1060 c 1,35,36
 138 1061 138 1061 247 1061 c 1,37,-1
 276 1060 l 1,38,-1
 590 1060 l 1,39,40
 602 1055 602 1055 610 1032 c 1,41,42
 607 991 607 991 607 915 c 2,43,-1
 603 560 l 1,44,-1
 602 543 l 1,45,-1
 602 525 l 1,46,-1
 600 456 l 1,47,48
 600 348.388888889 600 348.388888889 621.596774194 311.194444444 c 128,-1,49
 643.193548387 274 643.193548387 274 679.096774194 274 c 0,50,51
 743.145833333 274 743.145833333 274 759.072916667 318.970588235 c 128,-1,52
 775 363.941176471 775 363.941176471 775 429 c 2,53,-1
 774 497 l 1,54,-1
 774 514 l 1,55,-1
 777 642 l 2,56,57
 778 688 778 688 778 783 c 2,58,-1
 778 1044 l 2,59,60
 778 1052 778 1052 857 1052 c 128,-1,61
 936 1052 936 1052 949 1049 c 1,62,-1
 968 1049 l 1,63,-1
 1299 1055 l 1,64,65
 1307.79241631 1051.16966524 1307.79241631 1051.16966524 1312 1029 c 1,66,-1
 1313 945 l 1,67,-1
 1303 302 l 2,68,69
 1303 288 1303 288 1304.5 284 c 128,-1,70
 1306 280 1306 280 1306 279 c 2,71,-1
 1307 280 l 1,72,-1
 1313 139 l 1,73,-1
 1319 131 l 1,74,75
 1311 -5 1311 -5 1311 -7 c 0,76,77
 1304 -20 1304 -20 1271 -20 c 2,78,-1
 1260 -20 l 1,79,-1
 1250 -19 l 1,80,-1
 1156 -19 l 1,0,-1
592 -416 m 1,81,-1
 609 -422 l 1,82,83
 611 -428 611 -428 611 -434 c 128,-1,84
 611 -440 611 -440 599.5 -440 c 128,-1,85
 588 -440 588 -440 588 -432 c 128,-1,86
 588 -424 588 -424 592 -416 c 1,81,-1
EndSplineSet
EndChar

StartChar: paragraph
Encoding: 182 182 119
Width: 1323
Flags: HMW
HStem: -51 21G<1097 1167> 1499 20G<1184.5 1237.5>
VStem: 506 289 926 318<-31 46 -31 127.5>
LayerCount: 2
Fore
SplineSet
810 1303 m 1,0,1
 795 1123 795 1123 795 317 c 2,2,-1
 795 227 l 1,3,-1
 796 139 l 1,4,-1
 796 -31 l 1,5,-1
 562 -34 l 2,6,7
 503 -34 503 -34 503 -25 c 2,8,-1
 503 174 l 1,9,-1
 506 799 l 1,10,11
 49.1062906725 819.767895879 49.1062906725 819.767895879 33 1158 c 1,12,13
 47.0425531915 1351.78723404 47.0425531915 1351.78723404 208 1437 c 0,14,15
 347.777777778 1511 347.777777778 1511 603 1511 c 1,16,-1
 626 1509 l 1,17,-1
 725 1509 l 1,18,-1
 736 1511 l 1,19,-1
 930 1515 l 2,20,21
 1130 1519 1130 1519 1230 1519 c 0,22,23
 1260 1519 1260 1519 1260 1477 c 2,24,-1
 1260 1430 l 1,25,-1
 1261 1415 l 1,26,-1
 1260 1399 l 1,27,-1
 1256 1037 l 2,28,29
 1255 965 1255 965 1254.5 781.5 c 128,-1,30
 1254 598 1254 598 1252 500 c 2,31,-1
 1243 -25 l 2,32,33
 1243 -26 1243 -26 1244 -31 c 1,34,35
 1240 -44 1240 -44 1216 -47.5 c 128,-1,36
 1192 -51 1192 -51 1129 -51 c 1,37,-1
 955 -48 l 2,38,39
 948 -48 948 -48 927 -14 c 1,40,-1
 927 -3 l 1,41,-1
 926 12 l 1,42,-1
 926 46 l 2,43,44
 926 151 926 151 933 548 c 1,45,-1
 944 1285 l 1,46,-1
 881 1290 l 2,47,48
 855 1292 855 1292 810 1303 c 1,0,1
796 -31 m 1,49,-1
 797 -31 l 2,50,51
 798 -31 798 -31 798 -32 c 1,52,53
 796 -32 796 -32 796 -31 c 1,49,-1
EndSplineSet
EndChar

StartChar: middot
Encoding: 183 183 120
Width: 791
Flags: HMW
HStem: 244 21G<323 474.5> 759 20G<393 404 404 407.5>
LayerCount: 2
Fore
SplineSet
393 779 m 2,0,-1
 404 779 l 2,1,2
 409 779 409 779 425 777 c 1,3,-1
 437 777 l 2,4,5
 524 777 524 777 593.5 696 c 128,-1,6
 663 615 663 615 663 509.5 c 128,-1,7
 663 404 663 404 587 324 c 128,-1,8
 511 244 511 244 400 244 c 128,-1,9
 289 244 289 244 214.5 320.5 c 128,-1,10
 140 397 140 397 130 503 c 1,11,12
 140 529 140 529 155.22147651 591.408053691 c 0,13,14
 170.44295302 653.816107383 170.44295302 653.816107383 209 697 c 1,15,-1
 208 697 l 1,16,17
 280 779 280 779 393 779 c 2,0,-1
EndSplineSet
EndChar

StartChar: cedilla
Encoding: 184 184 121
Width: 605
Flags: HMW
HStem: -535 414<362 376> -21 20G<242 247 247 248> 40 21G
VStem: 353 261<-346.5 -293.5>
LayerCount: 2
Fore
SplineSet
247 -1 m 1,0,-1
 255 -2 l 1,1,-1
 272 -2 l 1,2,-1
 410 -4 l 1,3,4
 421 -6 421 -6 421 -15.5 c 128,-1,5
 421 -25 421 -25 414.5 -36 c 128,-1,6
 408 -47 408 -47 392 -71 c 128,-1,7
 376 -95 376 -95 362 -121 c 1,8,9
 482 -121 482 -121 548 -171 c 128,-1,10
 614 -221 614 -221 614 -302 c 0,11,12
 614 -411 614 -411 520 -473 c 128,-1,13
 426 -535 426 -535 311 -535 c 128,-1,14
 196 -535 196 -535 100 -516 c 128,-1,15
 4 -497 4 -497 4 -469 c 0,16,17
 4 -448 4 -448 33 -398 c 1,18,-1
 46 -369 l 1,19,20
 46 -365.318163809 46 -365.318163809 52 -351.159081905 c 128,-1,21
 58 -337 58 -337 69 -331 c 1,22,23
 77 -334 77 -334 96.5889649926 -341.919482496 c 0,24,25
 185.834694701 -378 185.834694701 -378 243 -378 c 0,26,27
 353 -378 353 -378 353 -315 c 0,28,29
 353 -271 353 -271 275 -271 c 1,30,31
 267 -274 267 -274 243 -279 c 1,32,-1
 221 -286 l 1,33,34
 210.088235294 -286 210.088235294 -286 186 -270 c 2,35,-1
 164 -256 l 1,36,-1
 165 -256 l 1,37,38
 121 -231 121 -231 121 -197 c 1,39,40
 173 -106 173 -106 227 -7 c 1,41,42
 231 -3 231 -3 242 -1 c 1,43,-1
 247 -1 l 1,0,-1
221 -286 m 1,44,-1
 221 -306 l 1,45,-1
 216 -307 l 1,46,-1
 214 -288 l 1,47,-1
 221 -286 l 1,44,-1
EndSplineSet
EndChar

StartChar: onesuperior
Encoding: 185 185 122
Width: 1030
Flags: HMW
HStem: -22 21G<400 401.5 424.5 427 427 437 704 727.5> 1035 20G
VStem: 383 401
LayerCount: 2
Fore
SplineSet
785 938 m 1,0,-1
 784 897 l 1,1,-1
 784 774 l 2,2,3
 784 600 784 600 787 420 c 2,4,-1
 792 -14 l 1,5,6
 783 -22 783 -22 708 -22 c 1,7,-1
 686 -21 l 1,8,-1
 489 -21 l 1,9,10
 437 -22 l 1,11,-1
 427 -22 l 1,12,-1
 409 -23 l 1,13,-1
 400 -22 l 1,14,-1
 388 -7 l 1,15,-1
 388 -8 l 1,16,17
 383 0 383 0 383 14 c 0,18,19
 383 342 383 342 391 692 c 1,20,21
 270 610 270 610 164 573 c 0,22,23
 161 573 161 573 161 574 c 2,24,-1
 161 861 l 1,25,-1
 254 906 l 1,26,27
 257 909 257 909 262 909 c 1,28,-1
 281 918 l 1,29,30
 436 990 436 990 482 1055 c 1,31,32
 621 1052 621 1052 697.5 1052 c 128,-1,33
 774 1052 774 1052 784 1053 c 1,34,35
 785 1048 785 1048 785 1018 c 2,36,-1
 785 938 l 1,0,-1
EndSplineSet
EndChar

StartChar: ordmasculine
Encoding: 186 186 123
Width: 938
Flags: HMW
HStem: 870 21G<329.5 560> 1539 20G<328 554>
LayerCount: 2
Fore
SplineSet
-17 1215 m 1,0,-1
 -17 1225 l 1,1,2
 22.7402708726 1469.11880679 22.7402708726 1469.11880679 279 1539.5 c 0,3,4
 350 1559 350 1559 439.5 1559 c 0,5,6
 634.616438356 1559 634.616438356 1559 781 1490.5 c 0,7,8
 947.011681268 1412.81504659 947.011681268 1412.81504659 959 1223 c 1,9,10
 939.26250302 955.133969558 939.26250302 955.133969558 620.5 888.5 c 0,11,12
 532 870 532 870 440.5 870 c 0,13,14
 266.32 870 266.32 870 137.676475833 945.377064942 c 128,-1,15
 9.03295166506 1020.75412988 9.03295166506 1020.75412988 -17 1215 c 1,0,-1
EndSplineSet
EndChar

StartChar: guillemotright
Encoding: 187 187 124
Width: 1332
Flags: HMW
HStem: -23 21G<49 95.5 444 444> -22 21G<630 639 639 669> 1032 20G<39 111.5>
LayerCount: 2
Fore
SplineSet
915 -21 m 1,0,-1
 828 -19 l 1,1,-1
 809 -19 l 1,2,3
 757 -22 757 -22 669 -22 c 2,4,-1
 639 -22 l 2,5,6
 602 -22 602 -22 600 -19 c 1,7,-1
 819 516 l 1,8,-1
 804 549 l 1,9,-1
 809 554 l 1,10,-1
 602 1034 l 2,11,12
 601 1035 601 1035 601 1040 c 128,-1,13
 601 1045 601 1045 662 1045 c 2,14,-1
 881 1045 l 1,15,-1
 981 1048 l 1,16,17
 1019 1048 1019 1048 1047 1005 c 1,18,-1
 1047 1006 l 1,19,20
 1055 990 1055 990 1061 980 c 2,21,-1
 1238 696 l 1,22,-1
 1237 696 l 1,23,-1
 1266 649 l 1,24,25
 1345 536 1345 536 1345 520 c 128,-1,26
 1345 504 1345 504 1340 491.5 c 128,-1,27
 1335 479 1335 479 1324 461.5 c 128,-1,28
 1313 444 1313 444 1304.5 431 c 128,-1,29
 1296 418 1296 418 1280 395 c 128,-1,30
 1264 372 1264 372 1258 363 c 2,31,-1
 1236 331 l 2,32,33
 1196 273 1196 273 1127.5 158.5 c 128,-1,34
 1059 44 1059 44 1022 -12 c 1,35,36
 1005 -21 1005 -21 915 -21 c 1,0,-1
11 1028 m 1,37,-1
 9 1043 l 1,38,39
 9 1052 9 1052 96.5 1052 c 128,-1,40
 184 1052 184 1052 418 1046 c 1,41,42
 418 1044 418 1044 419 1041 c 2,43,-1
 579 787 l 2,44,45
 603 748 603 748 657.5 656.5 c 128,-1,46
 712 565 712 565 744 515 c 1,47,-1
 741 512 l 1,48,49
 692 429 692 429 635 335 c 1,50,-1
 636 335 l 1,51,52
 596 272 596 272 543 183 c 2,53,-1
 431 -6 l 1,54,55
 416 -15 416 -15 352 -15 c 2,56,-1
 320 -15 l 1,57,-1
 255 -16 l 1,58,59
 161 -23 161 -23 84.5 -23 c 128,-1,60
 8 -23 8 -23 8 -15 c 0,61,62
 8 14 8 14 58 110 c 1,63,-1
 115 242 l 2,64,65
 156 337 156 337 163 352 c 2,66,-1
 229 507 l 1,67,-1
 11 1028 l 1,37,-1
801 559 m 1,68,-1
 804 549 l 1,69,-1
 773 517 l 1,70,-1
 781 559 l 1,71,-1
 801 559 l 1,68,-1
447 -20 m 1,72,-1
 444 -23 l 1,73,-1
 430 -9 l 1,74,-1
 433 -6 l 1,75,-1
 447 -20 l 1,72,-1
746 516 m 1,76,-1
 745 516 l 1,77,-1
 744 520 l 1,78,-1
 746 516 l 1,76,-1
745 516 m 1,79,-1
 744 515 l 1,80,-1
 745 516 l 1,79,-1
EndSplineSet
EndChar

StartChar: onequarter
Encoding: 188 188 125
Width: 2592
Flags: HMW
HStem: -68 21G -31 406 150 263 603 21G<348 349.5 372.5 375 375 385 652 675.5> 1026 20G<1831 1831> 1552 20G<1527 1553 1553 1554.5> 1553 20G<1480 1481 1480 1480 1561 1573.5> 1555 20G<1369.5 1404.5> 1660 20G
VStem: 331 401 1974 381 2024 329
LayerCount: 2
Fore
SplineSet
733 1563 m 1,0,-1
 732 1522 l 1,1,-1
 732 1399 l 2,2,3
 732 1225 732 1225 735 1045 c 2,4,-1
 740 611 l 1,5,6
 731 603 731 603 656 603 c 1,7,-1
 634 604 l 1,8,-1
 437 604 l 1,9,10
 385 603 l 1,11,-1
 375 603 l 1,12,-1
 357 602 l 1,13,-1
 348 603 l 1,14,-1
 336 618 l 1,15,-1
 336 617 l 1,16,17
 331 625 331 625 331 639 c 0,18,19
 331 967 331 967 339 1317 c 1,20,21
 218 1235 218 1235 112 1198 c 0,22,23
 109 1198 109 1198 109 1199 c 2,24,-1
 109 1486 l 1,25,-1
 202 1531 l 1,26,27
 205 1534 205 1534 210 1534 c 1,28,-1
 229 1543 l 1,29,30
 384 1615 384 1615 430 1680 c 1,31,32
 570 1677 570 1677 646 1677 c 128,-1,33
 722 1677 722 1677 732 1678 c 1,34,35
 733 1673 733 1673 733 1643 c 2,36,-1
 733 1563 l 1,0,-1
1553 1572 m 1,37,-1
 1563 1573 l 1,38,39
 1605 1573 1605 1573 1605 1562 c 1,40,41
 1590 1495 1590 1495 1570 1439 c 1,42,-1
 1541 1362 l 1,43,44
 1452 1104 1452 1104 1361 828 c 1,45,-1
 1339 765 l 2,46,47
 1327 731 1327 731 1240.5 474 c 128,-1,48
 1154 217 1154 217 1104 88 c 2,49,-1
 1086 41 l 1,50,-1
 1088 41 l 1,51,52
 1059.42739274 -39.00330033 1059.42739274 -39.00330033 1013.5 -54 c 0,53,54
 989 -62 989 -62 951 -63 c 1,55,-1
 908 -63 l 1,56,57
 870 -68 870 -68 800 -68 c 2,58,-1
 749 -68 l 1,59,60
 727.666666667 -25.3333333333 727.666666667 -25.3333333333 721 -7 c 1,61,62
 743 65 743 65 749 71 c 1,63,-1
 809 236 l 2,64,65
 984 717 984 717 1274 1483 c 1,66,-1
 1308 1570 l 1,67,68
 1325 1575 1325 1575 1388 1575 c 1,69,-1
 1527 1572 l 1,70,-1
 1553 1572 l 1,37,-1
2451 433 m 1,71,-1
 2467 434 l 1,72,73
 2487 434 2487 434 2494 430 c 128,-1,74
 2501 426 2501 426 2503 408 c 1,75,76
 2515 410 2515 410 2525 410 c 1,77,-1
 2501 386 l 1,78,-1
 2506 215 l 1,79,80
 2506 163 2506 163 2501.5 145.5 c 128,-1,81
 2497 128 2497 128 2481 128 c 2,82,-1
 2440 128 l 1,83,-1
 2425 127 l 1,84,-1
 2379 127 l 1,85,86
 2381 41 2381 41 2381 7 c 128,-1,87
 2381 -27 2381 -27 2376.5 -37 c 128,-1,88
 2372 -47 2372 -47 2355 -49 c 1,89,90
 2261 -47 2261 -47 2158.5 -47 c 128,-1,91
 2056 -47 2056 -47 1976 -52 c 1,92,-1
 1949 -22 l 1,93,-1
 1952 110 l 1,94,-1
 1952 135 l 2,95,96
 1952 150 1952 150 1913.5 150 c 128,-1,97
 1875 150 1875 150 1811 130 c 1,98,-1
 1628 128 l 1,99,-1
 1533 126 l 1,100,101
 1506.125 126 l 2,102,103
 1484 126 1484 126 1480 129 c 128,-1,104
 1476 132 1476 132 1472 134 c 128,-1,105
 1468 136 1468 136 1465.5 138.5 c 128,-1,106
 1463 141 1463 141 1460.5 145 c 128,-1,107
 1458 149 1458 149 1455 153 c 1,108,109
 1455 337 1455 337 1460 413 c 1,110,111
 1504.76691729 528.360902256 1504.76691729 528.360902256 1559.71564067 618.04611472 c 128,-1,112
 1614.66436405 707.731327185 1614.66436405 707.731327185 1643.83218203 752.865663592 c 128,-1,113
 1673 798 1673 798 1685 815 c 128,-1,114
 1697 832 1697 832 1699 835 c 1,115,-1
 1699 834 l 1,116,-1
 1840 1056 l 1,117,118
 1848 1057 1848 1057 1879 1057.5 c 128,-1,119
 1910 1058 1910 1058 1925 1060 c 1,120,-1
 1991 1062 l 1,121,122
 2081 1067 2081 1067 2211 1067 c 2,123,-1
 2356 1067 l 1,124,-1
 2379 1062 l 1,125,-1
 2381 1052 l 1,126,-1
 2379 1053 l 1,127,-1
 2379 1016 l 1,128,-1
 2374 626 l 2,129,130
 2374 568 2374 568 2375 544 c 1,131,-1
 2375 539 l 1,132,-1
 2374 526 l 1,133,-1
 2374 514 l 1,134,135
 2373 507 2373 507 2373 489 c 0,136,137
 2373 433 2373 433 2406 433 c 2,138,-1
 2451 433 l 1,71,-1
1757 430 m 1,139,-1
 1776 393 l 1,140,-1
 1788 393 l 1,141,-1
 1982 396 l 1,142,143
 1998 405 1998 405 2003 421 c 1,144,-1
 2002 435 l 1,145,-1
 2002 484 l 1,146,-1
 2004 594 l 1,147,148
 2004 796 2004 796 1974 803 c 1,149,150
 1963.21403941 796.579337712 1963.21403941 796.579337712 1960 791 c 2,151,-1
 1907 698 l 2,152,153
 1886 661 1886 661 1871 634 c 2,154,-1
 1757 430 l 1,139,-1
EndSplineSet
EndChar

StartChar: onehalf
Encoding: 189 189 126
Width: 2601
Flags: HMW
HStem: -68 21G<749 800 749 749> -30 21G<1472 1472> -17 268<1991.5 2360.5> 603 21G<348 349.5 372.5 375 375 385 652 675.5> 713 363<1470 2043 1474 2043> 831 245<1860 1935> 1552 20G<1527 1553 1553 1554.5> 1553 20G<1480 1481 1480 1480 1561 1573.5> 1555 20G<1369.5 1404.5> 1660 20G
VStem: 331 401 1995 392<709 773.5>
LayerCount: 2
Fore
SplineSet
733 1563 m 1,0,-1
 732 1522 l 1,1,-1
 732 1399 l 2,2,3
 732 1225 732 1225 735 1045 c 2,4,-1
 740 611 l 1,5,6
 731 603 731 603 656 603 c 1,7,-1
 634 604 l 1,8,-1
 437 604 l 1,9,10
 385 603 l 1,11,-1
 375 603 l 1,12,-1
 357 602 l 1,13,-1
 348 603 l 1,14,-1
 336 618 l 1,15,-1
 336 617 l 1,16,17
 331 625 331 625 331 639 c 0,18,19
 331 967 331 967 339 1317 c 1,20,21
 218 1235 218 1235 112 1198 c 0,22,23
 109 1198 109 1198 109 1199 c 2,24,-1
 109 1486 l 1,25,-1
 202 1531 l 1,26,27
 205 1534 205 1534 210 1534 c 1,28,-1
 229 1543 l 1,29,30
 384 1615 384 1615 430 1680 c 1,31,32
 570 1677 570 1677 646 1677 c 128,-1,33
 722 1677 722 1677 732 1678 c 1,34,35
 733 1673 733 1673 733 1643 c 2,36,-1
 733 1563 l 1,0,-1
1553 1572 m 1,37,-1
 1563 1573 l 1,38,39
 1605 1573 1605 1573 1605 1562 c 1,40,41
 1590 1495 1590 1495 1570 1439 c 1,42,-1
 1541 1362 l 1,43,44
 1452 1104 1452 1104 1361 828 c 1,45,-1
 1339 765 l 2,46,47
 1327 731 1327 731 1240.5 474 c 128,-1,48
 1154 217 1154 217 1104 88 c 2,49,-1
 1086 41 l 1,50,-1
 1088 41 l 1,51,52
 1059.42739274 -39.00330033 1059.42739274 -39.00330033 1013.5 -54 c 0,53,54
 989 -62 989 -62 951 -63 c 1,55,-1
 908 -63 l 1,56,57
 870 -68 870 -68 800 -68 c 2,58,-1
 749 -68 l 1,59,60
 727.666666667 -25.3333333333 727.666666667 -25.3333333333 721 -7 c 1,61,62
 743 65 743 65 749 71 c 1,63,-1
 809 236 l 2,64,65
 984 717 984 717 1274 1483 c 1,66,-1
 1308 1570 l 1,67,68
 1325 1575 1325 1575 1388 1575 c 1,69,-1
 1527 1572 l 1,70,-1
 1553 1572 l 1,37,-1
2398 141 m 1,71,-1
 2394 3 l 1,72,-1
 2394 -10 l 2,73,74
 2394 -22 2394 -22 2386 -23 c 1,75,-1
 2333 -22 l 2,76,77
 2116 -17 2116 -17 1964 -17 c 128,-1,78
 1812 -17 1812 -17 1472 -30 c 1,79,-1
 1465 -22 l 1,80,81
 1454 -13 1454 -13 1454 41 c 2,82,-1
 1457 247 l 2,83,84
 1457 253 1457 253 1486 272 c 128,-1,85
 1515 291 1515 291 1522 296 c 128,-1,86
 1529 301 1529 301 1541 309 c 2,87,-1
 1707 421 l 1,88,89
 1811 494 1811 494 1878 554 c 0,90,91
 1995 659 1995 659 1995 747 c 0,92,93
 1995 786 1995 786 1971.5 808.5 c 128,-1,94
 1948 831 1948 831 1912 831 c 128,-1,95
 1876 831 1876 831 1856 815.5 c 128,-1,96
 1836 800 1836 800 1831 781.5 c 128,-1,97
 1826 763 1826 763 1821 741.5 c 128,-1,98
 1816 720 1816 720 1809 713 c 1,99,100
 1784 712 1784 712 1745 712 c 2,101,-1
 1566 712 l 1,102,-1
 1533 713 l 1,103,-1
 1474 713 l 2,104,105
 1458 713 1458 713 1454 715 c 1,106,107
 1458 787 1458 787 1474.5 844 c 128,-1,108
 1491 901 1491 901 1537 949 c 128,-1,109
 1583 997 1583 997 1675.89814815 1036.5 c 128,-1,110
 1768.7962963 1076 1768.7962963 1076 1892.39814815 1076 c 128,-1,111
 2016 1076 2016 1076 2097 1057.5 c 128,-1,112
 2178 1039 2178 1039 2244 1002 c 128,-1,113
 2310 965 2310 965 2348.5 902 c 128,-1,114
 2387 839 2387 839 2387 767.5 c 128,-1,115
 2387 696 2387 696 2366.5 639 c 0,116,117
 2329.87677035 537.169556585 2329.87677035 537.169556585 2242.47122541 456.827085985 c 128,-1,118
 2155.06568047 376.484615385 2155.06568047 376.484615385 2037 301 c 1,119,-1
 2038 302 l 1,120,121
 2022 292 2022 292 1976 246 c 1,122,-1
 2333 251 l 2,123,124
 2371 251 2371 251 2384.5 223 c 128,-1,125
 2398 195 2398 195 2398 141 c 1,71,-1
EndSplineSet
EndChar

StartChar: threequarters
Encoding: 190 190 127
Width: 2588
Flags: HMW
HStem: -68 21G -31 406 150 263 582 239<507.5 568> 582 356<405 568> 1026 20G<1857 1857> 1051 190<471 494 494 511> 1352 357 1471 238<551.5 578.5> 1552 20G<1668 1694 1694 1695.5> 1553 20G<1621 1622 1621 1621 1702 1714.5> 1555 20G<1510.5 1545.5>
VStem: 638 399<800.5 1404> 2000 381 2050 329
LayerCount: 2
Fore
SplineSet
447.5 1049 m 2,0,1
 417 1049 417 1049 417 1099.5 c 0,2,3
 417 1170 417 1170 419.571428571 1206 c 128,-1,4
 422.142857143 1242 422.142857143 1242 437 1242 c 1,5,-1
 450 1241 l 1,6,-1
 494 1241 l 2,7,8
 562 1241 562 1241 600 1271.5 c 128,-1,9
 638 1302 638 1302 638 1360.5 c 0,10,11
 638 1471 638 1471 549 1471 c 0,12,13
 512 1471 512 1471 491.5 1456 c 128,-1,14
 471 1441 471 1441 467 1422 c 0,15,16
 453.933333333 1359.93333333 453.933333333 1359.93333333 442 1348 c 1,17,18
 295 1348 295 1348 172 1352 c 1,19,-1
 135 1352 l 2,20,21
 105 1352 105 1352 99 1358 c 1,22,23
 101 1367 101 1367 103.5 1410 c 128,-1,24
 106 1453 106 1453 116 1478 c 0,25,26
 162 1591 162 1591 236.5 1637 c 128,-1,27
 311 1683 311 1683 403 1696 c 128,-1,28
 495 1709 495 1709 587 1709 c 128,-1,29
 679 1709 679 1709 747 1690.5 c 128,-1,30
 815 1672 815 1672 876 1637.5 c 128,-1,31
 937 1603 937 1603 975.5 1544 c 128,-1,32
 1014 1485 1014 1485 1014 1424 c 0,33,34
 1014 1312.90140845 1014 1312.90140845 945.896786156 1261.10459792 c 128,-1,35
 877.793572311 1209.30778739 877.793572311 1209.30778739 778 1178 c 1,36,37
 917 1135 917 1135 977 1075 c 128,-1,38
 1037 1015 1037 1015 1037 924 c 0,39,40
 1037 636 1037 636 668 588 c 1,41,42
 603 582 603 582 512 582 c 128,-1,43
 421 582 421 582 322.5 610.5 c 128,-1,44
 224 639 224 639 155 708 c 1,45,46
 87 768 87 768 82 931 c 0,47,48
 82 934 82 934 83 934 c 2,49,-1
 405 938 l 1,50,-1
 429 939 l 2,51,52
 434 939 434 939 436 933 c 1,53,54
 442.323125263 877.497787567 442.323125263 877.497787567 466.661562631 849.248893784 c 128,-1,55
 491 821 491 821 543.5 821 c 128,-1,56
 596 821 596 821 622.5 849.5 c 128,-1,57
 649 878 649 878 649 917 c 0,58,59
 649 1050.08 649 1050.08 501.39616 1050.08 c 1,60,-1
 447.5 1049 l 2,0,1
117 1482 m 2,61,-1
 118 1484 l 2,62,63
 118 1483 118 1483 117 1482 c 2,61,-1
1694 1572 m 1,64,-1
 1704 1573 l 1,65,66
 1746 1573 1746 1573 1746 1562 c 1,67,68
 1731 1495 1731 1495 1711 1439 c 1,69,-1
 1682 1362 l 1,70,71
 1593 1104 1593 1104 1502 828 c 1,72,-1
 1480 765 l 2,73,74
 1468 731 1468 731 1381.5 474 c 128,-1,75
 1295 217 1295 217 1245 88 c 2,76,-1
 1227 41 l 1,77,-1
 1229 41 l 1,78,79
 1200.42739274 -39.00330033 1200.42739274 -39.00330033 1154.5 -54 c 0,80,81
 1130 -62 1130 -62 1092 -63 c 1,82,-1
 1049 -63 l 1,83,84
 1011 -68 1011 -68 941 -68 c 2,85,-1
 890 -68 l 1,86,87
 868.666666667 -25.3333333333 868.666666667 -25.3333333333 862 -7 c 1,88,89
 884 65 884 65 890 71 c 1,90,-1
 950 236 l 2,91,92
 1125 717 1125 717 1415 1483 c 1,93,-1
 1449 1570 l 1,94,95
 1466 1575 1466 1575 1529 1575 c 1,96,-1
 1668 1572 l 1,97,-1
 1694 1572 l 1,64,-1
2477 433 m 1,98,-1
 2493 434 l 1,99,100
 2513 434 2513 434 2520 430 c 128,-1,101
 2527 426 2527 426 2529 408 c 1,102,103
 2541 410 2541 410 2551 410 c 1,104,-1
 2527 386 l 1,105,-1
 2532 215 l 1,106,107
 2532 163 2532 163 2527.5 145.5 c 128,-1,108
 2523 128 2523 128 2507 128 c 2,109,-1
 2466 128 l 1,110,-1
 2451 127 l 1,111,-1
 2405 127 l 1,112,113
 2407 41 2407 41 2407 7 c 128,-1,114
 2407 -27 2407 -27 2402.5 -37 c 128,-1,115
 2398 -47 2398 -47 2381 -49 c 1,116,117
 2287 -47 2287 -47 2184.5 -47 c 128,-1,118
 2082 -47 2082 -47 2002 -52 c 1,119,-1
 1975 -22 l 1,120,-1
 1978 110 l 1,121,-1
 1978 135 l 2,122,123
 1978 150 1978 150 1939.5 150 c 128,-1,124
 1901 150 1901 150 1837 130 c 1,125,-1
 1654 128 l 1,126,-1
 1559 126 l 1,127,-1
 1532.125 126 l 2,128,129
 1510 126 1510 126 1506 129 c 128,-1,130
 1502 132 1502 132 1498 134 c 128,-1,131
 1494 136 1494 136 1491.5 138.5 c 128,-1,132
 1489 141 1489 141 1486.5 145 c 128,-1,133
 1484 149 1484 149 1481 153 c 1,134,135
 1481 337 1481 337 1486 413 c 1,136,137
 1530.76691729 528.360902256 1530.76691729 528.360902256 1585.71564067 618.04611472 c 128,-1,138
 1640.66436405 707.731327185 1640.66436405 707.731327185 1669.83218203 752.865663592 c 128,-1,139
 1699 798 1699 798 1711 815 c 128,-1,140
 1723 832 1723 832 1725 835 c 1,141,-1
 1725 834 l 1,142,-1
 1866 1056 l 1,143,144
 1874 1057 1874 1057 1905 1057.5 c 128,-1,145
 1936 1058 1936 1058 1951 1060 c 1,146,-1
 2017 1062 l 1,147,148
 2107 1067 2107 1067 2237 1067 c 2,149,-1
 2382 1067 l 1,150,-1
 2405 1062 l 1,151,-1
 2407 1052 l 1,152,-1
 2405 1053 l 1,153,-1
 2405 1016 l 1,154,-1
 2400 626 l 2,155,156
 2400 568 2400 568 2401 544 c 1,157,-1
 2401 539 l 1,158,-1
 2400 526 l 1,159,-1
 2400 514 l 1,160,161
 2399 507 2399 507 2399 489 c 0,162,163
 2399 433 2399 433 2432 433 c 2,164,-1
 2477 433 l 1,98,-1
1783 430 m 1,165,-1
 1802 393 l 1,166,-1
 1814 393 l 1,167,-1
 2008 396 l 1,168,169
 2024 405 2024 405 2029 421 c 1,170,-1
 2028 435 l 1,171,-1
 2028 484 l 1,172,-1
 2030 594 l 1,173,174
 2030 796 2030 796 2000 803 c 1,175,176
 1989.21403941 796.579337712 1989.21403941 796.579337712 1986 791 c 2,177,-1
 1933 698 l 2,178,179
 1912 661 1912 661 1897 634 c 2,180,-1
 1783 430 l 1,165,-1
EndSplineSet
EndChar

